<svg width="333" height="72" viewBox="0 0 333 72" fill="none" xmlns="http://www.w3.org/2000/svg">
<g filter="url(#filter0_d_263_4743)">
<rect x="12" y="12" width="309" height="48" rx="4" fill="white" shape-rendering="crispEdges"/>
<path d="M30 38H38V36H30V38ZM30 35H42V33H30V35ZM30 32H42V30H30V32ZM26 46V28C26 27.45 26.1958 26.9792 26.5875 26.5875C26.9792 26.1958 27.45 26 28 26H44C44.55 26 45.0208 26.1958 45.4125 26.5875C45.8042 26.9792 46 27.45 46 28V40C46 40.55 45.8042 41.0208 45.4125 41.4125C45.0208 41.8042 44.55 42 44 42H30L26 46ZM29.15 40H44V28H28V41.125L29.15 40Z" fill="#1C1B1F"/>
<path d="M80.4 40H82.8V37H85.5V35H82.8V32H80.4V35H77.5V37H80.4V40ZM74.4 44C73.74 44 73.175 43.8042 72.705 43.4125C72.235 43.0208 72 42.55 72 42V30C72 29.45 72.235 28.9792 72.705 28.5875C73.175 28.1958 73.74 28 74.4 28H88.8C89.46 28 90.025 28.1958 90.495 28.5875C90.965 28.9792 91.2 29.45 91.2 30V34.5L96 30.5V41.5L91.2 37.5V42C91.2 42.55 90.965 43.0208 90.495 43.4125C90.025 43.8042 89.46 44 88.8 44H74.4ZM74.4 42H88.8V30H74.4V42Z" fill="#1C1B1F"/>
<mask id="mask0_263_4743" style="mask-type:alpha" maskUnits="userSpaceOnUse" x="120" y="24" width="24" height="24">
<rect x="120" y="24" width="24" height="24" fill="#D9D9D9"/>
</mask>
<g mask="url(#mask0_263_4743)">
<path d="M132.5 35.95C132.983 35.4167 133.354 34.8083 133.613 34.125C133.871 33.4417 134 32.7333 134 32C134 31.2667 133.871 30.5583 133.613 29.875C133.354 29.1917 132.983 28.5833 132.5 28.05C133.5 28.1833 134.333 28.625 135 29.375C135.667 30.125 136 31 136 32C136 33 135.667 33.875 135 34.625C134.333 35.375 133.5 35.8167 132.5 35.95ZM138 44V41C138 40.4 137.867 39.8292 137.6 39.2875C137.333 38.7458 136.983 38.2667 136.55 37.85C137.4 38.15 138.188 38.5375 138.913 39.0125C139.638 39.4875 140 40.15 140 41V44H138ZM140 37V35H138V33H140V31H142V33H144V35H142V37H140ZM128 36C126.9 36 125.958 35.6083 125.175 34.825C124.392 34.0417 124 33.1 124 32C124 30.9 124.392 29.9583 125.175 29.175C125.958 28.3917 126.9 28 128 28C129.1 28 130.042 28.3917 130.825 29.175C131.608 29.9583 132 30.9 132 32C132 33.1 131.608 34.0417 130.825 34.825C130.042 35.6083 129.1 36 128 36ZM120 44V41.2C120 40.6333 120.146 40.1125 120.438 39.6375C120.729 39.1625 121.117 38.8 121.6 38.55C122.633 38.0333 123.683 37.6458 124.75 37.3875C125.817 37.1292 126.9 37 128 37C129.1 37 130.183 37.1292 131.25 37.3875C132.317 37.6458 133.367 38.0333 134.4 38.55C134.883 38.8 135.271 39.1625 135.562 39.6375C135.854 40.1125 136 40.6333 136 41.2V44H120ZM128 34C128.55 34 129.021 33.8042 129.413 33.4125C129.804 33.0208 130 32.55 130 32C130 31.45 129.804 30.9792 129.413 30.5875C129.021 30.1958 128.55 30 128 30C127.45 30 126.979 30.1958 126.588 30.5875C126.196 30.9792 126 31.45 126 32C126 32.55 126.196 33.0208 126.588 33.4125C126.979 33.8042 127.45 34 128 34ZM122 42H134V41.2C134 41.0167 133.954 40.85 133.863 40.7C133.771 40.55 133.65 40.4333 133.5 40.35C132.6 39.9 131.692 39.5625 130.775 39.3375C129.858 39.1125 128.933 39 128 39C127.067 39 126.142 39.1125 125.225 39.3375C124.308 39.5625 123.4 39.9 122.5 40.35C122.35 40.4333 122.229 40.55 122.138 40.7C122.046 40.85 122 41.0167 122 41.2V42Z" fill="#1C1B1F"/>
</g>
<path d="M152.588 34.108C152.588 33.5293 152.733 33.0207 153.022 32.582C153.311 32.1433 153.717 31.8027 154.24 31.56C154.772 31.3173 155.383 31.196 156.074 31.196C156.718 31.196 157.278 31.3127 157.754 31.546C158.239 31.77 158.617 32.092 158.888 32.512C159.168 32.932 159.327 33.436 159.364 34.024H157.978C157.941 33.52 157.754 33.128 157.418 32.848C157.082 32.568 156.629 32.428 156.06 32.428C155.425 32.428 154.917 32.5773 154.534 32.876C154.151 33.1653 153.96 33.562 153.96 34.066C153.96 34.4767 154.077 34.808 154.31 35.06C154.543 35.3027 154.898 35.48 155.374 35.592L157.04 35.984C157.871 36.1707 158.491 36.4927 158.902 36.95C159.322 37.398 159.532 37.9767 159.532 38.686C159.532 39.2927 159.383 39.82 159.084 40.268C158.795 40.716 158.379 41.0613 157.838 41.304C157.306 41.5467 156.681 41.668 155.962 41.668C155.281 41.668 154.679 41.556 154.156 41.332C153.643 41.0987 153.237 40.772 152.938 40.352C152.649 39.9227 152.485 39.4233 152.448 38.854H153.848C153.857 39.3393 154.053 39.7267 154.436 40.016C154.819 40.296 155.327 40.436 155.962 40.436C156.634 40.436 157.166 40.2867 157.558 39.988C157.959 39.6893 158.16 39.2927 158.16 38.798C158.16 38.3967 158.048 38.07 157.824 37.818C157.6 37.566 157.245 37.384 156.76 37.272L155.094 36.894C154.273 36.7073 153.647 36.3807 153.218 35.914C152.798 35.438 152.588 34.836 152.588 34.108ZM162.208 41.486H160.892V31.196H162.208V35.704C162.423 35.3307 162.731 35.032 163.132 34.808C163.533 34.5747 164 34.458 164.532 34.458C165.4 34.458 166.049 34.7147 166.478 35.228C166.907 35.7413 167.122 36.4367 167.122 37.314V41.5H165.806V37.608C165.806 37.1413 165.736 36.768 165.596 36.488C165.465 36.1987 165.274 35.9887 165.022 35.858C164.779 35.7273 164.495 35.662 164.168 35.662C163.748 35.662 163.389 35.7553 163.09 35.942C162.801 36.1287 162.581 36.3807 162.432 36.698C162.283 37.0153 162.208 37.37 162.208 37.762V41.486ZM170.807 41.668C170.079 41.668 169.505 41.4767 169.085 41.094C168.674 40.7113 168.469 40.212 168.469 39.596C168.469 38.9707 168.693 38.4713 169.141 38.098C169.589 37.7153 170.214 37.4913 171.017 37.426L173.173 37.258V37.062C173.173 36.6793 173.103 36.376 172.963 36.152C172.823 35.9187 172.631 35.7553 172.389 35.662C172.146 35.5593 171.871 35.508 171.563 35.508C171.012 35.508 170.583 35.6247 170.275 35.858C169.976 36.082 169.827 36.404 169.827 36.824H168.679C168.679 36.348 168.8 35.9327 169.043 35.578C169.285 35.2233 169.626 34.948 170.065 34.752C170.513 34.556 171.031 34.458 171.619 34.458C172.188 34.458 172.683 34.5607 173.103 34.766C173.532 34.962 173.863 35.2653 174.097 35.676C174.339 36.0773 174.461 36.586 174.461 37.202V41.5H173.341L173.201 40.394C173.023 40.786 172.715 41.0987 172.277 41.332C171.847 41.556 171.357 41.668 170.807 41.668ZM171.185 40.646C171.81 40.646 172.3 40.4593 172.655 40.086C173.009 39.7033 173.187 39.19 173.187 38.546V38.182L171.437 38.322C170.858 38.378 170.438 38.5133 170.177 38.728C169.925 38.9427 169.799 39.218 169.799 39.554C169.799 39.918 169.92 40.1933 170.163 40.38C170.415 40.5573 170.755 40.646 171.185 40.646ZM180.063 34.598V35.802H179.475C178.85 35.802 178.355 35.984 177.991 36.348C177.637 36.7027 177.459 37.2113 177.459 37.874V41.5H176.143V34.668H177.375L177.487 36.04H177.361C177.455 35.592 177.679 35.228 178.033 34.948C178.388 34.6587 178.831 34.514 179.363 34.514C179.485 34.514 179.597 34.5233 179.699 34.542C179.811 34.5513 179.933 34.57 180.063 34.598ZM183.866 41.668C183.203 41.668 182.615 41.5187 182.102 41.22C181.588 40.912 181.187 40.492 180.898 39.96C180.608 39.4187 180.464 38.7933 180.464 38.084C180.464 37.3653 180.604 36.7353 180.884 36.194C181.173 35.6527 181.565 35.228 182.06 34.92C182.564 34.612 183.147 34.458 183.81 34.458C184.463 34.458 185.028 34.598 185.504 34.878C185.989 35.158 186.362 35.55 186.624 36.054C186.894 36.558 187.03 37.1507 187.03 37.832V38.322L181.164 38.336L181.192 37.454H185.714C185.714 36.8847 185.541 36.4273 185.196 36.082C184.85 35.7367 184.388 35.564 183.81 35.564C183.371 35.564 182.993 35.662 182.676 35.858C182.368 36.0447 182.13 36.3247 181.962 36.698C181.803 37.062 181.724 37.5007 181.724 38.014C181.724 38.8353 181.91 39.47 182.284 39.918C182.657 40.3567 183.194 40.576 183.894 40.576C184.407 40.576 184.827 40.4733 185.154 40.268C185.48 40.0627 185.7 39.764 185.812 39.372H187.044C186.876 40.1 186.516 40.6647 185.966 41.066C185.415 41.4673 184.715 41.668 183.866 41.668Z" fill="black"/>
<line x1="204.5" y1="24" x2="204.5" y2="48" stroke="#E6E6E6"/>
<path d="M225.93 44.5938C225.946 43.34 226.452 42.1431 227.337 41.2621C228.222 40.3812 229.416 39.8869 230.66 39.8862H236.345C237.589 39.8869 238.783 40.3812 239.669 41.2621C240.554 42.1431 241.06 43.34 241.076 44.5938C238.998 46.4809 236.3 47.5253 233.503 47.5253C230.706 47.5253 228.008 46.4809 225.93 44.5938ZM237.766 32.7247C237.766 33.5745 237.516 34.4053 237.048 35.1119C236.579 35.8185 235.914 36.3693 235.134 36.6945C234.355 37.0197 233.498 37.1048 232.671 36.939C231.844 36.7732 231.084 36.364 230.488 35.7631C229.892 35.1621 229.486 34.3965 229.321 33.563C229.157 32.7294 229.241 31.8655 229.564 31.0803C229.886 30.2951 230.433 29.6241 231.134 29.1519C231.835 28.6797 232.66 28.4277 233.503 28.4277C234.634 28.4277 235.718 28.8804 236.518 29.6863C237.317 30.4921 237.766 31.5851 237.766 32.7247Z" fill="white"/>
<path d="M243.882 44.6109C245.268 42.9449 246.232 40.9699 246.692 38.853C247.153 36.736 247.096 34.5395 246.527 32.4491C245.958 30.3587 244.893 28.436 243.423 26.8436C241.954 25.2512 240.121 24.036 238.082 23.3007C236.043 22.5654 233.856 22.3318 231.707 22.6195C229.558 22.9072 227.51 23.7078 225.737 24.9536C223.963 26.1994 222.515 27.8537 221.517 29.7766C220.518 31.6995 219.998 33.8344 220 36.0007C220.001 39.1499 221.111 42.1983 223.137 44.6109L223.118 44.6273C223.185 44.7083 223.263 44.7777 223.332 44.8577C223.419 44.957 223.513 45.0506 223.602 45.147C223.872 45.4401 224.15 45.7216 224.442 45.9858C224.531 46.0668 224.622 46.142 224.712 46.2192C225.021 46.4853 225.338 46.7379 225.667 46.9731C225.71 47.0021 225.748 47.0397 225.791 47.0696V47.058C228.051 48.6471 230.747 49.5 233.511 49.5C236.274 49.5 238.97 48.6471 241.23 47.058V47.0696C241.273 47.0397 241.311 47.0021 241.354 46.9731C241.682 46.7369 242 46.4853 242.309 46.2192C242.399 46.142 242.491 46.0659 242.579 45.9858C242.871 45.7207 243.149 45.4401 243.419 45.147C243.509 45.0506 243.601 44.957 243.689 44.8577C243.758 44.7777 243.836 44.7083 243.903 44.6263L243.882 44.6109ZM233.51 28.2873C234.368 28.2873 235.208 28.5417 235.922 29.0185C236.636 29.4953 237.193 30.1729 237.521 30.9657C237.85 31.7585 237.936 32.6309 237.769 33.4726C237.601 34.3142 237.187 35.0873 236.58 35.6941C235.973 36.3009 235.199 36.7141 234.357 36.8816C233.514 37.049 232.641 36.963 231.848 36.6347C231.054 36.3063 230.376 35.7501 229.899 35.0366C229.422 34.3231 229.167 33.4842 229.167 32.6261C229.167 31.4754 229.625 30.3718 230.439 29.5581C231.253 28.7444 232.358 28.2873 233.51 28.2873ZM225.797 44.6109C225.813 43.3449 226.328 42.1364 227.23 41.2468C228.132 40.3572 229.348 39.8581 230.615 39.8575H236.405C237.672 39.8581 238.888 40.3572 239.789 41.2468C240.691 42.1364 241.206 43.3449 241.223 44.6109C239.106 46.5164 236.359 47.571 233.51 47.571C230.661 47.571 227.913 46.5164 225.797 44.6109Z" fill="#F4BE50"/>
<path d="M256.93 44.5938C256.946 43.34 257.452 42.1431 258.337 41.2621C259.222 40.3812 260.416 39.8869 261.66 39.8862H267.345C268.589 39.8869 269.783 40.3812 270.669 41.2621C271.554 42.1431 272.06 43.34 272.076 44.5938C269.998 46.4809 267.3 47.5253 264.503 47.5253C261.706 47.5253 259.008 46.4809 256.93 44.5938ZM268.766 32.7247C268.766 33.5745 268.516 34.4053 268.048 35.1119C267.579 35.8185 266.914 36.3693 266.134 36.6945C265.355 37.0197 264.498 37.1048 263.671 36.939C262.844 36.7732 262.084 36.364 261.488 35.7631C260.892 35.1621 260.486 34.3965 260.321 33.563C260.157 32.7294 260.241 31.8655 260.564 31.0803C260.886 30.2951 261.433 29.6241 262.134 29.1519C262.835 28.6797 263.66 28.4277 264.503 28.4277C265.634 28.4277 266.718 28.8804 267.518 29.6863C268.317 30.4921 268.766 31.5851 268.766 32.7247Z" fill="white"/>
<path d="M274.882 44.6109C276.268 42.9449 277.232 40.9699 277.692 38.853C278.153 36.736 278.096 34.5395 277.527 32.4491C276.958 30.3587 275.893 28.436 274.423 26.8436C272.954 25.2512 271.121 24.036 269.082 23.3007C267.043 22.5654 264.856 22.3318 262.707 22.6195C260.558 22.9072 258.51 23.7078 256.737 24.9536C254.963 26.1994 253.515 27.8537 252.517 29.7766C251.518 31.6995 250.998 33.8344 251 36.0007C251.001 39.1499 252.111 42.1983 254.137 44.6109L254.118 44.6273C254.185 44.7083 254.263 44.7777 254.332 44.8577C254.419 44.957 254.513 45.0506 254.602 45.147C254.872 45.4401 255.15 45.7216 255.442 45.9858C255.531 46.0668 255.622 46.142 255.712 46.2192C256.021 46.4853 256.338 46.7379 256.667 46.9731C256.71 47.0021 256.748 47.0397 256.791 47.0696V47.058C259.051 48.6471 261.747 49.5 264.511 49.5C267.274 49.5 269.97 48.6471 272.23 47.058V47.0696C272.273 47.0397 272.311 47.0021 272.354 46.9731C272.682 46.7369 273 46.4853 273.309 46.2192C273.399 46.142 273.491 46.0659 273.579 45.9858C273.871 45.7207 274.149 45.4401 274.419 45.147C274.509 45.0506 274.601 44.957 274.689 44.8577C274.758 44.7777 274.836 44.7083 274.903 44.6263L274.882 44.6109ZM264.51 28.2873C265.368 28.2873 266.208 28.5417 266.922 29.0185C267.636 29.4953 268.193 30.1729 268.521 30.9657C268.85 31.7585 268.936 32.6309 268.769 33.4726C268.601 34.3142 268.187 35.0873 267.58 35.6941C266.973 36.3009 266.199 36.7141 265.357 36.8816C264.514 37.049 263.641 36.963 262.848 36.6347C262.054 36.3063 261.376 35.7501 260.899 35.0366C260.422 34.3231 260.167 33.4842 260.167 32.6261C260.167 31.4754 260.625 30.3718 261.439 29.5581C262.253 28.7444 263.358 28.2873 264.51 28.2873ZM256.797 44.6109C256.813 43.3449 257.328 42.1364 258.23 41.2468C259.132 40.3572 260.348 39.8581 261.615 39.8575H267.405C268.672 39.8581 269.888 40.3572 270.789 41.2468C271.691 42.1364 272.206 43.3449 272.223 44.6109C270.106 46.5164 267.359 47.571 264.51 47.571C261.661 47.571 258.913 46.5164 256.797 44.6109Z" fill="#559A8B"/>
<path d="M287.93 44.5938C287.946 43.34 288.452 42.1431 289.337 41.2621C290.222 40.3812 291.416 39.8869 292.66 39.8862H298.345C299.589 39.8869 300.783 40.3812 301.669 41.2621C302.554 42.1431 303.06 43.34 303.076 44.5938C300.998 46.4809 298.3 47.5253 295.503 47.5253C292.706 47.5253 290.008 46.4809 287.93 44.5938ZM299.766 32.7247C299.766 33.5745 299.516 34.4053 299.048 35.1119C298.579 35.8185 297.914 36.3693 297.134 36.6945C296.355 37.0197 295.498 37.1048 294.671 36.939C293.844 36.7732 293.084 36.364 292.488 35.7631C291.892 35.1621 291.486 34.3965 291.321 33.563C291.157 32.7294 291.241 31.8655 291.564 31.0803C291.886 30.2951 292.433 29.6241 293.134 29.1519C293.835 28.6797 294.66 28.4277 295.503 28.4277C296.634 28.4277 297.718 28.8804 298.518 29.6863C299.317 30.4921 299.766 31.5851 299.766 32.7247Z" fill="white"/>
<path d="M305.882 44.6109C307.268 42.9449 308.232 40.9699 308.692 38.853C309.153 36.736 309.096 34.5395 308.527 32.4491C307.958 30.3587 306.893 28.436 305.423 26.8436C303.954 25.2512 302.121 24.036 300.082 23.3007C298.043 22.5654 295.856 22.3318 293.707 22.6195C291.558 22.9072 289.51 23.7078 287.737 24.9536C285.963 26.1994 284.515 27.8537 283.517 29.7766C282.518 31.6995 281.998 33.8344 282 36.0007C282.001 39.1499 283.111 42.1983 285.137 44.6109L285.118 44.6273C285.185 44.7083 285.263 44.7777 285.332 44.8577C285.419 44.957 285.513 45.0506 285.602 45.147C285.872 45.4401 286.15 45.7216 286.442 45.9858C286.531 46.0668 286.622 46.142 286.712 46.2192C287.021 46.4853 287.338 46.7379 287.667 46.9731C287.71 47.0021 287.748 47.0397 287.791 47.0696V47.058C290.051 48.6471 292.747 49.5 295.511 49.5C298.274 49.5 300.97 48.6471 303.23 47.058V47.0696C303.273 47.0397 303.311 47.0021 303.354 46.9731C303.682 46.7369 304 46.4853 304.309 46.2192C304.399 46.142 304.491 46.0659 304.579 45.9858C304.871 45.7207 305.149 45.4401 305.419 45.147C305.509 45.0506 305.601 44.957 305.689 44.8577C305.758 44.7777 305.836 44.7083 305.903 44.6263L305.882 44.6109ZM295.51 28.2873C296.368 28.2873 297.208 28.5417 297.922 29.0185C298.636 29.4953 299.193 30.1729 299.521 30.9657C299.85 31.7585 299.936 32.6309 299.769 33.4726C299.601 34.3142 299.187 35.0873 298.58 35.6941C297.973 36.3009 297.199 36.7141 296.357 36.8816C295.514 37.049 294.641 36.963 293.848 36.6347C293.054 36.3063 292.376 35.7501 291.899 35.0366C291.422 34.3231 291.167 33.4842 291.167 32.6261C291.167 31.4754 291.625 30.3718 292.439 29.5581C293.253 28.7444 294.358 28.2873 295.51 28.2873ZM287.797 44.6109C287.813 43.3449 288.328 42.1364 289.23 41.2468C290.132 40.3572 291.348 39.8581 292.615 39.8575H298.405C299.672 39.8581 300.888 40.3572 301.789 41.2468C302.691 42.1364 303.206 43.3449 303.223 44.6109C301.106 46.5164 298.359 47.571 295.51 47.571C292.661 47.571 289.913 46.5164 287.797 44.6109Z" fill="#EF7158"/>
<circle opacity="0.4" cx="295.5" cy="36" r="13.5" fill="black"/>
</g>
<defs>
<filter id="filter0_d_263_4743" x="0" y="0" width="333" height="72" filterUnits="userSpaceOnUse" color-interpolation-filters="sRGB">
<feFlood flood-opacity="0" result="BackgroundImageFix"/>
<feColorMatrix in="SourceAlpha" type="matrix" values="0 0 0 0 0 0 0 0 0 0 0 0 0 0 0 0 0 0 127 0" result="hardAlpha"/>
<feOffset/>
<feGaussianBlur stdDeviation="6"/>
<feComposite in2="hardAlpha" operator="out"/>
<feColorMatrix type="matrix" values="0 0 0 0 0 0 0 0 0 0 0 0 0 0 0 0 0 0 0.08 0"/>
<feBlend mode="normal" in2="BackgroundImageFix" result="effect1_dropShadow_263_4743"/>
<feBlend mode="normal" in="SourceGraphic" in2="effect1_dropShadow_263_4743" result="shape"/>
</filter>
</defs>
</svg>
