<?xml version="1.0" encoding="UTF-8"?>
<svg id="Layer_1" data-name="Layer 1" xmlns="http://www.w3.org/2000/svg" xmlns:xlink="http://www.w3.org/1999/xlink" viewBox="0 0 232 440">
  <defs>
    <style>
      .cls-1 {
        mask: url(#mask-5);
      }

      .cls-2 {
        mask: url(#mask-1);
      }

      .cls-3 {
        mask: url(#mask-10);
      }

      .cls-4 {
        mask: url(#mask-6);
      }

      .cls-5 {
        mask: url(#mask-7);
      }

      .cls-6 {
        fill: #fff;
      }

      .cls-7 {
        mask: url(#mask);
      }

      .cls-8 {
        fill-rule: evenodd;
      }

      .cls-8, .cls-9 {
        fill: #a0a0a0;
      }

      .cls-10 {
        mask: url(#mask-8);
      }

      .cls-11 {
        mask: url(#mask-2);
      }

      .cls-12 {
        mask: url(#mask-9);
      }

      .cls-13 {
        fill: #1c1b1f;
      }

      .cls-14 {
        mask: url(#mask-11);
      }

      .cls-15 {
        mask: url(#mask-4);
      }

      .cls-16 {
        fill: none;
        stroke: #a0a0a0;
      }

      .cls-17 {
        fill: #d9d9d9;
      }

      .cls-18 {
        mask: url(#mask-3);
      }
    </style>
    <mask id="mask" x="8" y="8" width="20" height="20" maskUnits="userSpaceOnUse">
      <g id="mask0_263_4845" data-name="mask0 263 4845">
        <rect class="cls-17" x="8" y="8" width="20" height="20"/>
      </g>
    </mask>
    <mask id="mask-1" x="176" y="8" width="20" height="20" maskUnits="userSpaceOnUse">
      <g id="mask1_263_4845" data-name="mask1 263 4845">
        <rect class="cls-17" x="176" y="8" width="20" height="20"/>
      </g>
    </mask>
    <mask id="mask-2" x="204" y="8" width="20" height="20" maskUnits="userSpaceOnUse">
      <g id="mask2_263_4845" data-name="mask2 263 4845">
        <rect class="cls-17" x="204" y="8" width="20" height="20"/>
      </g>
    </mask>
    <mask id="mask-3" x="8" y="44" width="20" height="20" maskUnits="userSpaceOnUse">
      <g id="mask3_263_4845" data-name="mask3 263 4845">
        <rect class="cls-9" x="8" y="44" width="20" height="20"/>
      </g>
    </mask>
    <mask id="mask-4" x="176" y="44" width="20" height="20" maskUnits="userSpaceOnUse">
      <g id="mask4_263_4845" data-name="mask4 263 4845">
        <rect class="cls-17" x="176" y="44" width="20" height="20"/>
      </g>
    </mask>
    <mask id="mask-5" x="204" y="44" width="20" height="20" maskUnits="userSpaceOnUse">
      <g id="mask5_263_4845" data-name="mask5 263 4845">
        <rect class="cls-17" x="204" y="44" width="20" height="20"/>
      </g>
    </mask>
    <mask id="mask-6" x="176" y="82" width="20" height="20" maskUnits="userSpaceOnUse">
      <g id="mask6_263_4845" data-name="mask6 263 4845">
        <rect class="cls-17" x="176" y="82" width="20" height="20"/>
      </g>
    </mask>
    <mask id="mask-7" x="204" y="82" width="20" height="20" maskUnits="userSpaceOnUse">
      <g id="mask7_263_4845" data-name="mask7 263 4845">
        <rect class="cls-17" x="204" y="82" width="20" height="20"/>
      </g>
    </mask>
    <mask id="mask-8" x="176" y="120" width="20" height="20" maskUnits="userSpaceOnUse">
      <g id="mask8_263_4845" data-name="mask8 263 4845">
        <rect class="cls-17" x="176" y="120" width="20" height="20"/>
      </g>
    </mask>
    <mask id="mask-9" x="204" y="120" width="20" height="20" maskUnits="userSpaceOnUse">
      <g id="mask9_263_4845" data-name="mask9 263 4845">
        <rect class="cls-17" x="204" y="120" width="20" height="20"/>
      </g>
    </mask>
    <mask id="mask-10" x="176" y="158" width="20" height="20" maskUnits="userSpaceOnUse">
      <g id="mask10_263_4845" data-name="mask10 263 4845">
        <rect class="cls-17" x="176" y="158" width="20" height="20"/>
      </g>
    </mask>
    <mask id="mask-11" x="204" y="158" width="20" height="20" maskUnits="userSpaceOnUse">
      <g id="mask11_263_4845" data-name="mask11 263 4845">
        <rect class="cls-17" x="204" y="158" width="20" height="20"/>
      </g>
    </mask>
  </defs>
  <rect class="cls-6" width="232" height="440" rx="4" ry="4"/>
  <g class="cls-7">
    <path class="cls-13" d="M18,19l-9-4.5,9-4.5,9,4.5-9,4.5ZM18,22.5l-8.5-4.25,1.67-.83,6.83,3.4,6.83-3.4,1.67.83-8.5,4.25ZM18,26l-8.5-4.25,1.67-.83,6.83,3.4,6.83-3.4,1.67.83-8.5,4.25ZM18,17.31l5.65-2.81-5.65-2.81-5.65,2.81,5.65,2.81Z"/>
  </g>
  <path d="M34.23,13.48v10.02h-1.01v-10.02h1.01ZM33.39,23.5v-.92h5.45v.92h-5.45ZM42.08,23.67c-.72,0-1.28-.19-1.69-.56-.4-.37-.6-.85-.6-1.44,0-.63.22-1.12.67-1.5.45-.37,1.07-.59,1.86-.66l2.24-.18v-.22c0-.45-.08-.8-.24-1.05-.16-.26-.37-.44-.64-.55-.27-.1-.57-.15-.91-.15-.6,0-1.06.13-1.39.38-.33.25-.49.61-.49,1.06h-.88c0-.46.12-.85.35-1.19.23-.34.56-.6.98-.78.42-.19.91-.28,1.46-.28s1,.09,1.4.28c.4.18.72.46.95.84.24.37.36.86.36,1.46v4.38h-.81l-.13-1.19c-.21.43-.53.77-.98,1.01-.44.23-.94.35-1.51.35ZM42.3,22.88c.72,0,1.27-.23,1.67-.69.39-.46.59-1.05.59-1.78v-.36l-2,.15c-.63.06-1.09.21-1.37.48-.28.26-.42.58-.42.95,0,.41.14.72.42.94.28.21.65.31,1.12.31ZM47.44,16.72l2.55,6.92-.71.56-2.86-7.48h1.02ZM46.61,26.45v-.8h.74c.2,0,.39-.02.57-.06.2-.03.37-.11.53-.24.17-.13.3-.35.41-.66l2.9-7.98h.99l-3.11,8.33c-.2.53-.46.91-.8,1.15-.33.23-.73.35-1.22.35-.2,0-.38,0-.55-.03-.17,0-.33-.03-.48-.07ZM56.48,23.67c-.65,0-1.23-.15-1.74-.45-.49-.3-.88-.71-1.16-1.25-.28-.53-.42-1.15-.42-1.86s.14-1.32.41-1.85c.28-.54.66-.96,1.15-1.26.49-.31,1.05-.46,1.69-.46s1.15.14,1.61.41c.47.27.83.65,1.08,1.13.26.48.39,1.04.39,1.68v.48h-5.8l.03-.7h4.8c0-.65-.2-1.18-.59-1.57-.38-.4-.89-.6-1.53-.6-.47,0-.88.11-1.23.32-.35.21-.61.52-.8.92-.19.39-.28.86-.28,1.4,0,.9.21,1.59.62,2.09.42.49,1.01.74,1.78.74.55,0,1-.12,1.36-.35.35-.23.59-.57.71-1.02h.92c-.18.71-.52,1.26-1.04,1.64-.51.37-1.17.56-1.97.56ZM64.58,16.64v.87h-.53c-.63,0-1.12.19-1.5.57-.36.38-.55.9-.55,1.55v3.86h-.97v-6.78h.91l.08,1.33h-.1c.09-.44.32-.79.69-1.06.36-.28.81-.42,1.33-.42.1,0,.21,0,.31.01.1,0,.21.03.32.06ZM65.29,21.6h.92c0,.39.14.7.42.94.28.22.65.34,1.12.34.52,0,.93-.1,1.22-.31.3-.21.45-.5.45-.87,0-.28-.08-.5-.24-.67-.16-.17-.44-.3-.84-.41l-1.16-.29c-.59-.15-1.03-.38-1.32-.69-.29-.31-.43-.69-.43-1.15,0-.39.1-.73.31-1.02.21-.3.49-.53.85-.69.37-.16.8-.24,1.29-.24s.89.08,1.25.25c.35.17.63.41.83.71.21.3.31.66.32,1.08h-.94c0-.4-.14-.71-.41-.92-.26-.21-.62-.32-1.08-.32s-.84.1-1.11.29c-.25.2-.38.48-.38.84,0,.52.37.88,1.11,1.06l1.16.29c.59.15,1.02.37,1.29.66.28.29.42.68.42,1.16,0,.4-.11.76-.32,1.06-.21.31-.52.55-.91.71-.38.16-.83.24-1.34.24-.76,0-1.36-.19-1.81-.56-.45-.38-.67-.89-.67-1.51Z"/>
  <g class="cls-2">
    <path class="cls-13" d="M182.5,25c-.41,0-.77-.15-1.06-.44-.29-.29-.44-.65-.44-1.06v-10h-1v-1.5h4v-1h4v1h4v1.5h-1v9.99c0,.42-.15.78-.44,1.07-.29.29-.65.44-1.06.44h-7ZM189.5,13.5h-7v10h7v-10ZM184,22h1.5v-7h-1.5v7ZM186.5,22h1.5v-7h-1.5v7Z"/>
  </g>
  <g class="cls-11">
    <path class="cls-13" d="M210.06,23l-1.06-1.06,3.94-3.94-3.94-3.94,1.06-1.06,3.94,3.94,3.94-3.94,1.06,1.06-3.94,3.94,3.94,3.94-1.06,1.06-3.94-3.94-3.94,3.94Z"/>
  </g>
  <g class="cls-18">
    <path class="cls-9" d="M17.25,60.06v-5.62l-4.75-2.75v5.62l4.75,2.75ZM18.75,60.06l4.75-2.73v-5.62l-4.75,2.73v5.62ZM18,53.12l4.9-2.81-4.92-2.81-4.88,2.81,4.9,2.81ZM11.75,58.62c-.24-.14-.42-.32-.55-.54-.13-.22-.2-.47-.2-.75v-6.67c0-.27.07-.52.2-.75.13-.22.32-.41.55-.54l5.48-3.17c.24-.14.49-.21.77-.21s.53.07.77.21l5.48,3.17c.24.14.42.32.55.54.13.22.2.47.2.75v6.67c0,.27-.07.52-.2.75-.13.22-.32.41-.55.54l-5.5,3.19c-.24.14-.49.21-.75.21s-.51-.07-.75-.21l-5.5-3.19Z"/>
  </g>
  <path d="M32.53,52.64c0-.48.12-.9.36-1.25.24-.36.58-.64,1.01-.84.43-.2.94-.3,1.51-.3.52,0,.97.09,1.36.28.39.18.7.45.94.79.23.34.37.76.41,1.24h-.88c-.05-.48-.23-.85-.55-1.12-.32-.27-.75-.41-1.28-.41-.6,0-1.08.14-1.45.43-.37.29-.55.68-.55,1.16,0,.38.11.69.34.94.22.24.56.42,1.01.53l1.48.36c.67.16,1.18.43,1.52.82.34.38.52.86.52,1.44,0,.49-.12.92-.36,1.28-.24.37-.58.65-1.02.85-.44.2-.96.3-1.55.3-.55,0-1.04-.09-1.48-.28-.42-.18-.76-.45-1.01-.79-.24-.34-.38-.75-.42-1.21h.89c.02.46.22.82.59,1.09.37.26.84.4,1.43.4.63,0,1.13-.14,1.5-.43.38-.29.56-.68.56-1.16,0-.39-.11-.71-.34-.95-.22-.25-.56-.43-1.02-.54l-1.45-.36c-.67-.16-1.18-.43-1.54-.8-.34-.38-.52-.87-.52-1.46ZM40.49,59h-.83v-8.75h.83v5.94l2.88-3h1.04l-2.23,2.32,2.24,3.49h-.96l-1.85-2.9-1.13,1.16v1.74ZM49.49,53.19h.83v5.81h-.72l-.11-.98c-.16.34-.43.61-.8.82-.37.21-.78.31-1.24.31-.68,0-1.2-.22-1.57-.65-.36-.43-.54-1-.54-1.7v-3.61h.84v3.35c0,.69.14,1.17.42,1.45.29.28.66.42,1.12.42.56,0,1-.18,1.31-.54.31-.37.47-.9.47-1.58v-3.08ZM52.91,59h-.83v-8.75h.83v8.75ZM55.54,59h-.83v-8.75h.83v8.75ZM58.01,59.13c-.2,0-.38-.07-.53-.22s-.23-.32-.23-.52.08-.38.23-.53c.15-.15.33-.23.53-.23s.38.08.53.23c.15.14.23.32.23.53s-.08.37-.23.52c-.14.14-.32.22-.53.22ZM59.95,57.37h.79c0,.34.12.6.36.8.24.19.56.29.96.29.45,0,.8-.09,1.04-.26.26-.18.38-.43.38-.74,0-.24-.07-.43-.2-.58s-.38-.26-.72-.35l-1-.25c-.5-.13-.88-.32-1.13-.59-.25-.26-.37-.59-.37-.98,0-.34.09-.63.26-.88.18-.26.42-.45.73-.59.32-.14.69-.2,1.1-.2s.76.07,1.07.22c.3.14.54.35.71.61.18.26.27.56.28.92h-.8c0-.34-.12-.61-.35-.79-.22-.18-.53-.28-.92-.28s-.72.08-.95.25c-.22.17-.32.41-.32.72,0,.45.32.75.95.91l1,.25c.5.13.87.32,1.1.56.24.25.36.58.36,1,0,.34-.09.65-.28.91-.18.26-.44.47-.78.61-.33.14-.71.2-1.15.2-.65,0-1.16-.16-1.55-.48-.38-.33-.58-.76-.58-1.3ZM64.99,53.19h3.14v.7h-3.14v-.7ZM66.97,59h-.82v-7.64h.82v7.64ZM70.08,59h-.83v-8.75h.83v8.75Z"/>
  <g class="cls-15">
    <path class="cls-13" d="M186,61c-1.74,0-3.21-.6-4.43-1.8s-1.82-2.66-1.82-4.36c0-.83.16-1.61.47-2.34.31-.73.74-1.37,1.28-1.93l4.5-4.56,4.52,4.58c.53.56.95,1.19,1.26,1.92.31.72.47,1.5.47,2.33,0,1.71-.61,3.16-1.82,4.36s-2.69,1.8-4.43,1.8ZM181.27,55h9.46c0-.67-.09-1.27-.28-1.81-.19-.54-.52-1.06-.99-1.54l-3.46-3.5-3.44,3.48c-.49.49-.82,1-1.01,1.55-.19.55-.28,1.16-.28,1.82Z"/>
  </g>
  <g class="cls-1">
    <path class="cls-13" d="M214,57.5c.97,0,1.8-.34,2.48-1.02.68-.68,1.02-1.51,1.02-2.48s-.34-1.8-1.02-2.48c-.68-.68-1.51-1.02-2.48-1.02s-1.8.34-2.48,1.02c-.68.68-1.02,1.51-1.02,2.48s.34,1.8,1.02,2.48c.68.68,1.51,1.02,2.48,1.02ZM214,56c-.56,0-1.03-.19-1.42-.58-.39-.39-.58-.86-.58-1.42s.19-1.03.58-1.42c.39-.39.86-.58,1.42-.58s1.03.19,1.42.58c.39.39.58.86.58,1.42s-.19,1.03-.58,1.42c-.39.39-.86.58-1.42.58ZM214,60c-1.98,0-3.79-.55-5.41-1.64-1.63-1.09-2.82-2.55-3.59-4.36.76-1.82,1.96-3.27,3.59-4.36,1.63-1.09,3.43-1.64,5.41-1.64s3.79.55,5.41,1.64c1.63,1.09,2.82,2.55,3.59,4.36-.76,1.82-1.96,3.27-3.59,4.36-1.63,1.09-3.43,1.64-5.41,1.64ZM214,58.5c1.56,0,2.99-.4,4.31-1.21,1.32-.81,2.33-1.9,3.04-3.29-.71-1.39-1.72-2.49-3.04-3.29-1.32-.81-2.76-1.21-4.31-1.21s-2.99.4-4.31,1.21c-1.32.81-2.33,1.9-3.04,3.29.71,1.39,1.72,2.49,3.04,3.29,1.32.81,2.76,1.21,4.31,1.21Z"/>
  </g>
  <path class="cls-9" d="M11.6,96.5c-.44,0-.82-.15-1.13-.44-.31-.29-.47-.65-.47-1.06v-6c0-.41.16-.77.47-1.06.31-.29.69-.44,1.13-.44h12.8c.44,0,.82.15,1.13.44.31.29.47.65.47,1.06v6c0,.41-.16.77-.47,1.06-.31.29-.69.44-1.13.44h-12.8ZM11.6,95h12.8v-6h-2.4v3h-1.6v-3h-1.6v3h-1.6v-3h-1.6v3h-1.6v-3h-2.4v6Z"/>
  <path d="M33.91,88.41v8.59h-.86v-8.59h.86ZM33.19,97v-.79h4.67v.79h-4.67ZM41.29,97.14c-.56,0-1.06-.13-1.49-.38-.42-.26-.76-.61-1-1.07-.24-.46-.36-.99-.36-1.6s.12-1.13.35-1.58c.24-.46.57-.82.98-1.08.42-.26.9-.4,1.45-.4s.99.12,1.38.35c.4.23.71.56.92.97.22.41.34.89.34,1.44v.41h-4.97l.02-.6h4.12c0-.56-.17-1.01-.5-1.34-.33-.34-.76-.52-1.31-.52-.4,0-.75.09-1.06.28-.3.18-.52.45-.68.79-.16.34-.24.74-.24,1.2,0,.77.18,1.36.53,1.79.36.42.87.64,1.52.64.47,0,.86-.1,1.16-.3.3-.2.51-.49.61-.88h.79c-.15.61-.45,1.08-.89,1.4-.44.32-1,.48-1.69.48ZM46.02,97h-.83v-5.81h.72l.12,1.01c.19-.37.46-.65.82-.85.36-.21.75-.31,1.18-.31.8,0,1.38.22,1.73.66.35.44.53,1.02.53,1.75v3.55h-.83v-3.37c0-.68-.14-1.16-.43-1.43-.28-.27-.66-.41-1.14-.41-.59,0-1.05.2-1.38.6-.32.39-.48.92-.48,1.57v3.04ZM51.53,93.93c0-.53.11-1.01.32-1.44.22-.44.53-.79.94-1.06s.9-.4,1.46-.4,1.02.14,1.42.41c.39.27.67.66.84,1.18l-.13.17.11-1.6h.72v5.63c0,.58-.12,1.08-.35,1.5-.23.43-.56.76-.98,1-.42.24-.91.36-1.48.36-.74,0-1.36-.2-1.85-.6-.49-.4-.79-.95-.91-1.64h.83c.09.47.3.84.64,1.09.34.26.78.4,1.31.4.6,0,1.08-.18,1.44-.55.36-.37.54-.86.54-1.46v-1.82l.12.16c-.17.49-.46.88-.88,1.16-.41.28-.89.42-1.44.42s-1.03-.13-1.43-.4c-.4-.26-.71-.61-.92-1.04-.21-.44-.31-.92-.31-1.45ZM52.36,93.92c0,.4.08.76.23,1.09.16.33.38.59.67.78.3.19.65.29,1.06.29s.77-.09,1.07-.28c.3-.19.54-.45.7-.77.16-.33.24-.7.24-1.12s-.08-.78-.24-1.1c-.15-.32-.38-.57-.67-.76-.29-.19-.65-.29-1.08-.29s-.77.1-1.07.3c-.29.19-.51.45-.67.78-.15.32-.23.68-.23,1.07ZM58.29,91.19h3.14v.7h-3.14v-.7ZM60.27,97h-.82v-7.64h.82v7.64ZM63.34,96.99h-.83v-8.74h.83v3.95c.18-.35.45-.63.79-.84.35-.22.77-.32,1.26-.32.77,0,1.33.22,1.68.66.35.44.53,1.02.53,1.75v3.55h-.83v-3.37c0-.46-.06-.82-.19-1.08-.13-.27-.31-.46-.54-.58-.23-.12-.5-.18-.8-.18-.42,0-.76.09-1.04.28s-.49.43-.64.74c-.14.3-.22.64-.22,1.02v3.16ZM69.05,92.7c0-.9.14-1.68.41-2.34.28-.66.68-1.18,1.19-1.56.52-.38,1.14-.56,1.85-.56s1.32.19,1.84.56.9.9,1.18,1.56c.28.66.42,1.44.42,2.34s-.14,1.68-.41,2.34c-.27.66-.66,1.18-1.18,1.56-.51.37-1.13.55-1.85.55s-1.34-.18-1.86-.55c-.51-.38-.9-.9-1.18-1.56-.27-.66-.41-1.44-.41-2.34ZM69.9,92.7c0,.74.1,1.39.3,1.94.21.55.5.98.89,1.28.38.3.85.44,1.4.44s1.01-.15,1.39-.44c.39-.3.69-.73.89-1.28.21-.55.31-1.2.31-1.94s-.1-1.4-.31-1.94c-.2-.55-.5-.98-.89-1.27-.38-.3-.85-.46-1.39-.46s-1.02.15-1.4.46c-.38.3-.68.72-.89,1.27-.2.54-.3,1.19-.3,1.94ZM78.75,89.19h-1.75v-.78h2.58v8.59h-.83v-7.81Z"/>
  <path d="M122.17,89.19h-1.75v-.78h2.58v8.59h-.83v-7.81ZM130.21,97h-5.66v-.68l2.75-2.4c.4-.34.73-.65.98-.91s.46-.5.6-.72c.15-.22.26-.44.31-.66.06-.22.1-.45.1-.71,0-.58-.16-1.03-.49-1.37-.33-.34-.78-.5-1.34-.5s-1.07.2-1.44.6c-.36.4-.55.93-.56,1.6h-.86c.02-.6.16-1.12.4-1.57.24-.45.57-.8,1-1.04.43-.25.93-.37,1.49-.37s1.02.11,1.42.34c.41.22.72.52.95.91.22.38.34.84.34,1.37,0,.3-.04.6-.12.88-.08.27-.21.54-.38.82-.18.27-.41.56-.7.86-.29.3-.65.64-1.08,1.02l-2.4,2.1-.26-.35h4.99v.8ZM132.44,97h-.83v-5.81h.72l.12,1.09-.12-.04c.12-.37.34-.66.67-.88.34-.22.73-.34,1.18-.34.52,0,.95.14,1.3.43.35.28.58.66.67,1.15h-.18c.08-.49.3-.87.65-1.15.36-.29.81-.43,1.34-.43.62,0,1.13.19,1.51.58s.58.91.58,1.58v3.8h-.8v-3.64c0-.5-.13-.88-.38-1.16-.26-.28-.61-.42-1.06-.42-.32,0-.6.08-.83.23-.23.14-.41.34-.54.59-.12.25-.18.52-.18.82v3.59h-.82v-3.65c0-.5-.13-.88-.4-1.15-.26-.27-.6-.41-1.04-.41-.32,0-.6.07-.84.22-.23.14-.41.34-.54.59-.12.24-.18.51-.18.8v3.6ZM142.54,97h-.83v-5.81h.72l.12,1.09-.12-.04c.12-.37.34-.66.67-.88.34-.22.73-.34,1.18-.34.52,0,.95.14,1.3.43.35.28.58.66.67,1.15h-.18c.08-.49.3-.87.65-1.15.36-.29.81-.43,1.34-.43.62,0,1.13.19,1.51.58.38.38.58.91.58,1.58v3.8h-.8v-3.64c0-.5-.13-.88-.38-1.16-.26-.28-.61-.42-1.06-.42-.32,0-.6.08-.83.23-.23.14-.41.34-.54.59-.12.25-.18.52-.18.82v3.59h-.82v-3.65c0-.5-.13-.88-.4-1.15-.26-.27-.6-.41-1.04-.41-.32,0-.6.07-.84.22-.23.14-.41.34-.54.59-.12.24-.18.51-.18.8v3.6Z"/>
  <g class="cls-4">
    <path class="cls-13" d="M186,99c-1.74,0-3.21-.6-4.43-1.8s-1.82-2.66-1.82-4.36c0-.83.16-1.61.47-2.34.31-.73.74-1.37,1.28-1.93l4.5-4.56,4.52,4.58c.53.56.95,1.19,1.26,1.92.31.72.47,1.5.47,2.33,0,1.71-.61,3.16-1.82,4.36s-2.69,1.8-4.43,1.8ZM181.27,93h9.46c0-.67-.09-1.27-.28-1.81-.19-.54-.52-1.06-.99-1.54l-3.46-3.5-3.44,3.48c-.49.49-.82,1-1.01,1.55-.19.55-.28,1.16-.28,1.82Z"/>
  </g>
  <g class="cls-5">
    <path class="cls-13" d="M214,95.5c.97,0,1.8-.34,2.48-1.02.68-.68,1.02-1.51,1.02-2.48s-.34-1.8-1.02-2.48c-.68-.68-1.51-1.02-2.48-1.02s-1.8.34-2.48,1.02c-.68.68-1.02,1.51-1.02,2.48s.34,1.8,1.02,2.48c.68.68,1.51,1.02,2.48,1.02ZM214,94c-.56,0-1.03-.19-1.42-.58-.39-.39-.58-.86-.58-1.42s.19-1.03.58-1.42c.39-.39.86-.58,1.42-.58s1.03.19,1.42.58c.39.39.58.86.58,1.42s-.19,1.03-.58,1.42c-.39.39-.86.58-1.42.58ZM214,98c-1.98,0-3.79-.55-5.41-1.64-1.63-1.09-2.82-2.55-3.59-4.36.76-1.82,1.96-3.27,3.59-4.36,1.63-1.09,3.43-1.64,5.41-1.64s3.79.55,5.41,1.64c1.63,1.09,2.82,2.55,3.59,4.36-.76,1.82-1.96,3.27-3.59,4.36-1.63,1.09-3.43,1.64-5.41,1.64ZM214,96.5c1.56,0,2.99-.4,4.31-1.21,1.32-.81,2.33-1.9,3.04-3.29-.71-1.39-1.72-2.49-3.04-3.29-1.32-.81-2.76-1.21-4.31-1.21s-2.99.4-4.31,1.21c-1.32.81-2.33,1.9-3.04,3.29.71,1.39,1.72,2.49,3.04,3.29,1.32.81,2.76,1.21,4.31,1.21Z"/>
  </g>
  <path class="cls-8" d="M10.05,137.08c-.17-.19-.26-.43-.25-.68h0c0-.37.19-.69.48-.86l14.26-12.71c.41-.37,1.04-.33,1.41.08.37.41.33,1.04-.08,1.41l-7.84,6.99c1.15.8,1.79,1.86,2.14,2.79.18.47.28.92.35,1.28h4.69c.55,0,1,.45,1,1s-.45,1-1,1h-14.19c-.34.07-.7-.04-.95-.31ZM18.46,135.4c-.04-.18-.1-.38-.18-.58-.28-.75-.81-1.57-1.83-2.11l-3.01,2.69h5.02Z"/>
  <circle class="cls-16" cx="22" cy="131.6" r="1.3"/>
  <path d="M33.04,135h-.88l3.16-8.59h1.07l3.19,8.59h-.9l-.84-2.28h-3.96l-.84,2.28ZM35.74,127.62l-1.6,4.34h3.42l-1.61-4.34c-.02-.06-.04-.13-.06-.19-.02-.06-.04-.12-.05-.16,0,.04-.02.1-.05.17-.02.06-.04.12-.06.18ZM41.43,135h-.83v-5.81h.72l.12,1.01c.19-.37.46-.65.82-.85.36-.21.75-.31,1.18-.31.8,0,1.38.22,1.73.66.35.44.53,1.02.53,1.75v3.55h-.83v-3.37c0-.68-.14-1.16-.43-1.43-.28-.27-.66-.41-1.14-.41-.59,0-1.05.2-1.38.6-.32.39-.48.92-.48,1.57v3.04ZM46.94,131.93c0-.53.11-1.01.32-1.44.22-.44.53-.79.94-1.06.41-.26.9-.4,1.46-.4s1.02.14,1.42.41.67.66.84,1.18l-.13.17.11-1.6h.72v5.63c0,.58-.12,1.08-.35,1.5-.23.43-.56.76-.98,1-.42.24-.91.36-1.48.36-.74,0-1.36-.2-1.85-.6-.49-.4-.79-.95-.91-1.64h.83c.09.47.3.84.64,1.09.34.26.78.4,1.31.4.6,0,1.08-.18,1.44-.55s.54-.86.54-1.46v-1.82l.12.16c-.17.49-.46.88-.88,1.16-.41.28-.89.42-1.44.42s-1.03-.13-1.43-.4c-.4-.26-.71-.61-.92-1.04-.21-.44-.31-.92-.31-1.45ZM47.77,131.92c0,.4.08.76.23,1.09.16.33.38.59.67.78.3.19.65.29,1.06.29s.77-.09,1.07-.28c.3-.19.54-.45.7-.77.16-.33.24-.7.24-1.12s-.08-.78-.24-1.1c-.15-.32-.38-.57-.67-.76-.29-.19-.65-.29-1.08-.29s-.77.1-1.07.3c-.29.19-.51.45-.67.78-.15.32-.23.68-.23,1.07ZM55.21,135h-.83v-8.75h.83v8.75ZM59.41,135.14c-.56,0-1.06-.13-1.49-.38-.42-.26-.76-.61-1-1.07-.24-.46-.36-.99-.36-1.6s.12-1.13.35-1.58c.24-.46.57-.82.98-1.08.42-.26.9-.4,1.45-.4s.99.12,1.38.35c.4.23.71.56.92.97.22.41.34.89.34,1.44v.41h-4.97l.02-.6h4.12c0-.56-.17-1.01-.5-1.34-.33-.34-.76-.52-1.31-.52-.4,0-.75.09-1.06.28-.3.18-.52.45-.68.79-.16.34-.24.74-.24,1.2,0,.77.18,1.36.53,1.79.36.42.87.64,1.52.64.47,0,.86-.1,1.16-.3s.51-.49.61-.88h.79c-.15.61-.45,1.08-.89,1.4-.44.32-1,.48-1.69.48ZM63.11,130.7c0-.9.14-1.68.41-2.34.28-.66.68-1.18,1.19-1.56.52-.38,1.14-.56,1.85-.56s1.32.19,1.84.56.9.9,1.18,1.56c.28.66.42,1.44.42,2.34s-.14,1.68-.41,2.34c-.27.66-.66,1.18-1.18,1.56-.51.37-1.13.55-1.85.55s-1.34-.18-1.86-.55c-.51-.38-.9-.9-1.18-1.56-.27-.66-.41-1.44-.41-2.34ZM63.96,130.7c0,.74.1,1.39.3,1.94.21.55.5.98.89,1.28.38.3.85.44,1.4.44s1.01-.15,1.39-.44c.39-.3.69-.73.89-1.28.21-.55.31-1.2.31-1.94s-.1-1.4-.31-1.94c-.2-.55-.5-.98-.89-1.27-.38-.3-.85-.46-1.39-.46s-1.02.15-1.4.46c-.38.3-.68.72-.89,1.27-.2.54-.3,1.19-.3,1.94ZM72.81,127.19h-1.75v-.78h2.58v8.59h-.83v-7.81Z"/>
  <path d="M122.17,127.19h-1.75v-.78h2.58v8.59h-.83v-7.81ZM126.13,127.19h-1.75v-.78h2.58v8.59h-.83v-7.81ZM130.96,127.67c0,.26-.06.5-.19.72-.12.21-.29.38-.5.5-.21.12-.44.18-.71.18s-.5-.06-.72-.18c-.22-.13-.39-.3-.52-.5-.12-.22-.18-.46-.18-.72s.06-.51.18-.72c.13-.22.3-.38.52-.5.22-.13.46-.19.72-.19s.5.06.71.19c.22.12.38.29.5.5.13.21.19.45.19.72ZM130.37,127.67c0-.26-.08-.46-.23-.61-.15-.16-.35-.24-.59-.24s-.45.08-.6.24c-.15.15-.23.36-.23.61,0,.24.08.44.23.6.15.16.35.24.6.24s.44-.08.59-.24c.15-.16.23-.36.23-.6Z"/>
  <g class="cls-10">
    <path class="cls-13" d="M186,137c-1.74,0-3.21-.6-4.43-1.8s-1.82-2.66-1.82-4.37c0-.83.16-1.61.47-2.34.31-.73.74-1.37,1.28-1.93l4.5-4.56,4.52,4.58c.53.56.95,1.19,1.26,1.92.31.72.47,1.5.47,2.33,0,1.71-.61,3.16-1.82,4.37s-2.69,1.8-4.43,1.8ZM181.27,131h9.46c0-.67-.09-1.27-.28-1.81-.19-.54-.52-1.06-.99-1.54l-3.46-3.5-3.44,3.48c-.49.49-.82,1-1.01,1.55-.19.55-.28,1.16-.28,1.82Z"/>
  </g>
  <g class="cls-12">
    <path class="cls-13" d="M214,133.5c.97,0,1.8-.34,2.48-1.02.68-.68,1.02-1.51,1.02-2.48s-.34-1.8-1.02-2.48c-.68-.68-1.51-1.02-2.48-1.02s-1.8.34-2.48,1.02c-.68.68-1.02,1.51-1.02,2.48s.34,1.8,1.02,2.48c.68.68,1.51,1.02,2.48,1.02ZM214,132c-.56,0-1.03-.19-1.42-.58-.39-.39-.58-.86-.58-1.42s.19-1.03.58-1.42c.39-.39.86-.58,1.42-.58s1.03.19,1.42.58c.39.39.58.86.58,1.42s-.19,1.03-.58,1.42c-.39.39-.86.58-1.42.58ZM214,136c-1.98,0-3.79-.54-5.41-1.63-1.63-1.09-2.82-2.55-3.59-4.37.76-1.82,1.96-3.27,3.59-4.36,1.63-1.09,3.43-1.64,5.41-1.64s3.79.54,5.41,1.64c1.63,1.09,2.82,2.55,3.59,4.36-.76,1.82-1.96,3.27-3.59,4.37-1.63,1.09-3.43,1.63-5.41,1.63ZM214,134.5c1.56,0,2.99-.4,4.31-1.21,1.32-.81,2.33-1.9,3.04-3.29-.71-1.39-1.72-2.49-3.04-3.29-1.32-.81-2.76-1.21-4.31-1.21s-2.99.4-4.31,1.21c-1.32.81-2.33,1.9-3.04,3.29.71,1.39,1.72,2.49,3.04,3.29,1.32.8,2.76,1.21,4.31,1.21Z"/>
  </g>
  <path class="cls-8" d="M9,158.75c.41,0,.75.34.75.75v1.25h1.25c.41,0,.75.34.75.75s-.34.75-.75.75h-1.25v2.5h2.25c.41,0,.75.34.75.75s-.34.75-.75.75h-2.25v2.5h1.25c.41,0,.75.34.75.75s-.34.75-.75.75h-1.25v2.5h2.25c.41,0,.75.34.75.75s-.34.75-.75.75h-2.25v2.25c0,.41-.34.75-.75.75s-.75-.34-.75-.75v-17c0-.41.34-.75.75-.75Z"/>
  <path class="cls-9" d="M20.75,175c-1.96,0-3.61-.3-4.97-.9-1.35-.6-2.03-1.34-2.03-2.21v-7.78c0-.85.68-1.59,2.05-2.2,1.37-.61,3.02-.91,4.95-.91s3.58.3,4.95.91c1.37.61,2.05,1.34,2.05,2.2v7.78c0,.87-.68,1.6-2.03,2.21-1.35.6-3.01.9-4.97.9ZM20.75,165.69c1.15,0,2.31-.17,3.48-.5,1.17-.33,1.82-.68,1.96-1.06-.14-.38-.79-.73-1.95-1.07-1.16-.34-2.32-.51-3.49-.51s-2.34.16-3.47.49c-1.13.33-1.79.69-1.97,1.08.18.39.84.75,1.97,1.07,1.13.32,2.29.49,3.47.49ZM20.75,169.56c.54,0,1.07-.03,1.58-.08s.99-.13,1.45-.22c.46-.1.89-.22,1.3-.36.41-.14.78-.3,1.12-.49v-2.33c-.34.18-.71.34-1.12.49-.41.14-.84.26-1.3.36-.46.1-.94.17-1.45.22-.51.05-1.03.08-1.58.08s-1.08-.03-1.59-.08c-.52-.05-1.01-.13-1.47-.22s-.89-.22-1.29-.36c-.4-.14-.76-.31-1.09-.49v2.33c.32.18.69.34,1.09.49.4.14.83.26,1.29.36s.95.17,1.47.22c.52.05,1.05.08,1.59.08ZM20.75,173.44c.6,0,1.2-.04,1.82-.14.62-.09,1.18-.21,1.7-.36.52-.15.95-.32,1.3-.51.35-.19.56-.38.62-.57v-1.9c-.34.18-.71.34-1.12.49-.41.14-.84.26-1.3.36-.46.1-.94.17-1.45.22s-1.03.08-1.58.08-1.08-.03-1.59-.08c-.52-.05-1.01-.13-1.47-.22s-.89-.22-1.29-.36c-.4-.14-.76-.3-1.09-.49v1.93c.06.19.27.38.61.56.34.18.77.35,1.29.5.52.15,1.09.27,1.71.36.62.09,1.23.14,1.83.14Z"/>
  <path d="M35.41,173l-3.29-8.59h.92l2.29,5.98c.09.23.18.47.26.72.09.24.18.51.28.82.09-.31.18-.61.28-.89.1-.28.19-.5.25-.66l2.28-5.96h.89l-3.26,8.59h-.9ZM39.25,170.1c0-.6.13-1.13.38-1.58.26-.46.61-.82,1.06-1.08.45-.26.95-.4,1.51-.4s1.07.13,1.51.4c.45.26.8.62,1.06,1.08.26.46.38.98.38,1.58s-.13,1.11-.38,1.57c-.26.46-.61.82-1.06,1.08-.44.26-.94.4-1.51.4s-1.06-.13-1.51-.4c-.45-.26-.8-.62-1.06-1.08-.26-.46-.38-.99-.38-1.57ZM40.09,170.08c0,.46.09.86.26,1.21.18.34.43.62.74.82.32.19.69.29,1.1.29s.78-.1,1.09-.29c.32-.2.57-.47.74-.82.18-.35.28-.76.28-1.21s-.09-.84-.28-1.19c-.18-.34-.42-.62-.74-.82-.31-.2-.68-.3-1.09-.3s-.78.1-1.1.3c-.31.2-.56.47-.74.82-.18.34-.26.74-.26,1.19ZM47.35,173h-.83v-8.75h.83v8.75ZM53.19,167.19h.83v5.81h-.72l-.11-.98c-.16.34-.43.61-.8.82-.37.21-.78.31-1.24.31-.68,0-1.2-.22-1.57-.65-.36-.43-.54-1-.54-1.7v-3.61h.84v3.35c0,.69.14,1.17.42,1.45.29.28.66.42,1.12.42.56,0,1-.18,1.31-.54.31-.37.47-.9.47-1.58v-3.08ZM56.57,173h-.83v-5.81h.72l.12,1.09-.12-.04c.12-.37.34-.66.67-.88.34-.22.73-.34,1.18-.34.52,0,.95.14,1.3.43.35.28.58.66.67,1.15h-.18c.08-.49.3-.87.65-1.15.36-.29.81-.43,1.34-.43.62,0,1.13.19,1.51.58.38.38.58.91.58,1.58v3.8h-.8v-3.64c0-.5-.13-.88-.38-1.16s-.61-.42-1.06-.42c-.32,0-.6.08-.83.23-.23.14-.41.34-.54.59-.12.25-.18.52-.18.82v3.59h-.82v-3.65c0-.5-.13-.88-.4-1.15-.26-.27-.6-.41-1.04-.41-.32,0-.6.07-.84.22-.23.14-.41.34-.54.59-.12.24-.18.51-.18.8v3.6ZM68.28,173.14c-.56,0-1.06-.13-1.49-.38-.42-.26-.76-.61-1-1.07-.24-.46-.36-.99-.36-1.6s.12-1.13.35-1.58c.24-.46.57-.82.98-1.08.42-.26.9-.4,1.45-.4s.99.12,1.38.35c.4.23.71.56.92.97.22.41.34.89.34,1.44v.41h-4.97l.02-.6h4.12c0-.56-.17-1.01-.5-1.34-.33-.34-.76-.52-1.31-.52-.4,0-.75.09-1.06.28-.3.18-.52.45-.68.79-.16.34-.24.74-.24,1.2,0,.77.18,1.36.53,1.79.36.42.87.64,1.52.64.47,0,.86-.1,1.16-.3s.51-.49.61-.88h.79c-.15.61-.45,1.08-.89,1.4-.44.32-1,.48-1.69.48ZM71.98,168.7c0-.9.14-1.68.41-2.34.28-.66.68-1.18,1.19-1.56.52-.38,1.14-.56,1.85-.56s1.32.19,1.84.56c.51.38.9.9,1.18,1.56.28.66.42,1.44.42,2.34s-.14,1.68-.41,2.34c-.27.66-.66,1.18-1.18,1.56-.51.37-1.13.55-1.85.55s-1.34-.18-1.86-.55c-.51-.38-.9-.9-1.18-1.56-.27-.66-.41-1.44-.41-2.34ZM72.83,168.7c0,.74.1,1.39.3,1.94.21.55.5.98.89,1.28.38.3.85.44,1.4.44s1.01-.15,1.39-.44c.39-.3.69-.73.89-1.28.21-.55.31-1.2.31-1.94s-.1-1.4-.31-1.94c-.2-.55-.5-.98-.89-1.27-.38-.3-.85-.46-1.39-.46s-1.02.15-1.4.46c-.38.3-.68.72-.89,1.27-.2.54-.3,1.19-.3,1.94ZM81.68,165.19h-1.75v-.78h2.58v8.59h-.83v-7.81Z"/>
  <path d="M122.17,165.19h-1.75v-.78h2.58v8.59h-.83v-7.81ZM130.21,173h-5.66v-.68l2.75-2.4c.4-.34.73-.65.98-.91.26-.26.46-.5.6-.72.15-.22.26-.44.31-.66.06-.22.1-.45.1-.71,0-.58-.16-1.03-.49-1.37-.33-.34-.78-.5-1.34-.5s-1.07.2-1.44.6c-.36.4-.55.93-.56,1.6h-.86c.02-.6.16-1.12.4-1.57.24-.45.57-.8,1-1.04.43-.25.93-.37,1.49-.37s1.02.11,1.42.34c.41.22.72.52.95.91.22.38.34.84.34,1.37,0,.3-.04.6-.12.88-.08.27-.21.54-.38.82-.18.27-.41.56-.7.86-.29.3-.65.64-1.08,1.02l-2.4,2.1-.26-.35h4.99v.8ZM132.94,165.19h-1.75v-.78h2.58v8.59h-.83v-7.81ZM139.8,173h-.83v-5.81h.72l.12,1.09-.12-.04c.12-.37.34-.66.67-.88.34-.22.73-.34,1.18-.34.52,0,.95.14,1.3.43.35.28.58.66.67,1.15h-.18c.08-.49.3-.87.65-1.15.36-.29.81-.43,1.34-.43.62,0,1.13.19,1.51.58.38.38.58.91.58,1.58v3.8h-.8v-3.64c0-.5-.13-.88-.38-1.16-.26-.28-.61-.42-1.06-.42-.32,0-.6.08-.83.23-.23.14-.41.34-.54.59-.12.25-.18.52-.18.82v3.59h-.82v-3.65c0-.5-.13-.88-.4-1.15-.26-.27-.6-.41-1.04-.41-.32,0-.6.07-.84.22-.23.14-.41.34-.54.59-.12.24-.18.51-.18.8v3.6ZM149.9,173h-.83v-5.81h.72l.12,1.09-.12-.04c.12-.37.34-.66.67-.88.34-.22.73-.34,1.18-.34.52,0,.95.14,1.3.43.35.28.58.66.67,1.15h-.18c.08-.49.3-.87.65-1.15.36-.29.81-.43,1.34-.43.62,0,1.13.19,1.51.58s.58.91.58,1.58v3.8h-.8v-3.64c0-.5-.13-.88-.38-1.16s-.61-.42-1.06-.42c-.32,0-.6.08-.83.23-.23.14-.41.34-.54.59-.12.25-.18.52-.18.82v3.59h-.82v-3.65c0-.5-.13-.88-.4-1.15-.26-.27-.6-.41-1.04-.41-.32,0-.6.07-.84.22-.23.14-.41.34-.54.59-.12.24-.18.51-.18.8v3.6ZM162.03,164.47l-1.98,1.81-.37-.4,1.87-1.69-.17.26h-2.56v-.61h3.2v.62ZM160.01,166.35h-.34v-.47c.1-.04.21-.06.34-.07.14-.02.26-.02.36-.02.32,0,.61.06.88.19.27.13.49.32.65.56.17.25.25.54.25.89s-.08.66-.25.91c-.16.25-.38.44-.66.58-.27.14-.58.2-.91.2s-.65-.07-.91-.22c-.26-.14-.47-.34-.62-.59-.14-.26-.22-.55-.22-.89h.65c0,.34.1.6.3.8.2.19.47.29.8.29s.61-.1.83-.29c.22-.2.32-.47.32-.82,0-.28-.09-.51-.26-.7-.17-.19-.42-.31-.76-.36-.06,0-.12-.01-.18-.01h-.26Z"/>
  <g class="cls-3">
    <path class="cls-13" d="M186,175c-1.74,0-3.21-.6-4.43-1.8s-1.82-2.66-1.82-4.37c0-.83.16-1.61.47-2.34.31-.73.74-1.37,1.28-1.93l4.5-4.56,4.52,4.58c.53.56.95,1.2,1.26,1.92.31.72.47,1.5.47,2.33,0,1.71-.61,3.16-1.82,4.37s-2.69,1.8-4.43,1.8ZM181.27,169h9.46c0-.67-.09-1.27-.28-1.81-.19-.54-.52-1.06-.99-1.54l-3.46-3.5-3.44,3.48c-.49.49-.82,1-1.01,1.55-.19.55-.28,1.16-.28,1.82Z"/>
  </g>
  <g class="cls-14">
    <path class="cls-13" d="M214,171.5c.97,0,1.8-.34,2.48-1.02.68-.68,1.02-1.51,1.02-2.48s-.34-1.8-1.02-2.48c-.68-.68-1.51-1.02-2.48-1.02s-1.8.34-2.48,1.02c-.68.68-1.02,1.51-1.02,2.48s.34,1.8,1.02,2.48c.68.68,1.51,1.02,2.48,1.02ZM214,170c-.56,0-1.03-.19-1.42-.58-.39-.39-.58-.86-.58-1.42s.19-1.03.58-1.42c.39-.39.86-.58,1.42-.58s1.03.19,1.42.58c.39.39.58.86.58,1.42s-.19,1.03-.58,1.42c-.39.39-.86.58-1.42.58ZM214,174c-1.98,0-3.79-.54-5.41-1.63-1.63-1.09-2.82-2.55-3.59-4.37.76-1.82,1.96-3.27,3.59-4.37,1.63-1.09,3.43-1.63,5.41-1.63s3.79.54,5.41,1.63c1.63,1.09,2.82,2.55,3.59,4.37-.76,1.82-1.96,3.27-3.59,4.37-1.63,1.09-3.43,1.63-5.41,1.63ZM214,172.5c1.56,0,2.99-.4,4.31-1.21,1.32-.81,2.33-1.9,3.04-3.29-.71-1.39-1.72-2.49-3.04-3.29-1.32-.8-2.76-1.21-4.31-1.21s-2.99.4-4.31,1.21c-1.32.81-2.33,1.9-3.04,3.29.71,1.39,1.72,2.49,3.04,3.29,1.32.8,2.76,1.21,4.31,1.21Z"/>
  </g>
</svg>