<svg width="232" height="440" viewBox="0 0 232 440" fill="none" xmlns="http://www.w3.org/2000/svg">
<rect width="232" height="440" rx="4" fill="white"/>
<mask id="mask0_263_4845" style="mask-type:alpha" maskUnits="userSpaceOnUse" x="8" y="8" width="20" height="20">
<rect x="8" y="8" width="20" height="20" fill="#D9D9D9"/>
</mask>
<g mask="url(#mask0_263_4845)">
<path d="M18 19L9 14.5L18 10L27 14.5L18 19ZM18 22.5L9.5 18.25L11.1667 17.4167L18 20.8125L24.8333 17.4167L26.5 18.25L18 22.5ZM18 26L9.5 21.75L11.1667 20.9167L18 24.3125L24.8333 20.9167L26.5 21.75L18 26ZM18 17.3125L23.6458 14.5L18 11.6875L12.3542 14.5L18 17.3125Z" fill="#1C1B1F"/>
</g>
<path d="M34.226 13.476V23.5H33.218V13.476H34.226ZM33.386 23.5V22.576H38.832V23.5H33.386ZM42.077 23.668C41.3584 23.668 40.7937 23.4813 40.383 23.108C39.9817 22.7347 39.781 22.254 39.781 21.666C39.781 21.0407 40.005 20.5413 40.453 20.168C40.901 19.7947 41.5217 19.5753 42.315 19.51L44.555 19.328V19.104C44.555 18.656 44.4757 18.306 44.317 18.054C44.1584 17.7927 43.9437 17.6107 43.673 17.508C43.4024 17.4053 43.099 17.354 42.763 17.354C42.1657 17.354 41.7037 17.48 41.377 17.732C41.0504 17.984 40.887 18.3387 40.887 18.796H40.005C40.005 18.3387 40.1217 17.942 40.355 17.606C40.5884 17.27 40.915 17.0087 41.335 16.822C41.755 16.6353 42.2404 16.542 42.791 16.542C43.323 16.542 43.7897 16.6353 44.191 16.822C44.5924 16.9993 44.9097 17.2793 45.143 17.662C45.3857 18.0353 45.507 18.5207 45.507 19.118V23.5H44.695L44.569 22.31C44.3637 22.7393 44.037 23.0753 43.589 23.318C43.1504 23.5513 42.6464 23.668 42.077 23.668ZM42.301 22.884C43.0197 22.884 43.575 22.6553 43.967 22.198C44.359 21.7407 44.555 21.148 44.555 20.42V20.056L42.553 20.21C41.9184 20.266 41.461 20.4247 41.181 20.686C40.901 20.9473 40.761 21.2647 40.761 21.638C40.761 22.0487 40.901 22.3613 41.181 22.576C41.461 22.7813 41.8344 22.884 42.301 22.884ZM47.4351 16.724L49.9831 23.64L49.2691 24.2L46.4131 16.724H47.4351ZM46.6091 26.454V25.656H47.3511C47.5471 25.656 47.7384 25.6373 47.9251 25.6C48.1211 25.572 48.2984 25.4927 48.4571 25.362C48.6251 25.2313 48.7604 25.012 48.8631 24.704L51.7611 16.724H52.7551L49.6471 25.054C49.4511 25.586 49.1851 25.9687 48.8491 26.202C48.5224 26.4353 48.1164 26.552 47.6311 26.552C47.4351 26.552 47.2531 26.5427 47.0851 26.524C46.9171 26.5147 46.7584 26.4913 46.6091 26.454ZM56.4809 23.668C55.8275 23.668 55.2489 23.5187 54.7449 23.22C54.2502 22.9213 53.8629 22.506 53.5829 21.974C53.3029 21.442 53.1629 20.8213 53.1629 20.112C53.1629 19.412 53.2982 18.796 53.5689 18.264C53.8489 17.7227 54.2315 17.3027 54.7169 17.004C55.2022 16.696 55.7669 16.542 56.4109 16.542C57.0269 16.542 57.5635 16.6773 58.0209 16.948C58.4875 17.2187 58.8469 17.5967 59.0989 18.082C59.3602 18.558 59.4909 19.118 59.4909 19.762V20.238H53.6949L53.7229 19.538H58.5249C58.5249 18.8847 58.3289 18.362 57.9369 17.97C57.5542 17.5687 57.0455 17.368 56.4109 17.368C55.9442 17.368 55.5335 17.4753 55.1789 17.69C54.8335 17.9047 54.5675 18.2127 54.3809 18.614C54.1942 19.006 54.1009 19.4727 54.1009 20.014C54.1009 20.91 54.3062 21.6053 54.7169 22.1C55.1369 22.5947 55.7295 22.842 56.4949 22.842C57.0455 22.842 57.4982 22.7253 57.8529 22.492C58.2075 22.2587 58.4455 21.918 58.5669 21.47H59.4909C59.3135 22.1793 58.9682 22.7253 58.4549 23.108C57.9415 23.4813 57.2835 23.668 56.4809 23.668ZM64.5773 16.64V17.508H64.0453C63.42 17.508 62.9207 17.6993 62.5473 18.082C62.1833 18.4647 62.0013 18.9827 62.0013 19.636V23.5H61.0353V16.724H61.9453L62.0293 18.054H61.9313C62.0247 17.6153 62.2533 17.2607 62.6173 16.99C62.9813 16.71 63.4247 16.57 63.9473 16.57C64.05 16.57 64.1527 16.5747 64.2553 16.584C64.358 16.5933 64.4653 16.612 64.5773 16.64ZM65.2875 21.596H66.2115C66.2115 21.988 66.3515 22.3007 66.6315 22.534C66.9115 22.758 67.2848 22.87 67.7515 22.87C68.2742 22.87 68.6802 22.7673 68.9695 22.562C69.2682 22.3473 69.4175 22.058 69.4175 21.694C69.4175 21.414 69.3382 21.19 69.1795 21.022C69.0208 20.854 68.7408 20.7187 68.3395 20.616L67.1775 20.322C66.5895 20.1727 66.1508 19.944 65.8615 19.636C65.5722 19.328 65.4275 18.9453 65.4275 18.488C65.4275 18.096 65.5302 17.7553 65.7355 17.466C65.9408 17.1673 66.2255 16.9387 66.5895 16.78C66.9628 16.6213 67.3922 16.542 67.8775 16.542C68.3535 16.542 68.7688 16.626 69.1235 16.794C69.4782 16.962 69.7535 17.2 69.9495 17.508C70.1548 17.8067 70.2622 18.166 70.2715 18.586H69.3335C69.3242 18.1847 69.1888 17.8767 68.9275 17.662C68.6662 17.4473 68.3068 17.34 67.8495 17.34C67.3735 17.34 67.0048 17.438 66.7435 17.634C66.4915 17.83 66.3655 18.11 66.3655 18.474C66.3655 18.9967 66.7342 19.3513 67.4715 19.538L68.6335 19.832C69.2215 19.9813 69.6508 20.2007 69.9215 20.49C70.2015 20.7793 70.3415 21.1667 70.3415 21.652C70.3415 22.0533 70.2342 22.408 70.0195 22.716C69.8048 23.024 69.5015 23.262 69.1095 23.43C68.7268 23.5887 68.2788 23.668 67.7655 23.668C67.0095 23.668 66.4075 23.4813 65.9595 23.108C65.5115 22.7253 65.2875 22.2213 65.2875 21.596Z" fill="black"/>
<mask id="mask1_263_4845" style="mask-type:alpha" maskUnits="userSpaceOnUse" x="176" y="8" width="20" height="20">
<rect x="176" y="8" width="20" height="20" fill="#D9D9D9"/>
</mask>
<g mask="url(#mask1_263_4845)">
<path d="M182.5 25C182.088 25 181.734 24.8531 181.441 24.5594C181.147 24.2656 181 23.9125 181 23.5V13.5H180V12H184V11H188V12H192V13.5H191V23.491C191 23.9137 190.853 24.2708 190.559 24.5625C190.266 24.8542 189.913 25 189.5 25H182.5ZM189.5 13.5H182.5V23.5H189.5V13.5ZM184 22H185.5V15H184V22ZM186.5 22H188V15H186.5V22Z" fill="#1C1B1F"/>
</g>
<mask id="mask2_263_4845" style="mask-type:alpha" maskUnits="userSpaceOnUse" x="204" y="8" width="20" height="20">
<rect x="204" y="8" width="20" height="20" fill="#D9D9D9"/>
</mask>
<g mask="url(#mask2_263_4845)">
<path d="M210.062 23L209 21.9375L212.938 18L209 14.0625L210.062 13L214 16.9375L217.938 13L219 14.0625L215.062 18L219 21.9375L217.938 23L214 19.0625L210.062 23Z" fill="#1C1B1F"/>
</g>
<mask id="mask3_263_4845" style="mask-type:alpha" maskUnits="userSpaceOnUse" x="8" y="44" width="20" height="20">
<rect x="8" y="44" width="20" height="20" fill="#A0A0A0"/>
</mask>
<g mask="url(#mask3_263_4845)">
<path d="M17.25 60.0625V54.4375L12.5 51.6875V57.3125L17.25 60.0625ZM18.75 60.0625L23.5 57.3333V51.7083L18.75 54.4375V60.0625ZM18 53.125L22.8958 50.3125L17.9792 47.5L13.1042 50.3125L18 53.125ZM11.75 58.625C11.5125 58.4878 11.3281 58.3068 11.1969 58.0821C11.0656 57.8575 11 57.6079 11 57.3333V50.6667C11 50.3921 11.0656 50.1425 11.1969 49.9179C11.3281 49.6932 11.5125 49.5122 11.75 49.375L17.2292 46.2083C17.4653 46.0694 17.7222 46 18 46C18.2778 46 18.5347 46.0694 18.7708 46.2083L24.25 49.375C24.4875 49.5122 24.6719 49.6932 24.8031 49.9179C24.9344 50.1425 25 50.3921 25 50.6667V57.3333C25 57.6079 24.9344 57.8575 24.8031 58.0821C24.6719 58.3068 24.4875 58.4878 24.25 58.625L18.75 61.8125C18.5121 61.9514 18.2616 62.0208 17.9985 62.0208C17.7356 62.0208 17.4861 61.9514 17.25 61.8125L11.75 58.625Z" fill="#A0A0A0"/>
</g>
<path d="M32.528 52.64C32.528 52.16 32.648 51.744 32.888 51.392C33.128 51.032 33.464 50.752 33.896 50.552C34.328 50.352 34.832 50.252 35.408 50.252C35.928 50.252 36.38 50.344 36.764 50.528C37.156 50.712 37.468 50.976 37.7 51.32C37.932 51.664 38.068 52.076 38.108 52.556H37.232C37.184 52.076 37 51.704 36.68 51.44C36.36 51.168 35.932 51.032 35.396 51.032C34.796 51.032 34.312 51.176 33.944 51.464C33.576 51.752 33.392 52.14 33.392 52.628C33.392 53.004 33.504 53.316 33.728 53.564C33.952 53.804 34.288 53.98 34.736 54.092L36.212 54.452C36.884 54.612 37.392 54.884 37.736 55.268C38.08 55.644 38.252 56.124 38.252 56.708C38.252 57.196 38.132 57.624 37.892 57.992C37.652 58.36 37.312 58.644 36.872 58.844C36.432 59.044 35.916 59.144 35.324 59.144C34.772 59.144 34.28 59.052 33.848 58.868C33.424 58.684 33.088 58.42 32.84 58.076C32.6 57.732 32.46 57.328 32.42 56.864H33.308C33.332 57.32 33.528 57.684 33.896 57.956C34.264 58.22 34.74 58.352 35.324 58.352C35.956 58.352 36.456 58.208 36.824 57.92C37.2 57.632 37.388 57.244 37.388 56.756C37.388 56.364 37.276 56.048 37.052 55.808C36.836 55.56 36.496 55.38 36.032 55.268L34.58 54.908C33.908 54.748 33.396 54.48 33.044 54.104C32.7 53.72 32.528 53.232 32.528 52.64ZM40.4897 59H39.6617V50.252H40.4897V56.192L43.3697 53.192H44.4137L42.1817 55.508L44.4257 59H43.4657L41.6177 56.096L40.4897 57.26V59ZM49.4948 53.192H50.3228V59H49.6028L49.4948 58.016C49.3348 58.352 49.0668 58.624 48.6908 58.832C48.3228 59.04 47.9108 59.144 47.4548 59.144C46.7748 59.144 46.2508 58.928 45.8828 58.496C45.5228 58.064 45.3428 57.496 45.3428 56.792V53.18H46.1828V56.528C46.1828 57.216 46.3228 57.7 46.6028 57.98C46.8908 58.26 47.2628 58.4 47.7188 58.4C48.2788 58.4 48.7148 58.22 49.0268 57.86C49.3388 57.492 49.4948 56.964 49.4948 56.276V53.192ZM52.9116 59H52.0836V50.252H52.9116V59ZM55.5366 59H54.7086V50.252H55.5366V59ZM58.0056 59.132C57.8056 59.132 57.6296 59.06 57.4776 58.916C57.3256 58.772 57.2496 58.6 57.2496 58.4C57.2496 58.192 57.3256 58.016 57.4776 57.872C57.6296 57.72 57.8056 57.644 58.0056 57.644C58.2136 57.644 58.3896 57.72 58.5336 57.872C58.6856 58.016 58.7616 58.192 58.7616 58.4C58.7616 58.6 58.6856 58.772 58.5336 58.916C58.3896 59.06 58.2136 59.132 58.0056 59.132ZM59.9462 57.368H60.7382C60.7382 57.704 60.8582 57.972 61.0982 58.172C61.3382 58.364 61.6582 58.46 62.0582 58.46C62.5062 58.46 62.8542 58.372 63.1022 58.196C63.3582 58.012 63.4862 57.764 63.4862 57.452C63.4862 57.212 63.4182 57.02 63.2822 56.876C63.1462 56.732 62.9062 56.616 62.5622 56.528L61.5662 56.276C61.0622 56.148 60.6862 55.952 60.4382 55.688C60.1902 55.424 60.0662 55.096 60.0662 54.704C60.0662 54.368 60.1542 54.076 60.3302 53.828C60.5062 53.572 60.7502 53.376 61.0622 53.24C61.3822 53.104 61.7502 53.036 62.1662 53.036C62.5742 53.036 62.9302 53.108 63.2342 53.252C63.5382 53.396 63.7742 53.6 63.9422 53.864C64.1182 54.12 64.2102 54.428 64.2182 54.788H63.4142C63.4062 54.444 63.2902 54.18 63.0662 53.996C62.8422 53.812 62.5342 53.72 62.1422 53.72C61.7342 53.72 61.4182 53.804 61.1942 53.972C60.9782 54.14 60.8702 54.38 60.8702 54.692C60.8702 55.14 61.1862 55.444 61.8182 55.604L62.8142 55.856C63.3182 55.984 63.6862 56.172 63.9182 56.42C64.1582 56.668 64.2782 57 64.2782 57.416C64.2782 57.76 64.1862 58.064 64.0022 58.328C63.8182 58.592 63.5582 58.796 63.2222 58.94C62.8942 59.076 62.5102 59.144 62.0702 59.144C61.4222 59.144 60.9062 58.984 60.5222 58.664C60.1382 58.336 59.9462 57.904 59.9462 57.368ZM64.9933 53.192H68.1373V53.888H64.9933V53.192ZM66.9733 59H66.1573V51.356H66.9733V59ZM70.0796 59H69.2516V50.252H70.0796V59Z" fill="black"/>
<mask id="mask4_263_4845" style="mask-type:alpha" maskUnits="userSpaceOnUse" x="176" y="44" width="20" height="20">
<rect x="176" y="44" width="20" height="20" fill="#D9D9D9"/>
</mask>
<g mask="url(#mask4_263_4845)">
<path d="M186 61C184.264 61 182.788 60.3993 181.573 59.1979C180.358 57.9965 179.75 56.5417 179.75 54.8333C179.75 54 179.906 53.2188 180.219 52.4896C180.531 51.7604 180.958 51.1181 181.5 50.5625L186 46L190.521 50.5833C191.049 51.1389 191.469 51.7778 191.781 52.5C192.094 53.2222 192.25 54 192.25 54.8333C192.25 56.5417 191.642 57.9965 190.427 59.1979C189.212 60.3993 187.736 61 186 61ZM181.271 55H190.729C190.729 54.3333 190.635 53.7292 190.448 53.1875C190.26 52.6458 189.931 52.1319 189.458 51.6458L186 48.1458L182.562 51.625C182.076 52.1111 181.74 52.6285 181.552 53.1771C181.365 53.7257 181.271 54.3333 181.271 55Z" fill="#1C1B1F"/>
</g>
<mask id="mask5_263_4845" style="mask-type:alpha" maskUnits="userSpaceOnUse" x="204" y="44" width="20" height="20">
<rect x="204" y="44" width="20" height="20" fill="#D9D9D9"/>
</mask>
<g mask="url(#mask5_263_4845)">
<path d="M214 57.5C214.972 57.5 215.799 57.1597 216.479 56.4792C217.16 55.7986 217.5 54.9722 217.5 54C217.5 53.0278 217.16 52.2014 216.479 51.5208C215.799 50.8403 214.972 50.5 214 50.5C213.028 50.5 212.201 50.8403 211.521 51.5208C210.84 52.2014 210.5 53.0278 210.5 54C210.5 54.9722 210.84 55.7986 211.521 56.4792C212.201 57.1597 213.028 57.5 214 57.5ZM214 56C213.444 56 212.972 55.8056 212.583 55.4167C212.194 55.0278 212 54.5556 212 54C212 53.4444 212.194 52.9722 212.583 52.5833C212.972 52.1944 213.444 52 214 52C214.556 52 215.028 52.1944 215.417 52.5833C215.806 52.9722 216 53.4444 216 54C216 54.5556 215.806 55.0278 215.417 55.4167C215.028 55.8056 214.556 56 214 56ZM214 60C212.019 60 210.215 59.4549 208.588 58.3646C206.96 57.2743 205.764 55.8194 205 54C205.764 52.1806 206.96 50.7257 208.588 49.6354C210.215 48.5451 212.019 48 214 48C215.981 48 217.785 48.5451 219.413 49.6354C221.04 50.7257 222.236 52.1806 223 54C222.236 55.8194 221.04 57.2743 219.413 58.3646C217.785 59.4549 215.981 60 214 60ZM214 58.5C215.556 58.5 216.993 58.0972 218.312 57.2917C219.632 56.4861 220.646 55.3889 221.354 54C220.646 52.6111 219.632 51.5139 218.312 50.7083C216.993 49.9028 215.556 49.5 214 49.5C212.444 49.5 211.007 49.9028 209.688 50.7083C208.368 51.5139 207.354 52.6111 206.646 54C207.354 55.3889 208.368 56.4861 209.688 57.2917C211.007 58.0972 212.444 58.5 214 58.5Z" fill="#1C1B1F"/>
</g>
<path d="M11.6 96.5C11.16 96.5 10.7833 96.3531 10.47 96.0594C10.1567 95.7656 10 95.4125 10 95V89C10 88.5875 10.1567 88.2344 10.47 87.9406C10.7833 87.6469 11.16 87.5 11.6 87.5H24.4C24.84 87.5 25.2167 87.6469 25.53 87.9406C25.8433 88.2344 26 88.5875 26 89V95C26 95.4125 25.8433 95.7656 25.53 96.0594C25.2167 96.3531 24.84 96.5 24.4 96.5H11.6ZM11.6 95H24.4V89H22V92H20.4V89H18.8V92H17.2V89H15.6V92H14V89H11.6V95Z" fill="#A0A0A0"/>
<path d="M33.908 88.408V97H33.044V88.408H33.908ZM33.188 97V96.208H37.856V97H33.188ZM41.2883 97.144C40.7283 97.144 40.2323 97.016 39.8003 96.76C39.3763 96.504 39.0443 96.148 38.8043 95.692C38.5643 95.236 38.4443 94.704 38.4443 94.096C38.4443 93.496 38.5603 92.968 38.7923 92.512C39.0323 92.048 39.3603 91.688 39.7763 91.432C40.1923 91.168 40.6763 91.036 41.2283 91.036C41.7563 91.036 42.2163 91.152 42.6083 91.384C43.0083 91.616 43.3163 91.94 43.5323 92.356C43.7563 92.764 43.8683 93.244 43.8683 93.796V94.204H38.9003L38.9243 93.604H43.0403C43.0403 93.044 42.8723 92.596 42.5363 92.26C42.2083 91.916 41.7723 91.744 41.2283 91.744C40.8283 91.744 40.4763 91.836 40.1723 92.02C39.8763 92.204 39.6483 92.468 39.4883 92.812C39.3283 93.148 39.2483 93.548 39.2483 94.012C39.2483 94.78 39.4243 95.376 39.7763 95.8C40.1363 96.224 40.6443 96.436 41.3003 96.436C41.7723 96.436 42.1603 96.336 42.4643 96.136C42.7683 95.936 42.9723 95.644 43.0763 95.26H43.8683C43.7163 95.868 43.4203 96.336 42.9803 96.664C42.5403 96.984 41.9763 97.144 41.2883 97.144ZM46.0201 97H45.1921V91.192H45.9121L46.0321 92.2C46.2241 91.832 46.4961 91.548 46.8481 91.348C47.2081 91.14 47.6001 91.036 48.0241 91.036C48.8241 91.036 49.4001 91.256 49.7521 91.696C50.1041 92.136 50.2801 92.72 50.2801 93.448V97H49.4521V93.628C49.4521 92.948 49.3081 92.472 49.0201 92.2C48.7401 91.928 48.3601 91.792 47.8801 91.792C47.2881 91.792 46.8281 91.992 46.5001 92.392C46.1801 92.784 46.0201 93.308 46.0201 93.964V97ZM51.5344 93.928C51.5344 93.4 51.6424 92.92 51.8584 92.488C52.0744 92.048 52.3864 91.696 52.7944 91.432C53.2024 91.168 53.6904 91.036 54.2584 91.036C54.8104 91.036 55.2824 91.172 55.6744 91.444C56.0664 91.716 56.3464 92.108 56.5144 92.62L56.3824 92.788L56.4904 91.192H57.2104V96.82C57.2104 97.396 57.0944 97.896 56.8624 98.32C56.6304 98.752 56.3024 99.084 55.8784 99.316C55.4624 99.556 54.9704 99.676 54.4024 99.676C53.6584 99.676 53.0424 99.476 52.5544 99.076C52.0664 98.676 51.7624 98.128 51.6424 97.432H52.4704C52.5584 97.904 52.7704 98.268 53.1064 98.524C53.4504 98.788 53.8864 98.92 54.4144 98.92C55.0144 98.92 55.4944 98.736 55.8544 98.368C56.2144 98 56.3944 97.512 56.3944 96.904V95.08L56.5144 95.236C56.3464 95.724 56.0544 96.112 55.6384 96.4C55.2304 96.68 54.7504 96.82 54.1984 96.82C53.6464 96.82 53.1704 96.688 52.7704 96.424C52.3704 96.16 52.0624 95.812 51.8464 95.38C51.6384 94.94 51.5344 94.456 51.5344 93.928ZM52.3624 93.916C52.3624 94.316 52.4384 94.68 52.5904 95.008C52.7504 95.336 52.9744 95.596 53.2624 95.788C53.5584 95.98 53.9104 96.076 54.3184 96.076C54.7344 96.076 55.0904 95.984 55.3864 95.8C55.6904 95.608 55.9224 95.352 56.0824 95.032C56.2424 94.704 56.3224 94.332 56.3224 93.916C56.3224 93.5 56.2424 93.132 56.0824 92.812C55.9304 92.492 55.7064 92.24 55.4104 92.056C55.1224 91.864 54.7624 91.768 54.3304 91.768C53.9144 91.768 53.5584 91.868 53.2624 92.068C52.9744 92.26 52.7504 92.52 52.5904 92.848C52.4384 93.168 52.3624 93.524 52.3624 93.916ZM58.2902 91.192H61.4342V91.888H58.2902V91.192ZM60.2702 97H59.4542V89.356H60.2702V97ZM63.3404 96.988H62.5124V88.252H63.3404V92.2C63.5244 91.848 63.7884 91.568 64.1324 91.36C64.4844 91.144 64.9044 91.036 65.3924 91.036C66.1604 91.036 66.7204 91.256 67.0724 91.696C67.4244 92.136 67.6004 92.72 67.6004 93.448V97H66.7724V93.628C66.7724 93.172 66.7084 92.812 66.5804 92.548C66.4524 92.276 66.2724 92.084 66.0404 91.972C65.8084 91.852 65.5404 91.792 65.2364 91.792C64.8204 91.792 64.4724 91.884 64.1924 92.068C63.9124 92.252 63.7004 92.5 63.5564 92.812C63.4124 93.116 63.3404 93.456 63.3404 93.832V96.988ZM69.0467 92.704C69.0467 91.808 69.1827 91.028 69.4547 90.364C69.7347 89.7 70.1307 89.18 70.6427 88.804C71.1627 88.428 71.7787 88.24 72.4907 88.24C73.2027 88.24 73.8147 88.428 74.3267 88.804C74.8387 89.18 75.2307 89.7 75.5027 90.364C75.7827 91.028 75.9227 91.808 75.9227 92.704C75.9227 93.6 75.7867 94.38 75.5147 95.044C75.2427 95.708 74.8507 96.228 74.3387 96.604C73.8267 96.972 73.2107 97.156 72.4907 97.156C71.7707 97.156 71.1507 96.972 70.6307 96.604C70.1187 96.228 69.7267 95.708 69.4547 95.044C69.1827 94.38 69.0467 93.6 69.0467 92.704ZM69.8987 92.704C69.8987 93.448 69.9987 94.096 70.1987 94.648C70.4067 95.2 70.7027 95.628 71.0867 95.932C71.4707 96.228 71.9387 96.376 72.4907 96.376C73.0347 96.376 73.4987 96.228 73.8827 95.932C74.2747 95.628 74.5707 95.2 74.7707 94.648C74.9787 94.096 75.0827 93.448 75.0827 92.704C75.0827 91.952 74.9787 91.304 74.7707 90.76C74.5707 90.208 74.2747 89.784 73.8827 89.488C73.4987 89.184 73.0347 89.032 72.4907 89.032C71.9387 89.032 71.4707 89.184 71.0867 89.488C70.7027 89.784 70.4067 90.208 70.1987 90.76C69.9987 91.304 69.8987 91.952 69.8987 92.704ZM78.7501 89.188H76.9981V88.408H79.5781V97H78.7501V89.188Z" fill="black"/>
<path d="M122.172 89.188H120.42V88.408H123V97H122.172V89.188ZM130.212 97H124.548V96.316L127.296 93.916C127.696 93.572 128.024 93.268 128.28 93.004C128.536 92.74 128.736 92.5 128.88 92.284C129.032 92.06 129.136 91.84 129.192 91.624C129.256 91.408 129.288 91.172 129.288 90.916C129.288 90.34 129.124 89.884 128.796 89.548C128.468 89.212 128.02 89.044 127.452 89.044C126.86 89.044 126.38 89.244 126.012 89.644C125.652 90.044 125.464 90.576 125.448 91.24H124.584C124.608 90.64 124.74 90.116 124.98 89.668C125.22 89.22 125.552 88.872 125.976 88.624C126.408 88.376 126.904 88.252 127.464 88.252C128.008 88.252 128.48 88.364 128.88 88.588C129.288 88.804 129.604 89.108 129.828 89.5C130.052 89.884 130.164 90.34 130.164 90.868C130.164 91.172 130.124 91.464 130.044 91.744C129.964 92.016 129.836 92.288 129.66 92.56C129.484 92.832 129.252 93.12 128.964 93.424C128.676 93.728 128.316 94.068 127.884 94.444L125.484 96.544L125.22 96.196H130.212V97ZM132.438 97H131.61V91.192H132.33L132.45 92.284L132.33 92.248C132.45 91.88 132.674 91.588 133.002 91.372C133.338 91.148 133.73 91.036 134.178 91.036C134.698 91.036 135.13 91.18 135.474 91.468C135.826 91.748 136.05 92.132 136.146 92.62H135.966C136.046 92.132 136.262 91.748 136.614 91.468C136.974 91.18 137.422 91.036 137.958 91.036C138.582 91.036 139.086 91.228 139.47 91.612C139.854 91.996 140.046 92.524 140.046 93.196V97H139.242V93.364C139.242 92.868 139.114 92.48 138.858 92.2C138.602 91.92 138.25 91.78 137.802 91.78C137.482 91.78 137.206 91.856 136.974 92.008C136.742 92.152 136.562 92.348 136.434 92.596C136.314 92.844 136.254 93.116 136.254 93.412V97H135.438V93.352C135.438 92.856 135.306 92.472 135.042 92.2C134.786 91.928 134.438 91.792 133.998 91.792C133.678 91.792 133.398 91.864 133.158 92.008C132.926 92.152 132.746 92.348 132.618 92.596C132.498 92.836 132.438 93.104 132.438 93.4V97ZM142.54 97H141.712V91.192H142.432L142.552 92.284L142.432 92.248C142.552 91.88 142.776 91.588 143.104 91.372C143.44 91.148 143.832 91.036 144.28 91.036C144.8 91.036 145.232 91.18 145.576 91.468C145.928 91.748 146.152 92.132 146.248 92.62H146.068C146.148 92.132 146.364 91.748 146.716 91.468C147.076 91.18 147.524 91.036 148.06 91.036C148.684 91.036 149.188 91.228 149.572 91.612C149.956 91.996 150.148 92.524 150.148 93.196V97H149.344V93.364C149.344 92.868 149.216 92.48 148.96 92.2C148.704 91.92 148.352 91.78 147.904 91.78C147.584 91.78 147.308 91.856 147.076 92.008C146.844 92.152 146.664 92.348 146.536 92.596C146.416 92.844 146.356 93.116 146.356 93.412V97H145.54V93.352C145.54 92.856 145.408 92.472 145.144 92.2C144.888 91.928 144.54 91.792 144.1 91.792C143.78 91.792 143.5 91.864 143.26 92.008C143.028 92.152 142.848 92.348 142.72 92.596C142.6 92.836 142.54 93.104 142.54 93.4V97Z" fill="black"/>
<mask id="mask6_263_4845" style="mask-type:alpha" maskUnits="userSpaceOnUse" x="176" y="82" width="20" height="20">
<rect x="176" y="82" width="20" height="20" fill="#D9D9D9"/>
</mask>
<g mask="url(#mask6_263_4845)">
<path d="M186 99C184.264 99 182.788 98.3993 181.573 97.1979C180.358 95.9965 179.75 94.5417 179.75 92.8333C179.75 92 179.906 91.2188 180.219 90.4896C180.531 89.7604 180.958 89.1181 181.5 88.5625L186 84L190.521 88.5833C191.049 89.1389 191.469 89.7778 191.781 90.5C192.094 91.2222 192.25 92 192.25 92.8333C192.25 94.5417 191.642 95.9965 190.427 97.1979C189.212 98.3993 187.736 99 186 99ZM181.271 93H190.729C190.729 92.3333 190.635 91.7292 190.448 91.1875C190.26 90.6458 189.931 90.1319 189.458 89.6458L186 86.1458L182.562 89.625C182.076 90.1111 181.74 90.6285 181.552 91.1771C181.365 91.7257 181.271 92.3333 181.271 93Z" fill="#1C1B1F"/>
</g>
<mask id="mask7_263_4845" style="mask-type:alpha" maskUnits="userSpaceOnUse" x="204" y="82" width="20" height="20">
<rect x="204" y="82" width="20" height="20" fill="#D9D9D9"/>
</mask>
<g mask="url(#mask7_263_4845)">
<path d="M214 95.5C214.972 95.5 215.799 95.1597 216.479 94.4792C217.16 93.7986 217.5 92.9722 217.5 92C217.5 91.0278 217.16 90.2014 216.479 89.5208C215.799 88.8403 214.972 88.5 214 88.5C213.028 88.5 212.201 88.8403 211.521 89.5208C210.84 90.2014 210.5 91.0278 210.5 92C210.5 92.9722 210.84 93.7986 211.521 94.4792C212.201 95.1597 213.028 95.5 214 95.5ZM214 94C213.444 94 212.972 93.8056 212.583 93.4167C212.194 93.0278 212 92.5556 212 92C212 91.4444 212.194 90.9722 212.583 90.5833C212.972 90.1944 213.444 90 214 90C214.556 90 215.028 90.1944 215.417 90.5833C215.806 90.9722 216 91.4444 216 92C216 92.5556 215.806 93.0278 215.417 93.4167C215.028 93.8056 214.556 94 214 94ZM214 98C212.019 98 210.215 97.4549 208.588 96.3646C206.96 95.2743 205.764 93.8194 205 92C205.764 90.1806 206.96 88.7257 208.588 87.6354C210.215 86.5451 212.019 86 214 86C215.981 86 217.785 86.5451 219.413 87.6354C221.04 88.7257 222.236 90.1806 223 92C222.236 93.8194 221.04 95.2743 219.413 96.3646C217.785 97.4549 215.981 98 214 98ZM214 96.5C215.556 96.5 216.993 96.0972 218.312 95.2917C219.632 94.4861 220.646 93.3889 221.354 92C220.646 90.6111 219.632 89.5139 218.312 88.7083C216.993 87.9028 215.556 87.5 214 87.5C212.444 87.5 211.007 87.9028 209.688 88.7083C208.368 89.5139 207.354 90.6111 206.646 92C207.354 93.3889 208.368 94.4861 209.688 95.2917C211.007 96.0972 212.444 96.5 214 96.5Z" fill="#1C1B1F"/>
</g>
<path fill-rule="evenodd" clip-rule="evenodd" d="M10.0504 137.083C9.8778 136.89 9.79427 136.648 9.79694 136.407L9.79689 136.397C9.79689 136.036 9.98798 135.72 10.2745 135.544L24.5311 122.836C24.9434 122.468 25.5755 122.504 25.943 122.917C26.3105 123.329 26.2742 123.961 25.862 124.329L18.0181 131.321C19.1638 132.119 19.806 133.182 20.1573 134.114C20.3362 134.588 20.4418 135.032 20.5044 135.397H25.1965C25.7488 135.397 26.1965 135.845 26.1965 136.397C26.1965 136.949 25.7488 137.397 25.1965 137.397H11.002C10.6633 137.468 10.2972 137.36 10.0504 137.083ZM18.4634 135.397C18.4197 135.217 18.362 135.021 18.2859 134.82C18.0032 134.07 17.4776 133.248 16.4596 132.71L13.4452 135.397H18.4634Z" fill="#A0A0A0"/>
<circle cx="21.9953" cy="131.601" r="1.29998" stroke="#A0A0A0"/>
<path d="M33.044 135H32.168L35.324 126.408H36.392L39.584 135H38.684L37.844 132.72H33.884L33.044 135ZM35.744 127.62L34.148 131.964H37.568L35.96 127.62C35.944 127.556 35.924 127.492 35.9 127.428C35.876 127.364 35.86 127.312 35.852 127.272C35.844 127.312 35.828 127.368 35.804 127.44C35.788 127.504 35.768 127.564 35.744 127.62ZM41.4264 135H40.5984V129.192H41.3184L41.4384 130.2C41.6304 129.832 41.9024 129.548 42.2544 129.348C42.6144 129.14 43.0064 129.036 43.4304 129.036C44.2304 129.036 44.8064 129.256 45.1584 129.696C45.5104 130.136 45.6864 130.72 45.6864 131.448V135H44.8584V131.628C44.8584 130.948 44.7144 130.472 44.4264 130.2C44.1464 129.928 43.7664 129.792 43.2864 129.792C42.6944 129.792 42.2344 129.992 41.9064 130.392C41.5864 130.784 41.4264 131.308 41.4264 131.964V135ZM46.9407 131.928C46.9407 131.4 47.0487 130.92 47.2647 130.488C47.4807 130.048 47.7927 129.696 48.2007 129.432C48.6087 129.168 49.0967 129.036 49.6647 129.036C50.2167 129.036 50.6887 129.172 51.0807 129.444C51.4727 129.716 51.7527 130.108 51.9207 130.62L51.7887 130.788L51.8967 129.192H52.6167V134.82C52.6167 135.396 52.5007 135.896 52.2687 136.32C52.0367 136.752 51.7087 137.084 51.2847 137.316C50.8687 137.556 50.3767 137.676 49.8087 137.676C49.0647 137.676 48.4487 137.476 47.9607 137.076C47.4727 136.676 47.1687 136.128 47.0487 135.432H47.8767C47.9647 135.904 48.1767 136.268 48.5127 136.524C48.8567 136.788 49.2927 136.92 49.8207 136.92C50.4207 136.92 50.9007 136.736 51.2607 136.368C51.6207 136 51.8007 135.512 51.8007 134.904V133.08L51.9207 133.236C51.7527 133.724 51.4607 134.112 51.0447 134.4C50.6367 134.68 50.1567 134.82 49.6047 134.82C49.0527 134.82 48.5767 134.688 48.1767 134.424C47.7767 134.16 47.4687 133.812 47.2527 133.38C47.0447 132.94 46.9407 132.456 46.9407 131.928ZM47.7687 131.916C47.7687 132.316 47.8447 132.68 47.9967 133.008C48.1567 133.336 48.3807 133.596 48.6687 133.788C48.9647 133.98 49.3167 134.076 49.7247 134.076C50.1407 134.076 50.4967 133.984 50.7927 133.8C51.0967 133.608 51.3287 133.352 51.4887 133.032C51.6487 132.704 51.7287 132.332 51.7287 131.916C51.7287 131.5 51.6487 131.132 51.4887 130.812C51.3367 130.492 51.1127 130.24 50.8167 130.056C50.5287 129.864 50.1687 129.768 49.7367 129.768C49.3207 129.768 48.9647 129.868 48.6687 130.068C48.3807 130.26 48.1567 130.52 47.9967 130.848C47.8447 131.168 47.7687 131.524 47.7687 131.916ZM55.2085 135H54.3805V126.252H55.2085V135ZM59.4055 135.144C58.8455 135.144 58.3495 135.016 57.9175 134.76C57.4935 134.504 57.1615 134.148 56.9215 133.692C56.6815 133.236 56.5615 132.704 56.5615 132.096C56.5615 131.496 56.6775 130.968 56.9095 130.512C57.1495 130.048 57.4775 129.688 57.8935 129.432C58.3095 129.168 58.7935 129.036 59.3455 129.036C59.8735 129.036 60.3335 129.152 60.7255 129.384C61.1255 129.616 61.4335 129.94 61.6495 130.356C61.8735 130.764 61.9855 131.244 61.9855 131.796V132.204H57.0175L57.0415 131.604H61.1575C61.1575 131.044 60.9895 130.596 60.6535 130.26C60.3255 129.916 59.8895 129.744 59.3455 129.744C58.9455 129.744 58.5935 129.836 58.2895 130.02C57.9935 130.204 57.7655 130.468 57.6055 130.812C57.4455 131.148 57.3655 131.548 57.3655 132.012C57.3655 132.78 57.5415 133.376 57.8935 133.8C58.2535 134.224 58.7615 134.436 59.4175 134.436C59.8895 134.436 60.2775 134.336 60.5815 134.136C60.8855 133.936 61.0895 133.644 61.1935 133.26H61.9855C61.8335 133.868 61.5375 134.336 61.0975 134.664C60.6575 134.984 60.0935 135.144 59.4055 135.144ZM63.1053 130.704C63.1053 129.808 63.2413 129.028 63.5133 128.364C63.7933 127.7 64.1893 127.18 64.7013 126.804C65.2213 126.428 65.8373 126.24 66.5493 126.24C67.2613 126.24 67.8733 126.428 68.3853 126.804C68.8973 127.18 69.2893 127.7 69.5613 128.364C69.8413 129.028 69.9813 129.808 69.9813 130.704C69.9813 131.6 69.8453 132.38 69.5733 133.044C69.3013 133.708 68.9093 134.228 68.3973 134.604C67.8853 134.972 67.2693 135.156 66.5493 135.156C65.8293 135.156 65.2093 134.972 64.6893 134.604C64.1773 134.228 63.7853 133.708 63.5133 133.044C63.2413 132.38 63.1053 131.6 63.1053 130.704ZM63.9573 130.704C63.9573 131.448 64.0573 132.096 64.2573 132.648C64.4653 133.2 64.7613 133.628 65.1453 133.932C65.5293 134.228 65.9973 134.376 66.5493 134.376C67.0933 134.376 67.5573 134.228 67.9413 133.932C68.3333 133.628 68.6293 133.2 68.8293 132.648C69.0373 132.096 69.1413 131.448 69.1413 130.704C69.1413 129.952 69.0373 129.304 68.8293 128.76C68.6293 128.208 68.3333 127.784 67.9413 127.488C67.5573 127.184 67.0933 127.032 66.5493 127.032C65.9973 127.032 65.5293 127.184 65.1453 127.488C64.7613 127.784 64.4653 128.208 64.2573 128.76C64.0573 129.304 63.9573 129.952 63.9573 130.704ZM72.8087 127.188H71.0567V126.408H73.6367V135H72.8087V127.188Z" fill="black"/>
<path d="M122.172 127.188H120.42V126.408H123V135H122.172V127.188ZM126.133 127.188H124.381V126.408H126.961V135H126.133V127.188ZM130.957 127.668C130.957 127.932 130.893 128.172 130.765 128.388C130.645 128.596 130.477 128.764 130.261 128.892C130.053 129.012 129.817 129.072 129.553 129.072C129.289 129.072 129.049 129.012 128.833 128.892C128.617 128.764 128.445 128.596 128.317 128.388C128.197 128.172 128.137 127.932 128.137 127.668C128.137 127.396 128.197 127.156 128.317 126.948C128.445 126.732 128.617 126.564 128.833 126.444C129.049 126.316 129.289 126.252 129.553 126.252C129.817 126.252 130.053 126.316 130.261 126.444C130.477 126.564 130.645 126.732 130.765 126.948C130.893 127.156 130.957 127.396 130.957 127.668ZM130.369 127.668C130.369 127.412 130.293 127.208 130.141 127.056C129.989 126.896 129.793 126.816 129.553 126.816C129.305 126.816 129.105 126.896 128.953 127.056C128.801 127.208 128.725 127.412 128.725 127.668C128.725 127.908 128.801 128.108 128.953 128.268C129.105 128.428 129.305 128.508 129.553 128.508C129.793 128.508 129.989 128.428 130.141 128.268C130.293 128.108 130.369 127.908 130.369 127.668Z" fill="black"/>
<mask id="mask8_263_4845" style="mask-type:alpha" maskUnits="userSpaceOnUse" x="176" y="120" width="20" height="20">
<rect x="176" y="120" width="20" height="20" fill="#D9D9D9"/>
</mask>
<g mask="url(#mask8_263_4845)">
<path d="M186 137C184.264 137 182.788 136.399 181.573 135.198C180.358 133.997 179.75 132.542 179.75 130.833C179.75 130 179.906 129.219 180.219 128.49C180.531 127.76 180.958 127.118 181.5 126.562L186 122L190.521 126.583C191.049 127.139 191.469 127.778 191.781 128.5C192.094 129.222 192.25 130 192.25 130.833C192.25 132.542 191.642 133.997 190.427 135.198C189.212 136.399 187.736 137 186 137ZM181.271 131H190.729C190.729 130.333 190.635 129.729 190.448 129.188C190.26 128.646 189.931 128.132 189.458 127.646L186 124.146L182.562 127.625C182.076 128.111 181.74 128.628 181.552 129.177C181.365 129.726 181.271 130.333 181.271 131Z" fill="#1C1B1F"/>
</g>
<mask id="mask9_263_4845" style="mask-type:alpha" maskUnits="userSpaceOnUse" x="204" y="120" width="20" height="20">
<rect x="204" y="120" width="20" height="20" fill="#D9D9D9"/>
</mask>
<g mask="url(#mask9_263_4845)">
<path d="M214 133.5C214.972 133.5 215.799 133.16 216.479 132.479C217.16 131.799 217.5 130.972 217.5 130C217.5 129.028 217.16 128.201 216.479 127.521C215.799 126.84 214.972 126.5 214 126.5C213.028 126.5 212.201 126.84 211.521 127.521C210.84 128.201 210.5 129.028 210.5 130C210.5 130.972 210.84 131.799 211.521 132.479C212.201 133.16 213.028 133.5 214 133.5ZM214 132C213.444 132 212.972 131.806 212.583 131.417C212.194 131.028 212 130.556 212 130C212 129.444 212.194 128.972 212.583 128.583C212.972 128.194 213.444 128 214 128C214.556 128 215.028 128.194 215.417 128.583C215.806 128.972 216 129.444 216 130C216 130.556 215.806 131.028 215.417 131.417C215.028 131.806 214.556 132 214 132ZM214 136C212.019 136 210.215 135.455 208.588 134.365C206.96 133.274 205.764 131.819 205 130C205.764 128.181 206.96 126.726 208.588 125.635C210.215 124.545 212.019 124 214 124C215.981 124 217.785 124.545 219.413 125.635C221.04 126.726 222.236 128.181 223 130C222.236 131.819 221.04 133.274 219.413 134.365C217.785 135.455 215.981 136 214 136ZM214 134.5C215.556 134.5 216.993 134.097 218.312 133.292C219.632 132.486 220.646 131.389 221.354 130C220.646 128.611 219.632 127.514 218.312 126.708C216.993 125.903 215.556 125.5 214 125.5C212.444 125.5 211.007 125.903 209.688 126.708C208.368 127.514 207.354 128.611 206.646 130C207.354 131.389 208.368 132.486 209.688 133.292C211.007 134.097 212.444 134.5 214 134.5Z" fill="#1C1B1F"/>
</g>
<path fill-rule="evenodd" clip-rule="evenodd" d="M9 158.75C9.41421 158.75 9.75 159.086 9.75 159.5V160.75L11 160.75C11.4142 160.75 11.75 161.086 11.75 161.5C11.75 161.914 11.4142 162.25 11 162.25L9.75 162.25L9.75 164.75L12 164.75C12.4142 164.75 12.75 165.086 12.75 165.5C12.75 165.914 12.4142 166.25 12 166.25L9.75 166.25L9.75 168.75H11C11.4142 168.75 11.75 169.086 11.75 169.5C11.75 169.914 11.4142 170.25 11 170.25H9.75L9.75 172.75H12C12.4142 172.75 12.75 173.086 12.75 173.5C12.75 173.914 12.4142 174.25 12 174.25H9.75L9.75 176.5C9.75 176.914 9.41421 177.25 9 177.25C8.58579 177.25 8.25 176.914 8.25 176.5V159.5C8.25 159.086 8.58579 158.75 9 158.75Z" fill="#A0A0A0"/>
<path d="M20.75 175C18.7926 175 17.1366 174.699 15.7819 174.096C14.4273 173.493 13.75 172.757 13.75 171.889V164.111C13.75 163.256 14.4338 162.523 15.8014 161.914C17.169 161.305 18.8185 161 20.75 161C22.6815 161 24.331 161.305 25.6986 161.914C27.0662 162.523 27.75 163.256 27.75 164.111V171.889C27.75 172.757 27.0727 173.493 25.7181 174.096C24.3634 174.699 22.7074 175 20.75 175ZM20.75 165.686C21.9037 165.686 23.0639 165.521 24.2306 165.19C25.3972 164.86 26.0519 164.506 26.1944 164.131C26.0519 163.755 25.4005 163.398 24.2403 163.061C23.0801 162.724 21.9167 162.556 20.75 162.556C19.5704 162.556 18.4134 162.721 17.2792 163.051C16.1449 163.382 15.487 163.742 15.3056 164.131C15.487 164.519 16.1449 164.876 17.2792 165.2C18.4134 165.524 19.5704 165.686 20.75 165.686ZM20.75 169.556C21.2944 169.556 21.8194 169.53 22.325 169.478C22.8306 169.426 23.3134 169.351 23.7736 169.254C24.2338 169.157 24.6681 169.037 25.0764 168.894C25.4847 168.752 25.8574 168.59 26.1944 168.408V166.075C25.8574 166.256 25.4847 166.419 25.0764 166.561C24.6681 166.704 24.2338 166.824 23.7736 166.921C23.3134 167.018 22.8306 167.093 22.325 167.144C21.8194 167.196 21.2944 167.222 20.75 167.222C20.2056 167.222 19.6741 167.196 19.1556 167.144C18.637 167.093 18.1477 167.018 17.6875 166.921C17.2273 166.824 16.7963 166.704 16.3944 166.561C15.9926 166.419 15.6296 166.256 15.3056 166.075V168.408C15.6296 168.59 15.9926 168.752 16.3944 168.894C16.7963 169.037 17.2273 169.157 17.6875 169.254C18.1477 169.351 18.637 169.426 19.1556 169.478C19.6741 169.53 20.2056 169.556 20.75 169.556ZM20.75 173.444C21.3463 173.444 21.9523 173.399 22.5681 173.308C23.1838 173.218 23.7509 173.098 24.2694 172.949C24.788 172.8 25.2222 172.631 25.5722 172.443C25.9222 172.255 26.1296 172.064 26.1944 171.869V169.964C25.8574 170.145 25.4847 170.307 25.0764 170.45C24.6681 170.593 24.2338 170.713 23.7736 170.81C23.3134 170.907 22.8306 170.981 22.325 171.033C21.8194 171.085 21.2944 171.111 20.75 171.111C20.2056 171.111 19.6741 171.085 19.1556 171.033C18.637 170.981 18.1477 170.907 17.6875 170.81C17.2273 170.713 16.7963 170.593 16.3944 170.45C15.9926 170.307 15.6296 170.145 15.3056 169.964V171.889C15.3704 172.083 15.5745 172.271 15.9181 172.453C16.2616 172.634 16.6926 172.8 17.2111 172.949C17.7296 173.098 18.3 173.218 18.9222 173.308C19.5444 173.399 20.1537 173.444 20.75 173.444Z" fill="#A0A0A0"/>
<path d="M35.408 173L32.12 164.408H33.044L35.336 170.384C35.424 170.616 35.512 170.856 35.6 171.104C35.688 171.344 35.78 171.616 35.876 171.92C35.964 171.608 36.056 171.312 36.152 171.032C36.256 170.752 36.34 170.532 36.404 170.372L38.684 164.408H39.572L36.308 173H35.408ZM39.2529 170.096C39.2529 169.496 39.3809 168.968 39.6369 168.512C39.8929 168.056 40.2449 167.696 40.6929 167.432C41.1409 167.168 41.6449 167.036 42.2049 167.036C42.7729 167.036 43.2769 167.168 43.7169 167.432C44.1649 167.696 44.5169 168.056 44.7729 168.512C45.0289 168.968 45.1569 169.496 45.1569 170.096C45.1569 170.68 45.0289 171.204 44.7729 171.668C44.5169 172.124 44.1649 172.484 43.7169 172.748C43.2769 173.012 42.7729 173.144 42.2049 173.144C41.6449 173.144 41.1409 173.012 40.6929 172.748C40.2449 172.484 39.8929 172.124 39.6369 171.668C39.3809 171.204 39.2529 170.68 39.2529 170.096ZM40.0929 170.084C40.0929 170.54 40.1809 170.944 40.3569 171.296C40.5409 171.64 40.7889 171.912 41.1009 172.112C41.4209 172.304 41.7889 172.4 42.2049 172.4C42.6209 172.4 42.9849 172.304 43.2969 172.112C43.6169 171.912 43.8649 171.64 44.0409 171.296C44.2249 170.944 44.3169 170.54 44.3169 170.084C44.3169 169.636 44.2249 169.24 44.0409 168.896C43.8649 168.552 43.6169 168.28 43.2969 168.08C42.9849 167.88 42.6209 167.78 42.2049 167.78C41.7889 167.78 41.4209 167.88 41.1009 168.08C40.7889 168.28 40.5409 168.552 40.3569 168.896C40.1809 169.24 40.0929 169.636 40.0929 170.084ZM47.3452 173H46.5172V164.252H47.3452V173ZM53.1862 167.192H54.0142V173H53.2942L53.1862 172.016C53.0262 172.352 52.7582 172.624 52.3822 172.832C52.0142 173.04 51.6022 173.144 51.1462 173.144C50.4662 173.144 49.9422 172.928 49.5742 172.496C49.2142 172.064 49.0342 171.496 49.0342 170.792V167.18H49.8742V170.528C49.8742 171.216 50.0142 171.7 50.2942 171.98C50.5822 172.26 50.9542 172.4 51.4102 172.4C51.9702 172.4 52.4062 172.22 52.7182 171.86C53.0302 171.492 53.1862 170.964 53.1862 170.276V167.192ZM56.567 173H55.739V167.192H56.459L56.579 168.284L56.459 168.248C56.579 167.88 56.803 167.588 57.131 167.372C57.467 167.148 57.859 167.036 58.307 167.036C58.827 167.036 59.259 167.18 59.603 167.468C59.955 167.748 60.179 168.132 60.275 168.62H60.095C60.175 168.132 60.391 167.748 60.743 167.468C61.103 167.18 61.551 167.036 62.087 167.036C62.711 167.036 63.215 167.228 63.599 167.612C63.983 167.996 64.175 168.524 64.175 169.196V173H63.371V169.364C63.371 168.868 63.243 168.48 62.987 168.2C62.731 167.92 62.379 167.78 61.931 167.78C61.611 167.78 61.335 167.856 61.103 168.008C60.871 168.152 60.691 168.348 60.563 168.596C60.443 168.844 60.383 169.116 60.383 169.412V173H59.567V169.352C59.567 168.856 59.435 168.472 59.171 168.2C58.915 167.928 58.567 167.792 58.127 167.792C57.807 167.792 57.527 167.864 57.287 168.008C57.055 168.152 56.875 168.348 56.747 168.596C56.627 168.836 56.567 169.104 56.567 169.4V173ZM68.2766 173.144C67.7166 173.144 67.2206 173.016 66.7886 172.76C66.3646 172.504 66.0326 172.148 65.7926 171.692C65.5526 171.236 65.4326 170.704 65.4326 170.096C65.4326 169.496 65.5486 168.968 65.7806 168.512C66.0206 168.048 66.3486 167.688 66.7646 167.432C67.1806 167.168 67.6646 167.036 68.2166 167.036C68.7446 167.036 69.2046 167.152 69.5966 167.384C69.9966 167.616 70.3046 167.94 70.5206 168.356C70.7446 168.764 70.8566 169.244 70.8566 169.796V170.204H65.8886L65.9126 169.604H70.0286C70.0286 169.044 69.8606 168.596 69.5246 168.26C69.1966 167.916 68.7606 167.744 68.2166 167.744C67.8166 167.744 67.4646 167.836 67.1606 168.02C66.8646 168.204 66.6366 168.468 66.4766 168.812C66.3166 169.148 66.2366 169.548 66.2366 170.012C66.2366 170.78 66.4126 171.376 66.7646 171.8C67.1246 172.224 67.6326 172.436 68.2886 172.436C68.7606 172.436 69.1486 172.336 69.4526 172.136C69.7566 171.936 69.9606 171.644 70.0646 171.26H70.8566C70.7046 171.868 70.4086 172.336 69.9686 172.664C69.5286 172.984 68.9646 173.144 68.2766 173.144ZM71.9764 168.704C71.9764 167.808 72.1124 167.028 72.3844 166.364C72.6644 165.7 73.0604 165.18 73.5724 164.804C74.0924 164.428 74.7084 164.24 75.4204 164.24C76.1324 164.24 76.7444 164.428 77.2564 164.804C77.7684 165.18 78.1604 165.7 78.4324 166.364C78.7124 167.028 78.8524 167.808 78.8524 168.704C78.8524 169.6 78.7164 170.38 78.4444 171.044C78.1724 171.708 77.7804 172.228 77.2684 172.604C76.7564 172.972 76.1404 173.156 75.4204 173.156C74.7004 173.156 74.0804 172.972 73.5604 172.604C73.0484 172.228 72.6564 171.708 72.3844 171.044C72.1124 170.38 71.9764 169.6 71.9764 168.704ZM72.8284 168.704C72.8284 169.448 72.9284 170.096 73.1284 170.648C73.3364 171.2 73.6324 171.628 74.0164 171.932C74.4004 172.228 74.8684 172.376 75.4204 172.376C75.9644 172.376 76.4284 172.228 76.8124 171.932C77.2044 171.628 77.5004 171.2 77.7004 170.648C77.9084 170.096 78.0124 169.448 78.0124 168.704C78.0124 167.952 77.9084 167.304 77.7004 166.76C77.5004 166.208 77.2044 165.784 76.8124 165.488C76.4284 165.184 75.9644 165.032 75.4204 165.032C74.8684 165.032 74.4004 165.184 74.0164 165.488C73.6324 165.784 73.3364 166.208 73.1284 166.76C72.9284 167.304 72.8284 167.952 72.8284 168.704ZM81.6798 165.188H79.9278V164.408H82.5078V173H81.6798V165.188Z" fill="black"/>
<path d="M122.172 165.188H120.42V164.408H123V173H122.172V165.188ZM130.212 173H124.548V172.316L127.296 169.916C127.696 169.572 128.024 169.268 128.28 169.004C128.536 168.74 128.736 168.5 128.88 168.284C129.032 168.06 129.136 167.84 129.192 167.624C129.256 167.408 129.288 167.172 129.288 166.916C129.288 166.34 129.124 165.884 128.796 165.548C128.468 165.212 128.02 165.044 127.452 165.044C126.86 165.044 126.38 165.244 126.012 165.644C125.652 166.044 125.464 166.576 125.448 167.24H124.584C124.608 166.64 124.74 166.116 124.98 165.668C125.22 165.22 125.552 164.872 125.976 164.624C126.408 164.376 126.904 164.252 127.464 164.252C128.008 164.252 128.48 164.364 128.88 164.588C129.288 164.804 129.604 165.108 129.828 165.5C130.052 165.884 130.164 166.34 130.164 166.868C130.164 167.172 130.124 167.464 130.044 167.744C129.964 168.016 129.836 168.288 129.66 168.56C129.484 168.832 129.252 169.12 128.964 169.424C128.676 169.728 128.316 170.068 127.884 170.444L125.484 172.544L125.22 172.196H130.212V173ZM132.942 165.188H131.19V164.408H133.77V173H132.942V165.188ZM139.797 173H138.969V167.192H139.689L139.809 168.284L139.689 168.248C139.809 167.88 140.033 167.588 140.361 167.372C140.697 167.148 141.089 167.036 141.537 167.036C142.057 167.036 142.489 167.18 142.833 167.468C143.185 167.748 143.409 168.132 143.505 168.62H143.325C143.405 168.132 143.621 167.748 143.973 167.468C144.333 167.18 144.781 167.036 145.317 167.036C145.941 167.036 146.445 167.228 146.829 167.612C147.213 167.996 147.405 168.524 147.405 169.196V173H146.601V169.364C146.601 168.868 146.473 168.48 146.217 168.2C145.961 167.92 145.609 167.78 145.161 167.78C144.841 167.78 144.565 167.856 144.333 168.008C144.101 168.152 143.921 168.348 143.793 168.596C143.673 168.844 143.613 169.116 143.613 169.412V173H142.797V169.352C142.797 168.856 142.665 168.472 142.401 168.2C142.145 167.928 141.797 167.792 141.357 167.792C141.037 167.792 140.757 167.864 140.517 168.008C140.285 168.152 140.105 168.348 139.977 168.596C139.857 168.836 139.797 169.104 139.797 169.4V173ZM149.899 173H149.071V167.192H149.791L149.911 168.284L149.791 168.248C149.911 167.88 150.135 167.588 150.463 167.372C150.799 167.148 151.191 167.036 151.639 167.036C152.159 167.036 152.591 167.18 152.935 167.468C153.287 167.748 153.511 168.132 153.607 168.62H153.427C153.507 168.132 153.723 167.748 154.075 167.468C154.435 167.18 154.883 167.036 155.419 167.036C156.043 167.036 156.547 167.228 156.931 167.612C157.315 167.996 157.507 168.524 157.507 169.196V173H156.703V169.364C156.703 168.868 156.575 168.48 156.319 168.2C156.063 167.92 155.711 167.78 155.263 167.78C154.943 167.78 154.667 167.856 154.435 168.008C154.203 168.152 154.023 168.348 153.895 168.596C153.775 168.844 153.715 169.116 153.715 169.412V173H152.899V169.352C152.899 168.856 152.767 168.472 152.503 168.2C152.247 167.928 151.899 167.792 151.459 167.792C151.139 167.792 150.859 167.864 150.619 168.008C150.387 168.152 150.207 168.348 150.079 168.596C149.959 168.836 149.899 169.104 149.899 169.4V173ZM162.029 164.468L160.049 166.28L159.677 165.884L161.549 164.192L161.381 164.456H158.825V163.844H162.029V164.468ZM160.013 166.352H159.677V165.884C159.773 165.844 159.885 165.82 160.013 165.812C160.149 165.796 160.269 165.788 160.373 165.788C160.693 165.788 160.985 165.852 161.249 165.98C161.521 166.108 161.737 166.296 161.897 166.544C162.065 166.792 162.149 167.088 162.149 167.432C162.149 167.784 162.065 168.088 161.897 168.344C161.737 168.592 161.517 168.784 161.237 168.92C160.965 169.056 160.661 169.124 160.325 169.124C159.981 169.124 159.677 169.052 159.413 168.908C159.149 168.764 158.941 168.568 158.789 168.32C158.645 168.064 158.573 167.768 158.573 167.432H159.221C159.221 167.768 159.321 168.036 159.521 168.236C159.721 168.428 159.989 168.524 160.325 168.524C160.661 168.524 160.937 168.428 161.153 168.236C161.369 168.036 161.477 167.764 161.477 167.42C161.477 167.14 161.389 166.908 161.213 166.724C161.045 166.532 160.793 166.412 160.457 166.364C160.393 166.356 160.333 166.352 160.277 166.352C160.221 166.352 160.133 166.352 160.013 166.352Z" fill="black"/>
<mask id="mask10_263_4845" style="mask-type:alpha" maskUnits="userSpaceOnUse" x="176" y="158" width="20" height="20">
<rect x="176" y="158" width="20" height="20" fill="#D9D9D9"/>
</mask>
<g mask="url(#mask10_263_4845)">
<path d="M186 175C184.264 175 182.788 174.399 181.573 173.198C180.358 171.997 179.75 170.542 179.75 168.833C179.75 168 179.906 167.219 180.219 166.49C180.531 165.76 180.958 165.118 181.5 164.562L186 160L190.521 164.583C191.049 165.139 191.469 165.778 191.781 166.5C192.094 167.222 192.25 168 192.25 168.833C192.25 170.542 191.642 171.997 190.427 173.198C189.212 174.399 187.736 175 186 175ZM181.271 169H190.729C190.729 168.333 190.635 167.729 190.448 167.188C190.26 166.646 189.931 166.132 189.458 165.646L186 162.146L182.562 165.625C182.076 166.111 181.74 166.628 181.552 167.177C181.365 167.726 181.271 168.333 181.271 169Z" fill="#1C1B1F"/>
</g>
<mask id="mask11_263_4845" style="mask-type:alpha" maskUnits="userSpaceOnUse" x="204" y="158" width="20" height="20">
<rect x="204" y="158" width="20" height="20" fill="#D9D9D9"/>
</mask>
<g mask="url(#mask11_263_4845)">
<path d="M214 171.5C214.972 171.5 215.799 171.16 216.479 170.479C217.16 169.799 217.5 168.972 217.5 168C217.5 167.028 217.16 166.201 216.479 165.521C215.799 164.84 214.972 164.5 214 164.5C213.028 164.5 212.201 164.84 211.521 165.521C210.84 166.201 210.5 167.028 210.5 168C210.5 168.972 210.84 169.799 211.521 170.479C212.201 171.16 213.028 171.5 214 171.5ZM214 170C213.444 170 212.972 169.806 212.583 169.417C212.194 169.028 212 168.556 212 168C212 167.444 212.194 166.972 212.583 166.583C212.972 166.194 213.444 166 214 166C214.556 166 215.028 166.194 215.417 166.583C215.806 166.972 216 167.444 216 168C216 168.556 215.806 169.028 215.417 169.417C215.028 169.806 214.556 170 214 170ZM214 174C212.019 174 210.215 173.455 208.588 172.365C206.96 171.274 205.764 169.819 205 168C205.764 166.181 206.96 164.726 208.588 163.635C210.215 162.545 212.019 162 214 162C215.981 162 217.785 162.545 219.413 163.635C221.04 164.726 222.236 166.181 223 168C222.236 169.819 221.04 171.274 219.413 172.365C217.785 173.455 215.981 174 214 174ZM214 172.5C215.556 172.5 216.993 172.097 218.312 171.292C219.632 170.486 220.646 169.389 221.354 168C220.646 166.611 219.632 165.514 218.312 164.708C216.993 163.903 215.556 163.5 214 163.5C212.444 163.5 211.007 163.903 209.688 164.708C208.368 165.514 207.354 166.611 206.646 168C207.354 169.389 208.368 170.486 209.688 171.292C211.007 172.097 212.444 172.5 214 172.5Z" fill="#1C1B1F"/>
</g>
</svg>
