<svg width="52" height="208" viewBox="0 0 52 208" fill="none" xmlns="http://www.w3.org/2000/svg">
<mask id="mask0_2037_5639" style="mask-type:alpha" maskUnits="userSpaceOnUse" x="16" y="16" width="20" height="20">
<rect x="16" y="16" width="20" height="20" fill="#D9D9D9"/>
</mask>
<g mask="url(#mask0_2037_5639)">
<path d="M21.8359 31C20.447 31 19.2665 30.5139 18.2943 29.5417C17.322 28.5694 16.8359 27.3889 16.8359 26C16.8359 24.6111 17.322 23.4306 18.2943 22.4583C19.2665 21.4861 20.447 21 21.8359 21H30.1693C31.5582 21 32.7387 21.4861 33.7109 22.4583C34.6832 23.4306 35.1693 24.6111 35.1693 26C35.1693 27.3889 34.6832 28.5694 33.7109 29.5417C32.7387 30.5139 31.5582 31 30.1693 31H21.8359ZM21.8359 29.3333H30.1693C31.0859 29.3333 31.8707 29.0069 32.5234 28.3542C33.1762 27.7014 33.5026 26.9167 33.5026 26C33.5026 25.0833 33.1762 24.2986 32.5234 23.6458C31.8707 22.9931 31.0859 22.6667 30.1693 22.6667H21.8359C20.9193 22.6667 20.1345 22.9931 19.4818 23.6458C18.829 24.2986 18.5026 25.0833 18.5026 26C18.5026 26.9167 18.829 27.7014 19.4818 28.3542C20.1345 29.0069 20.9193 29.3333 21.8359 29.3333ZM21.8359 28.5C22.5304 28.5 23.1207 28.2569 23.6068 27.7708C24.0929 27.2847 24.3359 26.6944 24.3359 26C24.3359 25.3056 24.0929 24.7153 23.6068 24.2292C23.1207 23.7431 22.5304 23.5 21.8359 23.5C21.1415 23.5 20.5512 23.7431 20.0651 24.2292C19.579 24.7153 19.3359 25.3056 19.3359 26C19.3359 26.6944 19.579 27.2847 20.0651 27.7708C20.5512 28.2569 21.1415 28.5 21.8359 28.5Z" fill="#596168"/>
</g>
<mask id="mask1_2037_5639" style="mask-type:alpha" maskUnits="userSpaceOnUse" x="16" y="68" width="20" height="20">
<rect x="16" y="68" width="20" height="20" fill="#282828"/>
</mask>
<g mask="url(#mask1_2037_5639)">
<path d="M19.3359 84.6673V82.334C19.3359 81.8618 19.4575 81.4277 19.7005 81.0319C19.9436 80.6361 20.2665 80.334 20.6693 80.1257C21.5304 79.6951 22.4054 79.3722 23.2943 79.1569C24.1832 78.9416 25.0859 78.834 26.0026 78.834C26.5165 78.834 27.0234 78.8652 27.5234 78.9277C28.0234 78.9902 28.5234 79.0909 29.0234 79.2298L27.6276 80.6465C27.3498 80.6048 27.079 80.5701 26.8151 80.5423C26.5512 80.5145 26.2804 80.5007 26.0026 80.5007C25.2248 80.5007 24.454 80.5944 23.6901 80.7819C22.9262 80.9694 22.1693 81.2507 21.4193 81.6257C21.2943 81.6951 21.1936 81.7923 21.1172 81.9173C21.0408 82.0423 21.0026 82.1812 21.0026 82.334V83.0007H26.0026V84.6673H19.3359ZM27.6693 85.5007V82.9382L32.2734 78.3548C32.3984 78.2298 32.5373 78.1395 32.6901 78.084C32.8429 78.0284 32.9957 78.0007 33.1484 78.0007C33.3151 78.0007 33.4748 78.0319 33.6276 78.0944C33.7804 78.1569 33.9193 78.2507 34.0443 78.3757L34.8151 79.1465C34.9262 79.2715 35.013 79.4104 35.0755 79.5632C35.138 79.7159 35.1693 79.8687 35.1693 80.0215C35.1693 80.1743 35.1415 80.3305 35.0859 80.4902C35.0304 80.65 34.9401 80.7923 34.8151 80.9173L30.2318 85.5007H27.6693ZM28.9193 84.2507H29.7109L32.2318 81.709L31.8568 81.3132L31.4609 80.9382L28.9193 83.459V84.2507ZM31.8568 81.3132L31.4609 80.9382L32.2318 81.709L31.8568 81.3132ZM26.0026 78.0007C25.0859 78.0007 24.3012 77.6743 23.6484 77.0215C22.9957 76.3687 22.6693 75.584 22.6693 74.6673C22.6693 73.7507 22.9957 72.9659 23.6484 72.3132C24.3012 71.6604 25.0859 71.334 26.0026 71.334C26.9193 71.334 27.704 71.6604 28.3568 72.3132C29.0095 72.9659 29.3359 73.7507 29.3359 74.6673C29.3359 75.584 29.0095 76.3687 28.3568 77.0215C27.704 77.6743 26.9193 78.0007 26.0026 78.0007ZM26.0026 76.334C26.4609 76.334 26.8533 76.1708 27.1797 75.8444C27.5061 75.518 27.6693 75.1257 27.6693 74.6673C27.6693 74.209 27.5061 73.8166 27.1797 73.4902C26.8533 73.1638 26.4609 73.0007 26.0026 73.0007C25.5443 73.0007 25.1519 73.1638 24.8255 73.4902C24.4991 73.8166 24.3359 74.209 24.3359 74.6673C24.3359 75.1257 24.4991 75.518 24.8255 75.8444C25.1519 76.1708 25.5443 76.334 26.0026 76.334Z" fill="#596168"/>
</g>
<mask id="mask2_2037_5639" style="mask-type:alpha" maskUnits="userSpaceOnUse" x="16" y="120" width="20" height="20">
<rect x="16" y="120" width="20" height="20" fill="#282828"/>
</mask>
<g mask="url(#mask2_2037_5639)">
<path d="M20.1667 137.5C19.7083 137.5 19.316 137.337 18.9896 137.01C18.6632 136.684 18.5 136.292 18.5 135.833V124.167C18.5 123.708 18.6632 123.316 18.9896 122.99C19.316 122.663 19.7083 122.5 20.1667 122.5H26V124.167H20.1667V135.833H26V137.5H20.1667ZM29.3333 134.167L28.1875 132.958L30.3125 130.833H23.5V129.167H30.3125L28.1875 127.042L29.3333 125.833L33.5 130L29.3333 134.167Z" fill="#596168"/>
</g>
<path d="M23.775 194L22 192.225L30.225 184L22 175.775L23.775 174L33.775 184L23.775 194Z" fill="#596168"/>
</svg>
