<svg width="104" height="48" viewBox="0 0 104 48" fill="none" xmlns="http://www.w3.org/2000/svg">
<rect width="104" height="48" rx="4" fill="#598BE4"/>
<path d="M27.952 24.144C27.952 25.328 27.712 26.3787 27.232 27.296C26.752 28.2027 26.0853 28.912 25.232 29.424C24.3787 29.936 23.392 30.192 22.272 30.192C21.1627 30.192 20.1813 29.936 19.328 29.424C18.4747 28.912 17.808 28.2027 17.328 27.296C16.8587 26.3893 16.624 25.344 16.624 24.16C16.624 22.9653 16.864 21.9147 17.344 21.008C17.824 20.0907 18.4853 19.376 19.328 18.864C20.1813 18.352 21.168 18.096 22.288 18.096C23.408 18.096 24.3893 18.352 25.232 18.864C26.0853 19.376 26.752 20.0853 27.232 20.992C27.712 21.8987 27.952 22.9493 27.952 24.144ZM25.808 24.144C25.808 23.312 25.664 22.592 25.376 21.984C25.088 21.376 24.6827 20.9067 24.16 20.576C23.6373 20.2347 23.0133 20.064 22.288 20.064C21.5733 20.064 20.9493 20.2347 20.416 20.576C19.8933 20.9067 19.488 21.376 19.2 21.984C18.912 22.592 18.768 23.312 18.768 24.144C18.768 24.976 18.912 25.7013 19.2 26.32C19.488 26.928 19.8933 27.3973 20.416 27.728C20.9493 28.0587 21.5733 28.224 22.288 28.224C23.0133 28.224 23.6373 28.0587 24.16 27.728C24.6827 27.3867 25.088 26.912 25.376 26.304C25.664 25.6853 25.808 24.9653 25.808 24.144ZM34.3861 22.064V23.872H33.6661C32.9515 23.872 32.3915 24.064 31.9861 24.448C31.5808 24.8213 31.3781 25.392 31.3781 26.16V30H29.4261V22.112H31.2661L31.4261 23.744H31.2341C31.3408 23.2213 31.5915 22.7947 31.9861 22.464C32.3808 22.1333 32.8928 21.968 33.5221 21.968C33.6608 21.968 33.7995 21.9733 33.9381 21.984C34.0768 21.9947 34.2261 22.0213 34.3861 22.064ZM38.5298 30.208C37.7618 30.208 37.1004 30.0373 36.5458 29.696C36.0018 29.344 35.5751 28.8587 35.2658 28.24C34.9671 27.6213 34.8178 26.9013 34.8178 26.08C34.8178 25.2587 34.9671 24.5333 35.2658 23.904C35.5751 23.264 36.0178 22.7627 36.5938 22.4C37.1698 22.0373 37.8524 21.856 38.6418 21.856C39.1964 21.856 39.7031 21.968 40.1618 22.192C40.6204 22.4053 40.9724 22.7093 41.2178 23.104V18.096H43.1538V30H41.3618L41.2338 28.768C40.9991 29.216 40.6364 29.568 40.1458 29.824C39.6658 30.08 39.1271 30.208 38.5298 30.208ZM38.9618 28.416C39.4204 28.416 39.8151 28.32 40.1458 28.128C40.4764 27.9253 40.7324 27.6427 40.9138 27.28C41.1058 26.9067 41.2018 26.4853 41.2018 26.016C41.2018 25.536 41.1058 25.12 40.9138 24.768C40.7324 24.4053 40.4764 24.1227 40.1458 23.92C39.8151 23.7067 39.4204 23.6 38.9618 23.6C38.5138 23.6 38.1244 23.7067 37.7938 23.92C37.4631 24.1227 37.2071 24.4053 37.0258 24.768C36.8551 25.1307 36.7698 25.5467 36.7698 26.016C36.7698 26.4853 36.8551 26.9013 37.0258 27.264C37.2071 27.6267 37.4631 27.9093 37.7938 28.112C38.1244 28.3147 38.5138 28.416 38.9618 28.416ZM48.564 30.208C47.7853 30.208 47.092 30.032 46.484 29.68C45.8867 29.3173 45.4173 28.8267 45.076 28.208C44.7347 27.5787 44.564 26.8587 44.564 26.048C44.564 25.2267 44.7293 24.5013 45.06 23.872C45.3907 23.2427 45.8547 22.752 46.452 22.4C47.0493 22.0373 47.732 21.856 48.5 21.856C49.3 21.856 49.988 22.0267 50.564 22.368C51.14 22.6987 51.5827 23.1627 51.892 23.76C52.212 24.3573 52.372 25.072 52.372 25.904V26.496L45.588 26.512L45.62 25.264H50.436C50.436 24.72 50.26 24.2827 49.908 23.952C49.5667 23.6213 49.1027 23.456 48.516 23.456C48.0573 23.456 47.668 23.552 47.348 23.744C47.0387 23.936 46.804 24.224 46.644 24.608C46.484 24.992 46.404 25.4613 46.404 26.016C46.404 26.8693 46.5853 27.5147 46.948 27.952C47.3213 28.3893 47.8707 28.608 48.596 28.608C49.1293 28.608 49.5667 28.5067 49.908 28.304C50.26 28.1013 50.4893 27.8133 50.596 27.44H52.404C52.2333 28.304 51.8067 28.9813 51.124 29.472C50.452 29.9627 49.5987 30.208 48.564 30.208ZM58.7343 22.064V23.872H58.0143C57.2996 23.872 56.7396 24.064 56.3343 24.448C55.9289 24.8213 55.7263 25.392 55.7263 26.16V30H53.7743V22.112H55.6143L55.7743 23.744H55.5823C55.6889 23.2213 55.9396 22.7947 56.3343 22.464C56.7289 22.1333 57.2409 21.968 57.8703 21.968C58.0089 21.968 58.1476 21.9733 58.2863 21.984C58.4249 21.9947 58.5743 22.0213 58.7343 22.064Z" fill="white"/>
<mask id="mask0_263_4738" style="mask-type:alpha" maskUnits="userSpaceOnUse" x="64" y="12" width="24" height="24">
<rect x="64" y="12" width="24" height="24" fill="#D9D9D9"/>
</mask>
<g mask="url(#mask0_263_4738)">
<path d="M76 27.3746L70 21.3746L71.4 19.9746L76 24.5746L80.6 19.9746L82 21.3746L76 27.3746Z" fill="white"/>
</g>
</svg>
