<svg width="178" height="40" viewBox="0 0 178 40" fill="none" xmlns="http://www.w3.org/2000/svg">
<rect width="178" height="40" rx="4" fill="white"/>
<path d="M16.548 25.132C15.748 25.132 15.044 24.948 14.436 24.58C13.836 24.204 13.364 23.684 13.02 23.02C12.684 22.356 12.516 21.584 12.516 20.704C12.516 19.824 12.688 19.052 13.032 18.388C13.376 17.716 13.856 17.196 14.472 16.828C15.088 16.452 15.796 16.264 16.596 16.264C17.22 16.264 17.784 16.38 18.288 16.612C18.792 16.844 19.216 17.172 19.56 17.596C19.904 18.012 20.132 18.508 20.244 19.084H19.32C19.136 18.46 18.8 17.972 18.312 17.62C17.824 17.268 17.24 17.092 16.56 17.092C15.936 17.092 15.384 17.244 14.904 17.548C14.432 17.844 14.064 18.264 13.8 18.808C13.544 19.344 13.416 19.976 13.416 20.704C13.416 21.416 13.548 22.044 13.812 22.588C14.076 23.132 14.444 23.556 14.916 23.86C15.388 24.156 15.936 24.304 16.56 24.304C17.24 24.304 17.832 24.132 18.336 23.788C18.84 23.444 19.184 22.988 19.368 22.42H20.292C20.164 22.956 19.92 23.428 19.56 23.836C19.208 24.244 18.772 24.564 18.252 24.796C17.732 25.02 17.164 25.132 16.548 25.132ZM21.1982 22.096C21.1982 21.496 21.3262 20.968 21.5822 20.512C21.8382 20.056 22.1902 19.696 22.6382 19.432C23.0862 19.168 23.5902 19.036 24.1502 19.036C24.7182 19.036 25.2222 19.168 25.6622 19.432C26.1102 19.696 26.4622 20.056 26.7182 20.512C26.9742 20.968 27.1022 21.496 27.1022 22.096C27.1022 22.68 26.9742 23.204 26.7182 23.668C26.4622 24.124 26.1102 24.484 25.6622 24.748C25.2222 25.012 24.7182 25.144 24.1502 25.144C23.5902 25.144 23.0862 25.012 22.6382 24.748C22.1902 24.484 21.8382 24.124 21.5822 23.668C21.3262 23.204 21.1982 22.68 21.1982 22.096ZM22.0382 22.084C22.0382 22.54 22.1262 22.944 22.3022 23.296C22.4862 23.64 22.7342 23.912 23.0462 24.112C23.3662 24.304 23.7342 24.4 24.1502 24.4C24.5662 24.4 24.9302 24.304 25.2422 24.112C25.5622 23.912 25.8102 23.64 25.9862 23.296C26.1702 22.944 26.2622 22.54 26.2622 22.084C26.2622 21.636 26.1702 21.24 25.9862 20.896C25.8102 20.552 25.5622 20.28 25.2422 20.08C24.9302 19.88 24.5662 19.78 24.1502 19.78C23.7342 19.78 23.3662 19.88 23.0462 20.08C22.7342 20.28 22.4862 20.552 22.3022 20.896C22.1262 21.24 22.0382 21.636 22.0382 22.084ZM31.4625 19.12V19.864H31.0065C30.4705 19.864 30.0425 20.028 29.7225 20.356C29.4105 20.684 29.2545 21.128 29.2545 21.688V25H28.4265V19.192H29.2065L29.2785 20.332H29.1945C29.2745 19.956 29.4705 19.652 29.7825 19.42C30.0945 19.18 30.4745 19.06 30.9225 19.06C31.0105 19.06 31.0985 19.064 31.1865 19.072C31.2745 19.08 31.3665 19.096 31.4625 19.12ZM31.9326 22.096C31.9326 21.496 32.0606 20.968 32.3166 20.512C32.5726 20.056 32.9246 19.696 33.3726 19.432C33.8206 19.168 34.3246 19.036 34.8846 19.036C35.4526 19.036 35.9566 19.168 36.3966 19.432C36.8446 19.696 37.1966 20.056 37.4526 20.512C37.7086 20.968 37.8366 21.496 37.8366 22.096C37.8366 22.68 37.7086 23.204 37.4526 23.668C37.1966 24.124 36.8446 24.484 36.3966 24.748C35.9566 25.012 35.4526 25.144 34.8846 25.144C34.3246 25.144 33.8206 25.012 33.3726 24.748C32.9246 24.484 32.5726 24.124 32.3166 23.668C32.0606 23.204 31.9326 22.68 31.9326 22.096ZM32.7726 22.084C32.7726 22.54 32.8606 22.944 33.0366 23.296C33.2206 23.64 33.4686 23.912 33.7806 24.112C34.1006 24.304 34.4686 24.4 34.8846 24.4C35.3006 24.4 35.6646 24.304 35.9766 24.112C36.2966 23.912 36.5446 23.64 36.7206 23.296C36.9046 22.944 36.9966 22.54 36.9966 22.084C36.9966 21.636 36.9046 21.24 36.7206 20.896C36.5446 20.552 36.2966 20.28 35.9766 20.08C35.6646 19.88 35.3006 19.78 34.8846 19.78C34.4686 19.78 34.1006 19.88 33.7806 20.08C33.4686 20.28 33.2206 20.552 33.0366 20.896C32.8606 21.24 32.7726 21.636 32.7726 22.084ZM39.9889 25H39.1609V19.192H39.8809L40.0009 20.2C40.1929 19.832 40.4649 19.548 40.8169 19.348C41.1769 19.14 41.5689 19.036 41.9929 19.036C42.7929 19.036 43.3689 19.256 43.7209 19.696C44.0729 20.136 44.2489 20.72 44.2489 21.448V25H43.4209V21.628C43.4209 20.948 43.2769 20.472 42.9889 20.2C42.7089 19.928 42.3289 19.792 41.8489 19.792C41.2569 19.792 40.7969 19.992 40.4689 20.392C40.1489 20.784 39.9889 21.308 39.9889 21.964V25ZM47.5672 25.144C46.9512 25.144 46.4672 24.984 46.1152 24.664C45.7712 24.344 45.5992 23.932 45.5992 23.428C45.5992 22.892 45.7912 22.464 46.1752 22.144C46.5592 21.824 47.0912 21.636 47.7712 21.58L49.6912 21.424V21.232C49.6912 20.848 49.6232 20.548 49.4872 20.332C49.3512 20.108 49.1672 19.952 48.9352 19.864C48.7032 19.776 48.4432 19.732 48.1552 19.732C47.6432 19.732 47.2472 19.84 46.9672 20.056C46.6872 20.272 46.5472 20.576 46.5472 20.968H45.7912C45.7912 20.576 45.8912 20.236 46.0912 19.948C46.2912 19.66 46.5712 19.436 46.9312 19.276C47.2912 19.116 47.7072 19.036 48.1792 19.036C48.6352 19.036 49.0352 19.116 49.3792 19.276C49.7232 19.428 49.9952 19.668 50.1952 19.996C50.4032 20.316 50.5072 20.732 50.5072 21.244V25H49.8112L49.7032 23.98C49.5272 24.348 49.2472 24.636 48.8632 24.844C48.4872 25.044 48.0552 25.144 47.5672 25.144ZM47.7592 24.472C48.3752 24.472 48.8512 24.276 49.1872 23.884C49.5232 23.492 49.6912 22.984 49.6912 22.36V22.048L47.9752 22.18C47.4312 22.228 47.0392 22.364 46.7992 22.588C46.5592 22.812 46.4392 23.084 46.4392 23.404C46.4392 23.756 46.5592 24.024 46.7992 24.208C47.0392 24.384 47.3592 24.472 47.7592 24.472ZM53.0327 25H52.2047V16.252H53.0327V25Z" fill="black"/>
<line x1="66.5" y1="8" x2="66.5" y2="32" stroke="#F2F2F2"/>
<path d="M79.044 25H78.168L81.324 16.408H82.392L85.584 25H84.684L83.844 22.72H79.884L79.044 25ZM81.744 17.62L80.148 21.964H83.568L81.96 17.62C81.944 17.556 81.924 17.492 81.9 17.428C81.876 17.364 81.86 17.312 81.852 17.272C81.844 17.312 81.828 17.368 81.804 17.44C81.788 17.504 81.768 17.564 81.744 17.62ZM86.8264 25H85.8544L87.9304 22.096L85.8664 19.192H86.8384L88.4824 21.52L90.1144 19.192H91.0744L89.0104 22.108L91.0624 25H90.0784L88.4464 22.672L86.8264 25ZM92.0593 25V19.192H92.8873V25H92.0593ZM92.4673 17.596C92.2993 17.596 92.1553 17.536 92.0353 17.416C91.9153 17.296 91.8553 17.152 91.8553 16.984C91.8553 16.816 91.9153 16.672 92.0353 16.552C92.1553 16.424 92.2993 16.36 92.4673 16.36C92.6353 16.36 92.7793 16.424 92.8993 16.552C93.0273 16.672 93.0913 16.816 93.0913 16.984C93.0913 17.152 93.0273 17.296 92.8993 17.416C92.7793 17.536 92.6353 17.596 92.4673 17.596ZM96.282 25.144C95.666 25.144 95.182 24.984 94.83 24.664C94.486 24.344 94.314 23.932 94.314 23.428C94.314 22.892 94.506 22.464 94.89 22.144C95.274 21.824 95.806 21.636 96.486 21.58L98.406 21.424V21.232C98.406 20.848 98.338 20.548 98.202 20.332C98.066 20.108 97.882 19.952 97.65 19.864C97.418 19.776 97.158 19.732 96.87 19.732C96.358 19.732 95.962 19.84 95.682 20.056C95.402 20.272 95.262 20.576 95.262 20.968H94.506C94.506 20.576 94.606 20.236 94.806 19.948C95.006 19.66 95.286 19.436 95.646 19.276C96.006 19.116 96.422 19.036 96.894 19.036C97.35 19.036 97.75 19.116 98.094 19.276C98.438 19.428 98.71 19.668 98.91 19.996C99.118 20.316 99.222 20.732 99.222 21.244V25H98.526L98.418 23.98C98.242 24.348 97.962 24.636 97.578 24.844C97.202 25.044 96.77 25.144 96.282 25.144ZM96.474 24.472C97.09 24.472 97.566 24.276 97.902 23.884C98.238 23.492 98.406 22.984 98.406 22.36V22.048L96.69 22.18C96.146 22.228 95.754 22.364 95.514 22.588C95.274 22.812 95.154 23.084 95.154 23.404C95.154 23.756 95.274 24.024 95.514 24.208C95.754 24.384 96.074 24.472 96.474 24.472ZM101.748 25H100.92V16.252H101.748V25Z" fill="black"/>
<line x1="115.5" y1="8" x2="115.5" y2="32" stroke="#F2F2F2"/>
<path d="M127.528 18.64C127.528 18.16 127.648 17.744 127.888 17.392C128.128 17.032 128.464 16.752 128.896 16.552C129.328 16.352 129.832 16.252 130.408 16.252C130.928 16.252 131.38 16.344 131.764 16.528C132.156 16.712 132.468 16.976 132.7 17.32C132.932 17.664 133.068 18.076 133.108 18.556H132.232C132.184 18.076 132 17.704 131.68 17.44C131.36 17.168 130.932 17.032 130.396 17.032C129.796 17.032 129.312 17.176 128.944 17.464C128.576 17.752 128.392 18.14 128.392 18.628C128.392 19.004 128.504 19.316 128.728 19.564C128.952 19.804 129.288 19.98 129.736 20.092L131.212 20.452C131.884 20.612 132.392 20.884 132.736 21.268C133.08 21.644 133.252 22.124 133.252 22.708C133.252 23.196 133.132 23.624 132.892 23.992C132.652 24.36 132.312 24.644 131.872 24.844C131.432 25.044 130.916 25.144 130.324 25.144C129.772 25.144 129.28 25.052 128.848 24.868C128.424 24.684 128.088 24.42 127.84 24.076C127.6 23.732 127.46 23.328 127.42 22.864H128.308C128.332 23.32 128.528 23.684 128.896 23.956C129.264 24.22 129.74 24.352 130.324 24.352C130.956 24.352 131.456 24.208 131.824 23.92C132.2 23.632 132.388 23.244 132.388 22.756C132.388 22.364 132.276 22.048 132.052 21.808C131.836 21.56 131.496 21.38 131.032 21.268L129.58 20.908C128.908 20.748 128.396 20.48 128.044 20.104C127.7 19.72 127.528 19.232 127.528 18.64ZM136.294 25.144C135.678 25.144 135.194 24.984 134.842 24.664C134.498 24.344 134.326 23.932 134.326 23.428C134.326 22.892 134.518 22.464 134.902 22.144C135.286 21.824 135.818 21.636 136.498 21.58L138.418 21.424V21.232C138.418 20.848 138.35 20.548 138.214 20.332C138.078 20.108 137.894 19.952 137.662 19.864C137.43 19.776 137.17 19.732 136.882 19.732C136.37 19.732 135.974 19.84 135.694 20.056C135.414 20.272 135.274 20.576 135.274 20.968H134.518C134.518 20.576 134.618 20.236 134.818 19.948C135.018 19.66 135.298 19.436 135.658 19.276C136.018 19.116 136.434 19.036 136.906 19.036C137.362 19.036 137.762 19.116 138.106 19.276C138.45 19.428 138.722 19.668 138.922 19.996C139.13 20.316 139.234 20.732 139.234 21.244V25H138.538L138.43 23.98C138.254 24.348 137.974 24.636 137.59 24.844C137.214 25.044 136.782 25.144 136.294 25.144ZM136.486 24.472C137.102 24.472 137.578 24.276 137.914 23.884C138.25 23.492 138.418 22.984 138.418 22.36V22.048L136.702 22.18C136.158 22.228 135.766 22.364 135.526 22.588C135.286 22.812 135.166 23.084 135.166 23.404C135.166 23.756 135.286 24.024 135.526 24.208C135.766 24.384 136.086 24.472 136.486 24.472ZM140.499 21.928C140.499 21.4 140.607 20.92 140.823 20.488C141.039 20.048 141.351 19.696 141.759 19.432C142.167 19.168 142.655 19.036 143.223 19.036C143.775 19.036 144.247 19.172 144.639 19.444C145.031 19.716 145.311 20.108 145.479 20.62L145.347 20.788L145.455 19.192H146.175V24.82C146.175 25.396 146.059 25.896 145.827 26.32C145.595 26.752 145.267 27.084 144.843 27.316C144.427 27.556 143.935 27.676 143.367 27.676C142.623 27.676 142.007 27.476 141.519 27.076C141.031 26.676 140.727 26.128 140.607 25.432H141.435C141.523 25.904 141.735 26.268 142.071 26.524C142.415 26.788 142.851 26.92 143.379 26.92C143.979 26.92 144.459 26.736 144.819 26.368C145.179 26 145.359 25.512 145.359 24.904V23.08L145.479 23.236C145.311 23.724 145.019 24.112 144.603 24.4C144.195 24.68 143.715 24.82 143.163 24.82C142.611 24.82 142.135 24.688 141.735 24.424C141.335 24.16 141.027 23.812 140.811 23.38C140.603 22.94 140.499 22.456 140.499 21.928ZM141.327 21.916C141.327 22.316 141.403 22.68 141.555 23.008C141.715 23.336 141.939 23.596 142.227 23.788C142.523 23.98 142.875 24.076 143.283 24.076C143.699 24.076 144.055 23.984 144.351 23.8C144.655 23.608 144.887 23.352 145.047 23.032C145.207 22.704 145.287 22.332 145.287 21.916C145.287 21.5 145.207 21.132 145.047 20.812C144.895 20.492 144.671 20.24 144.375 20.056C144.087 19.864 143.727 19.768 143.295 19.768C142.879 19.768 142.523 19.868 142.227 20.068C141.939 20.26 141.715 20.52 141.555 20.848C141.403 21.168 141.327 21.524 141.327 21.916ZM147.903 25V19.192H148.731V25H147.903ZM148.311 17.596C148.143 17.596 147.999 17.536 147.879 17.416C147.759 17.296 147.699 17.152 147.699 16.984C147.699 16.816 147.759 16.672 147.879 16.552C147.999 16.424 148.143 16.36 148.311 16.36C148.479 16.36 148.623 16.424 148.743 16.552C148.871 16.672 148.935 16.816 148.935 16.984C148.935 17.152 148.871 17.296 148.743 17.416C148.623 17.536 148.479 17.596 148.311 17.596ZM149.81 19.192H152.954V19.888H149.81V19.192ZM151.79 25H150.974V17.356H151.79V25ZM153.431 19.192H156.575V19.888H153.431V19.192ZM155.411 25H154.595V17.356H155.411V25ZM159.227 25.144C158.611 25.144 158.127 24.984 157.775 24.664C157.431 24.344 157.259 23.932 157.259 23.428C157.259 22.892 157.451 22.464 157.835 22.144C158.219 21.824 158.751 21.636 159.431 21.58L161.351 21.424V21.232C161.351 20.848 161.283 20.548 161.147 20.332C161.011 20.108 160.827 19.952 160.595 19.864C160.363 19.776 160.103 19.732 159.815 19.732C159.303 19.732 158.907 19.84 158.627 20.056C158.347 20.272 158.207 20.576 158.207 20.968H157.451C157.451 20.576 157.551 20.236 157.751 19.948C157.951 19.66 158.231 19.436 158.591 19.276C158.951 19.116 159.367 19.036 159.839 19.036C160.295 19.036 160.695 19.116 161.039 19.276C161.383 19.428 161.655 19.668 161.855 19.996C162.063 20.316 162.167 20.732 162.167 21.244V25H161.471L161.363 23.98C161.187 24.348 160.907 24.636 160.523 24.844C160.147 25.044 159.715 25.144 159.227 25.144ZM159.419 24.472C160.035 24.472 160.511 24.276 160.847 23.884C161.183 23.492 161.351 22.984 161.351 22.36V22.048L159.635 22.18C159.091 22.228 158.699 22.364 158.459 22.588C158.219 22.812 158.099 23.084 158.099 23.404C158.099 23.756 158.219 24.024 158.459 24.208C158.699 24.384 159.019 24.472 159.419 24.472ZM164.693 25H163.865V16.252H164.693V25Z" fill="black"/>
</svg>
