<svg width="36" height="18" viewBox="0 0 36 18" fill="none" xmlns="http://www.w3.org/2000/svg">
<mask id="path-1-outside-1_2037_5620" maskUnits="userSpaceOnUse" x="0" y="0" width="36" height="18" fill="black">
<rect fill="white" width="36" height="18"/>
<path d="M3.64 1.54V16H1.68V1.54H3.64ZM7.3 10.84H3.2V9.08H6.88C7.85333 9.08 8.6 8.82 9.12 8.3C9.64 7.76667 9.9 7.05333 9.9 6.16C9.9 5.25333 9.64 4.55333 9.12 4.06C8.6 3.55333 7.88 3.3 6.96 3.3H2.76V1.54H7.3C8.24667 1.54 9.06667 1.73333 9.76 2.12C10.4533 2.50667 10.9933 3.04667 11.38 3.74C11.7667 4.43333 11.96 5.24667 11.96 6.18C11.96 7.07333 11.7667 7.87333 11.38 8.58C10.9933 9.28667 10.4533 9.84 9.76 10.24C9.06667 10.64 8.24667 10.84 7.3 10.84Z"/>
<path d="M13.34 5.44C13.34 4.61333 13.5467 3.88667 13.96 3.26C14.3733 2.63333 14.9533 2.14667 15.7 1.8C16.46 1.45333 17.3333 1.28 18.32 1.28C19.24 1.28 20.04 1.44667 20.72 1.78C21.4133 2.1 21.9533 2.56 22.34 3.16C22.74 3.76 22.9667 4.48 23.02 5.32H21.04C20.9867 4.6 20.72 4.04 20.24 3.64C19.76 3.24 19.1133 3.04 18.3 3.04C17.3933 3.04 16.6667 3.25333 16.12 3.68C15.5733 4.09333 15.3 4.66 15.3 5.38C15.3 5.96667 15.4667 6.44 15.8 6.8C16.1333 7.14667 16.64 7.4 17.32 7.56L19.7 8.12C20.8867 8.38667 21.7733 8.84667 22.36 9.5C22.96 10.14 23.26 10.9667 23.26 11.98C23.26 12.8467 23.0467 13.6 22.62 14.24C22.2067 14.88 21.6133 15.3733 20.84 15.72C20.08 16.0667 19.1867 16.24 18.16 16.24C17.1867 16.24 16.3267 16.08 15.58 15.76C14.8467 15.4267 14.2667 14.96 13.84 14.36C13.4267 13.7467 13.1933 13.0333 13.14 12.22H15.14C15.1533 12.9133 15.4333 13.4667 15.98 13.88C16.5267 14.28 17.2533 14.48 18.16 14.48C19.12 14.48 19.88 14.2667 20.44 13.84C21.0133 13.4133 21.3 12.8467 21.3 12.14C21.3 11.5667 21.14 11.1 20.82 10.74C20.5 10.38 19.9933 10.12 19.3 9.96L16.92 9.42C15.7467 9.15333 14.8533 8.68667 14.24 8.02C13.64 7.34 13.34 6.48 13.34 5.44ZM34.543 16H25.723V1.54H34.543V3.34H26.783L27.683 2.56V7.86H33.863V9.6H27.683V15L26.783 14.18H34.543V16Z"/>
</mask>
<path d="M3.64 1.54V16H1.68V1.54H3.64ZM7.3 10.84H3.2V9.08H6.88C7.85333 9.08 8.6 8.82 9.12 8.3C9.64 7.76667 9.9 7.05333 9.9 6.16C9.9 5.25333 9.64 4.55333 9.12 4.06C8.6 3.55333 7.88 3.3 6.96 3.3H2.76V1.54H7.3C8.24667 1.54 9.06667 1.73333 9.76 2.12C10.4533 2.50667 10.9933 3.04667 11.38 3.74C11.7667 4.43333 11.96 5.24667 11.96 6.18C11.96 7.07333 11.7667 7.87333 11.38 8.58C10.9933 9.28667 10.4533 9.84 9.76 10.24C9.06667 10.64 8.24667 10.84 7.3 10.84Z" fill="#2F80ED"/>
<path d="M13.34 5.44C13.34 4.61333 13.5467 3.88667 13.96 3.26C14.3733 2.63333 14.9533 2.14667 15.7 1.8C16.46 1.45333 17.3333 1.28 18.32 1.28C19.24 1.28 20.04 1.44667 20.72 1.78C21.4133 2.1 21.9533 2.56 22.34 3.16C22.74 3.76 22.9667 4.48 23.02 5.32H21.04C20.9867 4.6 20.72 4.04 20.24 3.64C19.76 3.24 19.1133 3.04 18.3 3.04C17.3933 3.04 16.6667 3.25333 16.12 3.68C15.5733 4.09333 15.3 4.66 15.3 5.38C15.3 5.96667 15.4667 6.44 15.8 6.8C16.1333 7.14667 16.64 7.4 17.32 7.56L19.7 8.12C20.8867 8.38667 21.7733 8.84667 22.36 9.5C22.96 10.14 23.26 10.9667 23.26 11.98C23.26 12.8467 23.0467 13.6 22.62 14.24C22.2067 14.88 21.6133 15.3733 20.84 15.72C20.08 16.0667 19.1867 16.24 18.16 16.24C17.1867 16.24 16.3267 16.08 15.58 15.76C14.8467 15.4267 14.2667 14.96 13.84 14.36C13.4267 13.7467 13.1933 13.0333 13.14 12.22H15.14C15.1533 12.9133 15.4333 13.4667 15.98 13.88C16.5267 14.28 17.2533 14.48 18.16 14.48C19.12 14.48 19.88 14.2667 20.44 13.84C21.0133 13.4133 21.3 12.8467 21.3 12.14C21.3 11.5667 21.14 11.1 20.82 10.74C20.5 10.38 19.9933 10.12 19.3 9.96L16.92 9.42C15.7467 9.15333 14.8533 8.68667 14.24 8.02C13.64 7.34 13.34 6.48 13.34 5.44ZM34.543 16H25.723V1.54H34.543V3.34H26.783L27.683 2.56V7.86H33.863V9.6H27.683V15L26.783 14.18H34.543V16Z" fill="#646464"/>
<path d="M3.64 1.54H4.64V0.539999H3.64V1.54ZM3.64 16V17H4.64V16H3.64ZM1.68 16H0.68V17H1.68V16ZM1.68 1.54V0.539999H0.68V1.54H1.68ZM3.2 10.84H2.2V11.84H3.2V10.84ZM3.2 9.08V8.08H2.2V9.08H3.2ZM9.12 8.3L9.82716 9.00716L9.836 8.9981L9.12 8.3ZM9.12 4.06L8.42207 4.77629L8.43174 4.78546L9.12 4.06ZM2.76 3.3H1.76V4.3H2.76V3.3ZM2.76 1.54V0.539999H1.76V1.54H2.76ZM9.76 2.12L9.27293 2.99336L9.27293 2.99336L9.76 2.12ZM11.38 3.74L10.5066 4.22707L10.5066 4.22707L11.38 3.74ZM11.38 8.58L10.5027 8.09999L10.5027 8.09999L11.38 8.58ZM9.76 10.24L10.2597 11.1062L10.2597 11.1062L9.76 10.24ZM3.64 1.54H2.64V16H3.64H4.64V1.54H3.64ZM3.64 16V15H1.68V16V17H3.64V16ZM1.68 16H2.68V1.54H1.68H0.68V16H1.68ZM1.68 1.54V2.54H3.64V1.54V0.539999H1.68V1.54ZM7.3 10.84V9.84H3.2V10.84V11.84H7.3V10.84ZM3.2 10.84H4.2V9.08H3.2H2.2V10.84H3.2ZM3.2 9.08V10.08H6.88V9.08V8.08H3.2V9.08ZM6.88 9.08V10.08C8.02966 10.08 9.0649 9.76932 9.82711 9.00711L9.12 8.3L8.41289 7.59289C8.13511 7.87068 7.677 8.08 6.88 8.08V9.08ZM9.12 8.3L9.836 8.9981C10.5734 8.24176 10.9 7.25873 10.9 6.16H9.9H8.9C8.9 6.84793 8.70657 7.29157 8.404 7.6019L9.12 8.3ZM9.9 6.16H10.9C10.9 5.05609 10.577 4.0639 9.80826 3.33454L9.12 4.06L8.43174 4.78546C8.70295 5.04277 8.9 5.45057 8.9 6.16H9.9ZM9.12 4.06L9.81787 3.34377C9.06469 2.60991 8.06777 2.3 6.96 2.3V3.3V4.3C7.69223 4.3 8.13531 4.49676 8.42214 4.77623L9.12 4.06ZM6.96 3.3V2.3H2.76V3.3V4.3H6.96V3.3ZM2.76 3.3H3.76V1.54H2.76H1.76V3.3H2.76ZM2.76 1.54V2.54H7.3V1.54V0.539999H2.76V1.54ZM7.3 1.54V2.54C8.10899 2.54 8.75476 2.70438 9.27293 2.99336L9.76 2.12L10.2471 1.24664C9.37858 0.762285 8.38435 0.539999 7.3 0.539999V1.54ZM9.76 2.12L9.27293 2.99336C9.80414 3.28962 10.2104 3.69586 10.5066 4.22707L11.38 3.74L12.2534 3.25293C11.7763 2.39747 11.1025 1.72372 10.2471 1.24664L9.76 2.12ZM11.38 3.74L10.5066 4.22707C10.7967 4.74726 10.96 5.38708 10.96 6.18H11.96H12.96C12.96 5.10625 12.7366 4.1194 12.2534 3.25293L11.38 3.74ZM11.96 6.18H10.96C10.96 6.92422 10.8004 7.55604 10.5027 8.09999L11.38 8.58L12.2573 9.06001C12.733 8.19063 12.96 7.22245 12.96 6.18H11.96ZM11.38 8.58L10.5027 8.09999C10.2035 8.64682 9.79366 9.06609 9.26028 9.37381L9.76 10.24L10.2597 11.1062C11.113 10.6139 11.7831 9.92651 12.2573 9.06001L11.38 8.58ZM9.76 10.24L9.26028 9.37381C8.74457 9.67134 8.10346 9.84 7.3 9.84V10.84V11.84C8.38987 11.84 9.38877 11.6087 10.2597 11.1062L9.76 10.24ZM13.96 3.26L14.7948 3.81059L14.7948 3.81059L13.96 3.26ZM15.7 1.8L15.285 0.89016L15.2789 0.89299L15.7 1.8ZM20.72 1.78L20.2798 2.67792L20.2903 2.68306L20.3009 2.68796L20.72 1.78ZM22.34 3.16L21.4994 3.7017L21.5036 3.70823L21.5079 3.7147L22.34 3.16ZM23.02 5.32V6.32H24.0855L24.018 5.25663L23.02 5.32ZM21.04 5.32L20.0427 5.39387L20.1113 6.32H21.04V5.32ZM20.24 3.64L20.8802 2.87178L20.8802 2.87178L20.24 3.64ZM16.12 3.68L16.7231 4.47766L16.7292 4.47303L16.7353 4.46832L16.12 3.68ZM15.8 6.8L15.0662 7.47941L15.0726 7.48632L15.0792 7.49311L15.8 6.8ZM17.32 7.56L17.549 6.58658L17.549 6.58658L17.32 7.56ZM19.7 8.12L19.4709 9.09347L19.4807 9.09567L19.7 8.12ZM22.36 9.5L21.616 10.1681L21.6231 10.1761L21.6305 10.1839L22.36 9.5ZM22.62 14.24L21.788 13.6853L21.7839 13.6914L21.78 13.6975L22.62 14.24ZM20.84 15.72L20.4309 14.8075L20.425 14.8102L20.84 15.72ZM15.58 15.76L15.1662 16.6704L15.1761 16.6749L15.1861 16.6791L15.58 15.76ZM13.84 14.36L13.0107 14.9189L13.0178 14.9293L13.025 14.9395L13.84 14.36ZM13.14 12.22V11.22H12.0723L12.1421 12.2854L13.14 12.22ZM15.14 12.22L16.1398 12.2008L16.121 11.22H15.14V12.22ZM15.98 13.88L15.3769 14.6777L15.3832 14.6824L15.3895 14.687L15.98 13.88ZM20.44 13.84L19.843 13.0377L19.834 13.0446L20.44 13.84ZM20.82 10.74L20.0726 11.4044L20.0726 11.4044L20.82 10.74ZM19.3 9.96L19.5249 8.9856L19.5213 8.98479L19.3 9.96ZM16.92 9.42L16.6984 10.3951L16.6987 10.3952L16.92 9.42ZM14.24 8.02L13.4902 8.68162L13.497 8.68941L13.5041 8.69706L14.24 8.02ZM13.34 5.44H14.34C14.34 4.78848 14.5 4.25747 14.7948 3.81059L13.96 3.26L13.1252 2.7094C12.5933 3.51586 12.34 4.43819 12.34 5.44H13.34ZM13.96 3.26L14.7948 3.81059C15.0962 3.35358 15.5259 2.98335 16.1211 2.70701L15.7 1.8L15.2789 0.89299C14.3808 1.30998 13.6505 1.91308 13.1252 2.7094L13.96 3.26ZM15.7 1.8L16.115 2.70982C16.7233 2.43237 17.4509 2.28 18.32 2.28V1.28V0.279999C17.2158 0.279999 16.1967 0.474292 15.285 0.89018L15.7 1.8ZM18.32 1.28V2.28C19.1197 2.28 19.7632 2.42464 20.2798 2.67792L20.72 1.78L21.1602 0.882079C20.3168 0.468692 19.3603 0.279999 18.32 0.279999V1.28ZM20.72 1.78L20.3009 2.68796C20.8344 2.93418 21.2229 3.27258 21.4994 3.7017L22.34 3.16L23.1806 2.6183C22.6838 1.84741 21.9923 1.26582 21.1391 0.87204L20.72 1.78ZM22.34 3.16L21.5079 3.7147C21.7951 4.14549 21.9779 4.68925 22.022 5.38336L23.02 5.32L24.018 5.25663C23.9554 4.27075 23.6849 3.37451 23.1721 2.6053L22.34 3.16ZM23.02 5.32V4.32H21.04V5.32V6.32H23.02V5.32ZM21.04 5.32L22.0373 5.24613C21.9673 4.3016 21.6012 3.4726 20.8802 2.87178L20.24 3.64L19.5998 4.40822C19.8388 4.6074 20.006 4.8984 20.0427 5.39387L21.04 5.32ZM20.24 3.64L20.8802 2.87178C20.1722 2.2818 19.2756 2.04 18.3 2.04V3.04V4.04C18.951 4.04 19.3478 4.1982 19.5998 4.40822L20.24 3.64ZM18.3 3.04V2.04C17.2393 2.04 16.2747 2.29076 15.5047 2.89168L16.12 3.68L16.7353 4.46832C17.0587 4.21591 17.5474 4.04 18.3 4.04V3.04ZM16.12 3.68L15.5169 2.88234C14.7059 3.49557 14.3 4.36511 14.3 5.38H15.3H16.3C16.3 4.95489 16.4408 4.6911 16.7231 4.47766L16.12 3.68ZM15.3 5.38H14.3C14.3 6.16636 14.5293 6.89951 15.0662 7.47941L15.8 6.8L16.5338 6.12059C16.404 5.98049 16.3 5.76697 16.3 5.38H15.3ZM15.8 6.8L15.0792 7.49311C15.5936 8.02809 16.3038 8.34821 17.091 8.53342L17.32 7.56L17.549 6.58658C16.9762 6.45179 16.6731 6.26524 16.5208 6.10689L15.8 6.8ZM17.32 7.56L17.091 8.53342L19.471 9.09342L19.7 8.12L19.929 7.14658L17.549 6.58658L17.32 7.56ZM19.7 8.12L19.4807 9.09567C20.5408 9.33388 21.2123 9.7186 21.616 10.1681L22.36 9.5L23.104 8.83187C22.3344 7.97473 21.2326 7.43946 19.9193 7.14433L19.7 8.12ZM22.36 9.5L21.6305 10.1839C22.0298 10.6099 22.26 11.1785 22.26 11.98H23.26H24.26C24.26 10.7549 23.8902 9.67009 23.0895 8.81606L22.36 9.5ZM23.26 11.98H22.26C22.26 12.6751 22.0916 13.2299 21.788 13.6853L22.62 14.24L23.4521 14.7947C24.0018 13.9701 24.26 13.0182 24.26 11.98H23.26ZM22.62 14.24L21.78 13.6975C21.4831 14.1572 21.0484 14.5307 20.4309 14.8075L20.84 15.72L21.2491 16.6325C22.1783 16.216 22.9303 15.6028 23.46 14.7825L22.62 14.24ZM20.84 15.72L20.425 14.8102C19.8216 15.0854 19.0755 15.24 18.16 15.24V16.24V17.24C19.2978 17.24 20.3384 17.0479 21.255 16.6298L20.84 15.72ZM18.16 16.24V15.24C17.2958 15.24 16.574 15.098 15.9739 14.8409L15.58 15.76L15.1861 16.6791C16.0793 17.062 17.0776 17.24 18.16 17.24V16.24ZM15.58 15.76L15.9938 14.8496C15.4055 14.5822 14.97 14.2234 14.655 13.7805L13.84 14.36L13.025 14.9395C13.5634 15.6966 14.2879 16.2711 15.1662 16.6704L15.58 15.76ZM13.84 14.36L14.6693 13.8011C14.3646 13.3491 14.1808 12.8099 14.1379 12.1546L13.14 12.22L12.1421 12.2854C12.2058 13.2568 12.4887 14.1442 13.0107 14.9189L13.84 14.36ZM13.14 12.22V13.22H15.14V12.22V11.22H13.14V12.22ZM15.14 12.22L14.1402 12.2392C14.1593 13.2349 14.5823 14.0768 15.3769 14.6777L15.98 13.88L16.5831 13.0823C16.2844 12.8565 16.1473 12.5918 16.1398 12.2008L15.14 12.22ZM15.98 13.88L15.3895 14.687C16.1571 15.2487 17.1121 15.48 18.16 15.48V14.48V13.48C17.3946 13.48 16.8962 13.3113 16.5705 13.073L15.98 13.88ZM18.16 14.48V15.48C19.2604 15.48 20.2583 15.2356 21.046 14.6354L20.44 13.84L19.834 13.0446C19.5017 13.2977 18.9796 13.48 18.16 13.48V14.48ZM20.44 13.84L21.037 14.6422C21.8605 14.0294 22.3 13.1669 22.3 12.14H21.3H20.3C20.3 12.5264 20.1662 12.7973 19.843 13.0378L20.44 13.84ZM21.3 12.14H22.3C22.3 11.3709 22.0801 10.6524 21.5674 10.0756L20.82 10.74L20.0726 11.4044C20.1999 11.5476 20.3 11.7624 20.3 12.14H21.3ZM20.82 10.74L21.5674 10.0756C21.0581 9.50263 20.3287 9.1711 19.5249 8.98561L19.3 9.96L19.0751 10.9344C19.658 11.0689 19.9419 11.2574 20.0726 11.4044L20.82 10.74ZM19.3 9.96L19.5213 8.98479L17.1413 8.44479L16.92 9.42L16.6987 10.3952L19.0787 10.9352L19.3 9.96ZM16.92 9.42L17.1416 8.44487C16.1021 8.2086 15.4135 7.81853 14.9759 7.34294L14.24 8.02L13.5041 8.69706C14.2932 9.5548 15.3913 10.0981 16.6984 10.3951L16.92 9.42ZM14.24 8.02L14.9898 7.35838C14.5746 6.88776 14.34 6.27445 14.34 5.44H13.34H12.34C12.34 6.68555 12.7054 7.79224 13.4902 8.68162L14.24 8.02ZM34.543 16V17H35.543V16H34.543ZM25.723 16H24.723V17H25.723V16ZM25.723 1.54V0.539999H24.723V1.54H25.723ZM34.543 1.54H35.543V0.539999H34.543V1.54ZM34.543 3.34V4.34H35.543V3.34H34.543ZM26.783 3.34L26.128 2.58431L24.1022 4.34H26.783V3.34ZM27.683 2.56H28.683V0.370036L27.028 1.80431L27.683 2.56ZM27.683 7.86H26.683V8.86H27.683V7.86ZM33.863 7.86H34.863V6.86H33.863V7.86ZM33.863 9.6V10.6H34.863V9.6H33.863ZM27.683 9.6V8.6H26.683V9.6H27.683ZM27.683 15L27.0095 15.7392L28.683 17.2639V15H27.683ZM26.783 14.18V13.18H24.2006L26.1095 14.9192L26.783 14.18ZM34.543 14.18H35.543V13.18H34.543V14.18ZM34.543 16V15H25.723V16V17H34.543V16ZM25.723 16H26.723V1.54H25.723H24.723V16H25.723ZM25.723 1.54V2.54H34.543V1.54V0.539999H25.723V1.54ZM34.543 1.54H33.543V3.34H34.543H35.543V1.54H34.543ZM34.543 3.34V2.34H26.783V3.34V4.34H34.543V3.34ZM26.783 3.34L27.4379 4.09569L28.3379 3.31569L27.683 2.56L27.028 1.80431L26.128 2.58431L26.783 3.34ZM27.683 2.56H26.683V7.86H27.683H28.683V2.56H27.683ZM27.683 7.86V8.86H33.863V7.86V6.86H27.683V7.86ZM33.863 7.86H32.863V9.6H33.863H34.863V7.86H33.863ZM33.863 9.6V8.6H27.683V9.6V10.6H33.863V9.6ZM27.683 9.6H26.683V15H27.683H28.683V9.6H27.683ZM27.683 15L28.3565 14.2608L27.4565 13.4408L26.783 14.18L26.1095 14.9192L27.0095 15.7392L27.683 15ZM26.783 14.18V15.18H34.543V14.18V13.18H26.783V14.18ZM34.543 14.18H33.543V16H34.543H35.543V14.18H34.543Z" fill="black" fill-opacity="0.2" mask="url(#path-1-outside-1_2037_5620)"/>
</svg>
