<svg width="286" height="48" viewBox="0 0 286 48" fill="none" xmlns="http://www.w3.org/2000/svg">
<rect width="286" height="48" rx="4" fill="white"/>
<circle cx="24" cy="24" r="9" stroke="black" stroke-width="2"/>
<circle cx="24" cy="24" r="5" fill="#C7493E"/>
<path d="M42.226 29.5H41.218V19.476H44.956C45.964 19.476 46.7573 19.7373 47.336 20.26C47.924 20.7733 48.218 21.478 48.218 22.374C48.218 23.0927 48.036 23.6947 47.672 24.18C47.3173 24.6653 46.818 24.9967 46.174 25.174L48.316 29.5H47.196L45.152 25.342H42.226V29.5ZM42.226 20.386V24.432H44.984C45.6747 24.432 46.2113 24.25 46.594 23.886C46.986 23.522 47.182 23.0273 47.182 22.402C47.182 21.7487 46.9813 21.2493 46.58 20.904C46.1787 20.5587 45.6373 20.386 44.956 20.386H42.226ZM52.3129 29.668C51.6596 29.668 51.0809 29.5187 50.5769 29.22C50.0822 28.9213 49.6949 28.506 49.4149 27.974C49.1349 27.442 48.9949 26.8213 48.9949 26.112C48.9949 25.412 49.1302 24.796 49.4009 24.264C49.6809 23.7227 50.0636 23.3027 50.5489 23.004C51.0342 22.696 51.5989 22.542 52.2429 22.542C52.8589 22.542 53.3956 22.6773 53.8529 22.948C54.3196 23.2187 54.6789 23.5967 54.9309 24.082C55.1922 24.558 55.3229 25.118 55.3229 25.762V26.238H49.5269L49.5549 25.538H54.3569C54.3569 24.8847 54.1609 24.362 53.7689 23.97C53.3862 23.5687 52.8776 23.368 52.2429 23.368C51.7762 23.368 51.3656 23.4753 51.0109 23.69C50.6656 23.9047 50.3996 24.2127 50.2129 24.614C50.0262 25.006 49.9329 25.4727 49.9329 26.014C49.9329 26.91 50.1382 27.6053 50.5489 28.1C50.9689 28.5947 51.5616 28.842 52.3269 28.842C52.8776 28.842 53.3302 28.7253 53.6849 28.492C54.0396 28.2587 54.2776 27.918 54.3989 27.47H55.3229C55.1456 28.1793 54.8002 28.7253 54.2869 29.108C53.7736 29.4813 53.1156 29.668 52.3129 29.668ZM56.3914 26.126C56.3914 25.4167 56.5267 24.796 56.7974 24.264C57.0774 23.7227 57.46 23.3027 57.9454 23.004C58.44 22.696 59.014 22.542 59.6674 22.542C60.4514 22.542 61.1094 22.752 61.6414 23.172C62.1827 23.592 62.5187 24.152 62.6494 24.852H61.6834C61.5527 24.3853 61.3054 24.026 60.9414 23.774C60.5774 23.522 60.1574 23.396 59.6814 23.396C59.2334 23.396 58.832 23.508 58.4774 23.732C58.1227 23.956 57.8427 24.2733 57.6374 24.684C57.4414 25.0853 57.3434 25.5613 57.3434 26.112C57.3434 26.6533 57.4367 27.1247 57.6234 27.526C57.81 27.9273 58.0714 28.24 58.4074 28.464C58.7527 28.688 59.154 28.8 59.6114 28.8C60.1247 28.8 60.568 28.674 60.9414 28.422C61.3147 28.1607 61.5667 27.8107 61.6974 27.372H62.6774C62.5747 27.8293 62.3787 28.2307 62.0894 28.576C61.8 28.9213 61.4407 29.192 61.0114 29.388C60.5914 29.5747 60.1247 29.668 59.6114 29.668C58.9674 29.668 58.4027 29.5233 57.9174 29.234C57.4414 28.9353 57.068 28.52 56.7974 27.988C56.5267 27.456 56.3914 26.8353 56.3914 26.126ZM63.6648 26.112C63.6648 25.412 63.8141 24.796 64.1128 24.264C64.4115 23.732 64.8221 23.312 65.3448 23.004C65.8675 22.696 66.4555 22.542 67.1088 22.542C67.7715 22.542 68.3595 22.696 68.8728 23.004C69.3955 23.312 69.8061 23.732 70.1048 24.264C70.4035 24.796 70.5528 25.412 70.5528 26.112C70.5528 26.7933 70.4035 27.4047 70.1048 27.946C69.8061 28.478 69.3955 28.898 68.8728 29.206C68.3595 29.514 67.7715 29.668 67.1088 29.668C66.4555 29.668 65.8675 29.514 65.3448 29.206C64.8221 28.898 64.4115 28.478 64.1128 27.946C63.8141 27.4047 63.6648 26.7933 63.6648 26.112ZM64.6448 26.098C64.6448 26.63 64.7475 27.1013 64.9528 27.512C65.1675 27.9133 65.4568 28.2307 65.8208 28.464C66.1941 28.688 66.6235 28.8 67.1088 28.8C67.5941 28.8 68.0188 28.688 68.3828 28.464C68.7561 28.2307 69.0455 27.9133 69.2508 27.512C69.4655 27.1013 69.5728 26.63 69.5728 26.098C69.5728 25.5753 69.4655 25.1133 69.2508 24.712C69.0455 24.3107 68.7561 23.9933 68.3828 23.76C68.0188 23.5267 67.5941 23.41 67.1088 23.41C66.6235 23.41 66.1941 23.5267 65.8208 23.76C65.4568 23.9933 65.1675 24.3107 64.9528 24.712C64.7475 25.1133 64.6448 25.5753 64.6448 26.098ZM75.6398 22.64V23.508H75.1078C74.4825 23.508 73.9832 23.6993 73.6098 24.082C73.2458 24.4647 73.0638 24.9827 73.0638 25.636V29.5H72.0978V22.724H73.0078L73.0918 24.054H72.9938C73.0872 23.6153 73.3158 23.2607 73.6798 22.99C74.0438 22.71 74.4872 22.57 75.0098 22.57C75.1125 22.57 75.2152 22.5747 75.3178 22.584C75.4205 22.5933 75.5278 22.612 75.6398 22.64ZM79.3243 29.668C78.6709 29.668 78.1109 29.514 77.6443 29.206C77.1776 28.898 76.8183 28.478 76.5663 27.946C76.3143 27.4047 76.1883 26.798 76.1883 26.126C76.1883 25.4447 76.3143 24.8333 76.5663 24.292C76.8183 23.7507 77.1776 23.326 77.6443 23.018C78.1203 22.7007 78.6943 22.542 79.3663 22.542C79.9263 22.542 80.4209 22.6633 80.8503 22.906C81.2889 23.1487 81.6249 23.5173 81.8583 24.012V19.294H82.8243V29.5H81.9843L81.8863 28.114C81.6436 28.6367 81.2983 29.0287 80.8503 29.29C80.4023 29.542 79.8936 29.668 79.3243 29.668ZM79.4923 28.786C79.9963 28.786 80.4209 28.674 80.7663 28.45C81.1116 28.2167 81.3776 27.8993 81.5643 27.498C81.7509 27.0873 81.8443 26.6207 81.8443 26.098C81.8443 25.5753 81.7509 25.1133 81.5643 24.712C81.3776 24.3107 81.1116 23.9933 80.7663 23.76C80.4209 23.5267 79.9963 23.41 79.4923 23.41C79.0069 23.41 78.5869 23.5267 78.2323 23.76C77.8869 23.9933 77.6209 24.3107 77.4343 24.712C77.2569 25.1133 77.1683 25.5753 77.1683 26.098C77.1683 26.6207 77.2569 27.0873 77.4343 27.498C77.6209 27.8993 77.8869 28.2167 78.2323 28.45C78.5869 28.674 79.0069 28.786 79.4923 28.786Z" fill="black"/>
<mask id="mask0_263_4927" style="mask-type:alpha" maskUnits="userSpaceOnUse" x="100" y="12" width="24" height="24">
<rect x="100" y="12" width="24" height="24" fill="#D9D9D9"/>
</mask>
<g mask="url(#mask0_263_4927)">
<path d="M112 29.5C113.25 29.5 114.312 29.0625 115.188 28.1875C116.062 27.3125 116.5 26.25 116.5 25C116.5 23.75 116.062 22.6875 115.188 21.8125C114.312 20.9375 113.25 20.5 112 20.5C110.75 20.5 109.688 20.9375 108.812 21.8125C107.938 22.6875 107.5 23.75 107.5 25C107.5 26.25 107.938 27.3125 108.812 28.1875C109.688 29.0625 110.75 29.5 112 29.5ZM112 27.5C111.3 27.5 110.708 27.2583 110.225 26.775C109.742 26.2917 109.5 25.7 109.5 25C109.5 24.3 109.742 23.7083 110.225 23.225C110.708 22.7417 111.3 22.5 112 22.5C112.7 22.5 113.292 22.7417 113.775 23.225C114.258 23.7083 114.5 24.3 114.5 25C114.5 25.7 114.258 26.2917 113.775 26.775C113.292 27.2583 112.7 27.5 112 27.5ZM104 33C103.45 33 102.979 32.8042 102.588 32.4125C102.196 32.0208 102 31.55 102 31V19C102 18.45 102.196 17.9792 102.588 17.5875C102.979 17.1958 103.45 17 104 17H107.15L109 15H115L116.85 17H120C120.55 17 121.021 17.1958 121.413 17.5875C121.804 17.9792 122 18.45 122 19V31C122 31.55 121.804 32.0208 121.413 32.4125C121.021 32.8042 120.55 33 120 33H104ZM104 31H120V19H115.95L114.125 17H109.875L108.05 19H104V31Z" fill="#1C1B1F"/>
</g>
<path d="M133.306 29.654C132.373 29.654 131.551 29.4393 130.842 29.01C130.142 28.5713 129.591 27.9647 129.19 27.19C128.798 26.4153 128.602 25.5147 128.602 24.488C128.602 23.4613 128.803 22.5607 129.204 21.786C129.605 21.002 130.165 20.3953 130.884 19.966C131.603 19.5273 132.429 19.308 133.362 19.308C134.09 19.308 134.748 19.4433 135.336 19.714C135.924 19.9847 136.419 20.3673 136.82 20.862C137.221 21.3473 137.487 21.926 137.618 22.598H136.54C136.325 21.87 135.933 21.3007 135.364 20.89C134.795 20.4793 134.113 20.274 133.32 20.274C132.592 20.274 131.948 20.4513 131.388 20.806C130.837 21.1513 130.408 21.6413 130.1 22.276C129.801 22.9013 129.652 23.6387 129.652 24.488C129.652 25.3187 129.806 26.0513 130.114 26.686C130.422 27.3207 130.851 27.8153 131.402 28.17C131.953 28.5153 132.592 28.688 133.32 28.688C134.113 28.688 134.804 28.4873 135.392 28.086C135.98 27.6847 136.381 27.1527 136.596 26.49H137.674C137.525 27.1153 137.24 27.666 136.82 28.142C136.409 28.618 135.901 28.9913 135.294 29.262C134.687 29.5233 134.025 29.654 133.306 29.654ZM141.017 29.668C140.298 29.668 139.733 29.4813 139.323 29.108C138.921 28.7347 138.721 28.254 138.721 27.666C138.721 27.0407 138.945 26.5413 139.393 26.168C139.841 25.7947 140.461 25.5753 141.255 25.51L143.495 25.328V25.104C143.495 24.656 143.415 24.306 143.257 24.054C143.098 23.7927 142.883 23.6107 142.613 23.508C142.342 23.4053 142.039 23.354 141.703 23.354C141.105 23.354 140.643 23.48 140.317 23.732C139.99 23.984 139.827 24.3387 139.827 24.796H138.945C138.945 24.3387 139.061 23.942 139.295 23.606C139.528 23.27 139.855 23.0087 140.275 22.822C140.695 22.6353 141.18 22.542 141.731 22.542C142.263 22.542 142.729 22.6353 143.131 22.822C143.532 22.9993 143.849 23.2793 144.083 23.662C144.325 24.0353 144.447 24.5207 144.447 25.118V29.5H143.635L143.509 28.31C143.303 28.7393 142.977 29.0753 142.529 29.318C142.09 29.5513 141.586 29.668 141.017 29.668ZM141.241 28.884C141.959 28.884 142.515 28.6553 142.907 28.198C143.299 27.7407 143.495 27.148 143.495 26.42V26.056L141.493 26.21C140.858 26.266 140.401 26.4247 140.12 26.686C139.841 26.9473 139.701 27.2647 139.701 27.638C139.701 28.0487 139.841 28.3613 140.12 28.576C140.401 28.7813 140.774 28.884 141.241 28.884ZM146.385 32.454V22.724H147.225L147.323 24.096C147.566 23.5733 147.911 23.186 148.359 22.934C148.816 22.6727 149.325 22.542 149.885 22.542C150.538 22.542 151.098 22.696 151.565 23.004C152.032 23.312 152.391 23.732 152.643 24.264C152.895 24.796 153.021 25.4027 153.021 26.084C153.021 26.7653 152.895 27.3767 152.643 27.918C152.4 28.4593 152.046 28.8887 151.579 29.206C151.122 29.514 150.557 29.668 149.885 29.668C149.306 29.668 148.798 29.5467 148.359 29.304C147.92 29.052 147.584 28.6833 147.351 28.198V32.454H146.385ZM147.365 26.112C147.365 26.6253 147.458 27.0873 147.645 27.498C147.832 27.8993 148.098 28.2167 148.443 28.45C148.798 28.6833 149.222 28.8 149.717 28.8C150.212 28.8 150.632 28.6833 150.977 28.45C151.322 28.2167 151.584 27.8993 151.761 27.498C151.948 27.0873 152.041 26.6253 152.041 26.112C152.041 25.5893 151.948 25.1273 151.761 24.726C151.584 24.3153 151.322 23.998 150.977 23.774C150.632 23.5407 150.212 23.424 149.717 23.424C149.222 23.424 148.798 23.5407 148.443 23.774C148.098 23.998 147.832 24.3153 147.645 24.726C147.458 25.1273 147.365 25.5893 147.365 26.112ZM153.736 22.724H157.404V23.536H153.736V22.724ZM156.046 29.5H155.094V20.582H156.046V29.5ZM163.422 22.724H164.388V29.5H163.548L163.422 28.352C163.236 28.744 162.923 29.0613 162.484 29.304C162.055 29.5467 161.574 29.668 161.042 29.668C160.249 29.668 159.638 29.416 159.208 28.912C158.788 28.408 158.578 27.7453 158.578 26.924V22.71H159.558V26.616C159.558 27.4187 159.722 27.9833 160.048 28.31C160.384 28.6367 160.818 28.8 161.35 28.8C162.004 28.8 162.512 28.59 162.876 28.17C163.24 27.7407 163.422 27.1247 163.422 26.322V22.724ZM169.943 22.64V23.508H169.411C168.785 23.508 168.286 23.6993 167.913 24.082C167.549 24.4647 167.367 24.9827 167.367 25.636V29.5H166.401V22.724H167.311L167.395 24.054H167.297C167.39 23.6153 167.619 23.2607 167.983 22.99C168.347 22.71 168.79 22.57 169.313 22.57C169.415 22.57 169.518 22.5747 169.621 22.584C169.723 22.5933 169.831 22.612 169.943 22.64ZM173.809 29.668C173.156 29.668 172.577 29.5187 172.073 29.22C171.578 28.9213 171.191 28.506 170.911 27.974C170.631 27.442 170.491 26.8213 170.491 26.112C170.491 25.412 170.626 24.796 170.897 24.264C171.177 23.7227 171.56 23.3027 172.045 23.004C172.53 22.696 173.095 22.542 173.739 22.542C174.355 22.542 174.892 22.6773 175.349 22.948C175.816 23.2187 176.175 23.5967 176.427 24.082C176.688 24.558 176.819 25.118 176.819 25.762V26.238H171.023L171.051 25.538H175.853C175.853 24.8847 175.657 24.362 175.265 23.97C174.882 23.5687 174.374 23.368 173.739 23.368C173.272 23.368 172.862 23.4753 172.507 23.69C172.162 23.9047 171.896 24.2127 171.709 24.614C171.522 25.006 171.429 25.4727 171.429 26.014C171.429 26.91 171.634 27.6053 172.045 28.1C172.465 28.5947 173.058 28.842 173.823 28.842C174.374 28.842 174.826 28.7253 175.181 28.492C175.536 28.2587 175.774 27.918 175.895 27.47H176.819C176.642 28.1793 176.296 28.7253 175.783 29.108C175.27 29.4813 174.612 29.668 173.809 29.668Z" fill="black"/>
<mask id="mask1_263_4927" style="mask-type:alpha" maskUnits="userSpaceOnUse" x="194" y="12" width="24" height="24">
<rect x="194" y="12" width="24" height="24" fill="#D9D9D9"/>
</mask>
<g mask="url(#mask1_263_4927)">
<path d="M205 31.475L200 28.6C199.683 28.4167 199.438 28.175 199.263 27.875C199.088 27.575 199 27.2417 199 26.875V21.125C199 20.7583 199.088 20.425 199.263 20.125C199.438 19.825 199.683 19.5833 200 19.4L205 16.525C205.317 16.3417 205.65 16.25 206 16.25C206.35 16.25 206.683 16.3417 207 16.525L212 19.4C212.317 19.5833 212.563 19.825 212.738 20.125C212.913 20.425 213 20.7583 213 21.125V26.875C213 27.2417 212.913 27.575 212.738 27.875C212.563 28.175 212.317 28.4167 212 28.6L207 31.475C206.683 31.6583 206.35 31.75 206 31.75C205.65 31.75 205.317 31.6583 205 31.475ZM205 29.175V24.575L201 22.25V26.875L205 29.175ZM207 29.175L211 26.875V22.25L207 24.575V29.175ZM196 19V16C196 15.45 196.196 14.9792 196.588 14.5875C196.979 14.1958 197.45 14 198 14H201V16H198V19H196ZM201 34H198C197.45 34 196.979 33.8042 196.588 33.4125C196.196 33.0208 196 32.55 196 32V29H198V32H201V34ZM211 34V32H214V29H216V32C216 32.55 215.804 33.0208 215.413 33.4125C215.021 33.8042 214.55 34 214 34H211ZM214 19V16H211V14H214C214.55 14 215.021 14.1958 215.413 14.5875C215.804 14.9792 216 15.45 216 16V19H214ZM206 22.85L209.95 20.525L206 18.25L202.05 20.525L206 22.85Z" fill="#1C1B1F"/>
</g>
<path d="M223.218 29.5H222.196L225.878 19.476H227.124L230.848 29.5H229.798L228.818 26.84H224.198L223.218 29.5ZM226.368 20.89L224.506 25.958H228.496L226.62 20.89C226.601 20.8153 226.578 20.7407 226.55 20.666C226.522 20.5913 226.503 20.5307 226.494 20.484C226.485 20.5307 226.466 20.596 226.438 20.68C226.419 20.7547 226.396 20.8247 226.368 20.89ZM233.249 29.5H232.241V19.476H235.979C236.987 19.476 237.781 19.7373 238.359 20.26C238.947 20.7733 239.241 21.478 239.241 22.374C239.241 23.0927 239.059 23.6947 238.695 24.18C238.341 24.6653 237.841 24.9967 237.197 25.174L239.339 29.5H238.219L236.175 25.342H233.249V29.5ZM233.249 20.386V24.432H236.007C236.698 24.432 237.235 24.25 237.617 23.886C238.009 23.522 238.205 23.0273 238.205 22.402C238.205 21.7487 238.005 21.2493 237.603 20.904C237.202 20.5587 236.661 20.386 235.979 20.386H233.249ZM247.837 29.5L244.001 19.476H245.079L247.753 26.448C247.856 26.7187 247.959 26.9987 248.061 27.288C248.164 27.568 248.271 27.8853 248.383 28.24C248.486 27.876 248.593 27.5307 248.705 27.204C248.827 26.8773 248.925 26.6207 248.999 26.434L251.659 19.476H252.695L248.887 29.5H247.837ZM253.838 29.5V22.724H254.804V29.5H253.838ZM254.314 20.862C254.118 20.862 253.95 20.792 253.81 20.652C253.67 20.512 253.6 20.344 253.6 20.148C253.6 19.952 253.67 19.784 253.81 19.644C253.95 19.4947 254.118 19.42 254.314 19.42C254.51 19.42 254.678 19.4947 254.818 19.644C254.967 19.784 255.042 19.952 255.042 20.148C255.042 20.344 254.967 20.512 254.818 20.652C254.678 20.792 254.51 20.862 254.314 20.862ZM259.661 29.668C259.007 29.668 258.429 29.5187 257.925 29.22C257.43 28.9213 257.043 28.506 256.763 27.974C256.483 27.442 256.343 26.8213 256.343 26.112C256.343 25.412 256.478 24.796 256.749 24.264C257.029 23.7227 257.411 23.3027 257.897 23.004C258.382 22.696 258.947 22.542 259.591 22.542C260.207 22.542 260.743 22.6773 261.201 22.948C261.667 23.2187 262.027 23.5967 262.279 24.082C262.54 24.558 262.671 25.118 262.671 25.762V26.238H256.875L256.903 25.538H261.705C261.705 24.8847 261.509 24.362 261.117 23.97C260.734 23.5687 260.225 23.368 259.591 23.368C259.124 23.368 258.713 23.4753 258.359 23.69C258.013 23.9047 257.747 24.2127 257.561 24.614C257.374 25.006 257.281 25.4727 257.281 26.014C257.281 26.91 257.486 27.6053 257.897 28.1C258.317 28.5947 258.909 28.842 259.675 28.842C260.225 28.842 260.678 28.7253 261.033 28.492C261.387 28.2587 261.625 27.918 261.747 27.47H262.671C262.493 28.1793 262.148 28.7253 261.635 29.108C261.121 29.4813 260.463 29.668 259.661 29.668ZM265.452 29.5L263.212 22.724H264.206L265.536 26.812C265.61 27.036 265.68 27.2647 265.746 27.498C265.82 27.7313 265.89 27.988 265.956 28.268C265.993 28.0907 266.04 27.904 266.096 27.708C266.152 27.5027 266.203 27.3207 266.25 27.162C266.306 27.0033 266.343 26.8867 266.362 26.812L267.706 22.724H268.7L270.03 26.812C270.058 26.9053 270.09 27.0127 270.128 27.134C270.165 27.246 270.202 27.3627 270.24 27.484C270.277 27.6053 270.31 27.736 270.338 27.876C270.375 28.0067 270.412 28.1373 270.45 28.268C270.496 28.072 270.534 27.9133 270.562 27.792C270.59 27.6613 270.627 27.526 270.674 27.386C270.72 27.246 270.781 27.0547 270.856 26.812L272.2 22.724H273.208L270.912 29.5H269.974L268.574 25.244C268.49 24.992 268.415 24.7587 268.35 24.544C268.294 24.3293 268.247 24.1193 268.21 23.914C268.163 24.1007 268.107 24.3013 268.042 24.516C267.986 24.7213 267.911 24.964 267.818 25.244L266.418 29.5H265.452Z" fill="black"/>
</svg>
