<svg width="40" height="132" viewBox="0 0 40 132" fill="none" xmlns="http://www.w3.org/2000/svg">
<path d="M13.1 24.05C12.7333 23.4167 12.4583 22.7667 12.275 22.1C12.0917 21.4333 12 20.75 12 20.05C12 17.8167 12.775 15.9167 14.325 14.35C15.875 12.7833 17.7667 12 20 12H20.175L18.575 10.4L19.975 9L23.975 13L19.975 17L18.575 15.6L20.175 14H20C18.3333 14 16.9167 14.5875 15.75 15.7625C14.5833 16.9375 14 18.3667 14 20.05C14 20.4833 14.05 20.9083 14.15 21.325C14.25 21.7417 14.4 22.15 14.6 22.55L13.1 24.05ZM20.025 31L16.025 27L20.025 23L21.425 24.4L19.825 26H20C21.6667 26 23.0833 25.4125 24.25 24.2375C25.4167 23.0625 26 21.6333 26 19.95C26 19.5167 25.95 19.0917 25.85 18.675C25.75 18.2583 25.6 17.85 25.4 17.45L26.9 15.95C27.2667 16.5833 27.5417 17.2333 27.725 17.9C27.9083 18.5667 28 19.25 28 19.95C28 22.1833 27.225 24.0833 25.675 25.65C24.125 27.2167 22.2333 28 20 28H19.825L21.425 29.6L20.025 31Z" fill="#505050"/>
<line x1="32" y1="44.5" x2="8" y2="44.5" stroke="#F2F2F2"/>
<path fill-rule="evenodd" clip-rule="evenodd" d="M20 74.5C23.866 74.5 27 71.366 27 67.5C27 63.634 23.866 60.5 20 60.5C16.134 60.5 13 63.634 13 67.5C13 71.366 16.134 74.5 20 74.5ZM20 76.5C21.8683 76.5 23.6036 75.9307 25.042 74.9562L27.2929 77.2071C27.6834 77.5976 28.3166 77.5976 28.7071 77.2071C29.0976 76.8166 29.0976 76.1834 28.7071 75.7929L26.5677 73.6535C28.0762 72.0441 29 69.8799 29 67.5C29 62.5294 24.9706 58.5 20 58.5C15.0294 58.5 11 62.5294 11 67.5C11 72.4706 15.0294 76.5 20 76.5ZM20 62.75C20.4142 62.75 20.75 63.0858 20.75 63.5V66.75H24C24.4142 66.75 24.75 67.0858 24.75 67.5C24.75 67.9142 24.4142 68.25 24 68.25H20.75V71.5C20.75 71.9142 20.4142 72.25 20 72.25C19.5858 72.25 19.25 71.9142 19.25 71.5V68.25H16C15.5858 68.25 15.25 67.9142 15.25 67.5C15.25 67.0858 15.5858 66.75 16 66.75H19.25V63.5C19.25 63.0858 19.5858 62.75 20 62.75Z" fill="#505050"/>
<path fill-rule="evenodd" clip-rule="evenodd" d="M20 118.5C23.866 118.5 27 115.366 27 111.5C27 107.634 23.866 104.5 20 104.5C16.134 104.5 13 107.634 13 111.5C13 115.366 16.134 118.5 20 118.5ZM20 120.5C21.8683 120.5 23.6036 119.931 25.042 118.956L27.2929 121.207C27.6834 121.598 28.3166 121.598 28.7071 121.207C29.0976 120.817 29.0976 120.183 28.7071 119.793L26.5677 117.654C28.0762 116.044 29 113.88 29 111.5C29 106.529 24.9706 102.5 20 102.5C15.0294 102.5 11 106.529 11 111.5C11 116.471 15.0294 120.5 20 120.5ZM16 110.75C15.5858 110.75 15.25 111.086 15.25 111.5C15.25 111.914 15.5858 112.25 16 112.25H24C24.4142 112.25 24.75 111.914 24.75 111.5C24.75 111.086 24.4142 110.75 24 110.75H16Z" fill="#505050"/>
</svg>
