<svg width="184" height="40" viewBox="0 0 184 40" fill="none" xmlns="http://www.w3.org/2000/svg">
<path d="M25.5 25.8V23H24.5V26.2L26.65 28.35L27.35 27.65L25.5 25.8ZM19 11L13.075 14.425L19 17.85L24.925 14.425L19 11ZM10 22.975V15.025C10 14.6583 10.0875 14.325 10.2625 14.025C10.4375 13.725 10.6833 13.4833 11 13.3L18 9.275C18.1667 9.19167 18.3292 9.125 18.4875 9.075C18.6458 9.025 18.8167 9 19 9C19.1833 9 19.3583 9.025 19.525 9.075C19.6917 9.125 19.85 9.19167 20 9.275L27 13.3C27.3167 13.4833 27.5625 13.725 27.7375 14.025C27.9125 14.325 28 14.6583 28 15.025V19H26V16.1L18.975 20.15L12 16.1V22.95L18 26.425V28.725L11 24.7C10.6833 24.5167 10.4375 24.275 10.2625 23.975C10.0875 23.675 10 23.3417 10 22.975ZM25 31C23.6167 31 22.4375 30.5125 21.4625 29.5375C20.4875 28.5625 20 27.3833 20 26C20 24.6167 20.4875 23.4375 21.4625 22.4625C22.4375 21.4875 23.6167 21 25 21C26.3833 21 27.5625 21.4875 28.5375 22.4625C29.5125 23.4375 30 24.6167 30 26C30 27.3833 29.5125 28.5625 28.5375 29.5375C27.5625 30.5125 26.3833 31 25 31Z" fill="#3C3C3C"/>
<path d="M77 15V27C77 27.55 76.8042 28.0208 76.4125 28.4125C76.0208 28.8042 75.55 29 75 29H61C60.45 29 59.9792 28.8042 59.5875 28.4125C59.1958 28.0208 59 27.55 59 27V13C59 12.45 59.1958 11.9792 59.5875 11.5875C59.9792 11.1958 60.45 11 61 11H73L77 15ZM75 15.85L72.15 13H61V27H75V15.85ZM68 26C68.8333 26 69.5417 25.7083 70.125 25.125C70.7083 24.5417 71 23.8333 71 23C71 22.1667 70.7083 21.4583 70.125 20.875C69.5417 20.2917 68.8333 20 68 20C67.1667 20 66.4583 20.2917 65.875 20.875C65.2917 21.4583 65 22.1667 65 23C65 23.8333 65.2917 24.5417 65.875 25.125C66.4583 25.7083 67.1667 26 68 26ZM62 18H71V14H62V18Z" fill="#3C3C3C"/>
<path d="M116 24L111 19L112.4 17.55L115 20.15V12H117V20.15L119.6 17.55L121 19L116 24ZM110 28C109.45 28 108.979 27.8042 108.588 27.4125C108.196 27.0208 108 26.55 108 26V23H110V26H122V23H124V26C124 26.55 123.804 27.0208 123.413 27.4125C123.021 27.8042 122.55 28 122 28H110Z" fill="#3C3C3C"/>
<path d="M163.95 26C164.3 26 164.596 25.8792 164.838 25.6375C165.079 25.3958 165.2 25.1 165.2 24.75C165.2 24.4 165.079 24.1042 164.838 23.8625C164.596 23.6208 164.3 23.5 163.95 23.5C163.6 23.5 163.304 23.6208 163.062 23.8625C162.821 24.1042 162.7 24.4 162.7 24.75C162.7 25.1 162.821 25.3958 163.062 25.6375C163.304 25.8792 163.6 26 163.95 26ZM163.05 22.15H164.9C164.9 21.6 164.963 21.1667 165.088 20.85C165.213 20.5333 165.567 20.1 166.15 19.55C166.583 19.1167 166.925 18.7042 167.175 18.3125C167.425 17.9208 167.55 17.45 167.55 16.9C167.55 15.9667 167.208 15.25 166.525 14.75C165.842 14.25 165.033 14 164.1 14C163.15 14 162.379 14.25 161.787 14.75C161.196 15.25 160.783 15.85 160.55 16.55L162.2 17.2C162.283 16.9 162.471 16.575 162.762 16.225C163.054 15.875 163.5 15.7 164.1 15.7C164.633 15.7 165.033 15.8458 165.3 16.1375C165.567 16.4292 165.7 16.75 165.7 17.1C165.7 17.4333 165.6 17.7458 165.4 18.0375C165.2 18.3292 164.95 18.6 164.65 18.85C163.917 19.5 163.467 19.9917 163.3 20.325C163.133 20.6583 163.05 21.2667 163.05 22.15ZM164 30C162.617 30 161.317 29.7375 160.1 29.2125C158.883 28.6875 157.825 27.975 156.925 27.075C156.025 26.175 155.312 25.1167 154.788 23.9C154.262 22.6833 154 21.3833 154 20C154 18.6167 154.262 17.3167 154.788 16.1C155.312 14.8833 156.025 13.825 156.925 12.925C157.825 12.025 158.883 11.3125 160.1 10.7875C161.317 10.2625 162.617 10 164 10C165.383 10 166.683 10.2625 167.9 10.7875C169.117 11.3125 170.175 12.025 171.075 12.925C171.975 13.825 172.688 14.8833 173.212 16.1C173.737 17.3167 174 18.6167 174 20C174 21.3833 173.737 22.6833 173.212 23.9C172.688 25.1167 171.975 26.175 171.075 27.075C170.175 27.975 169.117 28.6875 167.9 29.2125C166.683 29.7375 165.383 30 164 30ZM164 28C166.233 28 168.125 27.225 169.675 25.675C171.225 24.125 172 22.2333 172 20C172 17.7667 171.225 15.875 169.675 14.325C168.125 12.775 166.233 12 164 12C161.767 12 159.875 12.775 158.325 14.325C156.775 15.875 156 17.7667 156 20C156 22.2333 156.775 24.125 158.325 25.675C159.875 27.225 161.767 28 164 28Z" fill="#1C1B1F"/>
</svg>
