<svg width="52" height="52" viewBox="0 0 52 52" fill="none" xmlns="http://www.w3.org/2000/svg">
<mask id="mask0_2037_5623" style="mask-type:alpha" maskUnits="userSpaceOnUse" x="16" y="16" width="20" height="20">
<rect x="16" y="16" width="20" height="20" fill="#282828"/>
</mask>
<g mask="url(#mask0_2037_5623)">
<path d="M19.3307 34.3327C18.8724 34.3327 18.48 34.1695 18.1536 33.8431C17.8273 33.5167 17.6641 33.1243 17.6641 32.666V22.666C17.6641 22.2077 17.8273 21.8153 18.1536 21.4889C18.48 21.1625 18.8724 20.9993 19.3307 20.9993H22.6641V19.3327C22.6641 18.8743 22.8273 18.482 23.1536 18.1556C23.48 17.8292 23.8724 17.666 24.3307 17.666H27.6641C28.1224 17.666 28.5148 17.8292 28.8411 18.1556C29.1675 18.482 29.3307 18.8743 29.3307 19.3327V20.9993H32.6641C33.1224 20.9993 33.5148 21.1625 33.8411 21.4889C34.1675 21.8153 34.3307 22.2077 34.3307 22.666V32.666C34.3307 33.1243 34.1675 33.5167 33.8411 33.8431C33.5148 34.1695 33.1224 34.3327 32.6641 34.3327H19.3307ZM19.3307 32.666H32.6641V22.666H19.3307V32.666ZM24.3307 20.9993H27.6641V19.3327H24.3307V20.9993ZM25.1641 28.4993V30.9993H26.8307V28.4993H29.3307V26.8327H26.8307V24.3327H25.1641V26.8327H22.6641V28.4993H25.1641Z" fill="#596168"/>
</g>
</svg>
