<svg width="52" height="52" viewBox="0 0 52 52" fill="none" xmlns="http://www.w3.org/2000/svg">
<mask id="mask0_2037_5627" style="mask-type:alpha" maskUnits="userSpaceOnUse" x="16" y="16" width="20" height="20">
<rect x="16" y="16" width="20" height="20" fill="#282828"/>
</mask>
<g mask="url(#mask0_2037_5627)">
<path d="M21.0026 35.1673H18.5026C18.0443 35.1673 17.6519 35.0041 17.3255 34.6777C16.9991 34.3513 16.8359 33.959 16.8359 33.5007V31.0007H18.5026V33.5007H21.0026V35.1673ZM31.0026 35.1673V33.5007H33.5026V31.0007H35.1693V33.5007C35.1693 33.959 35.0061 34.3513 34.6797 34.6777C34.3533 35.0041 33.9609 35.1673 33.5026 35.1673H31.0026ZM26.0026 31.4173C24.3359 31.4173 22.8255 30.9243 21.4714 29.9382C20.1172 28.952 19.1276 27.6395 18.5026 26.0007C19.1276 24.3618 20.1172 23.0493 21.4714 22.0632C22.8255 21.077 24.3359 20.584 26.0026 20.584C27.6693 20.584 29.1797 21.077 30.5339 22.0632C31.888 23.0493 32.8776 24.3618 33.5026 26.0007C32.8776 27.6395 31.888 28.952 30.5339 29.9382C29.1797 30.9243 27.6693 31.4173 26.0026 31.4173ZM26.0026 29.7507C27.2248 29.7507 28.3429 29.4173 29.3568 28.7507C30.3707 28.084 31.1484 27.1673 31.6901 26.0007C31.1484 24.834 30.3707 23.9173 29.3568 23.2507C28.3429 22.584 27.2248 22.2507 26.0026 22.2507C24.7804 22.2507 23.6623 22.584 22.6484 23.2507C21.6345 23.9173 20.8568 24.834 20.3151 26.0007C20.8568 27.1673 21.6345 28.084 22.6484 28.7507C23.6623 29.4173 24.7804 29.7507 26.0026 29.7507ZM26.0026 28.9173C26.8082 28.9173 27.4957 28.6326 28.0651 28.0632C28.6345 27.4937 28.9193 26.8062 28.9193 26.0007C28.9193 25.1951 28.6345 24.5076 28.0651 23.9382C27.4957 23.3687 26.8082 23.084 26.0026 23.084C25.197 23.084 24.5095 23.3687 23.9401 23.9382C23.3707 24.5076 23.0859 25.1951 23.0859 26.0007C23.0859 26.8062 23.3707 27.4937 23.9401 28.0632C24.5095 28.6326 25.197 28.9173 26.0026 28.9173ZM26.0026 27.2507C25.6554 27.2507 25.3602 27.1291 25.1172 26.8861C24.8741 26.643 24.7526 26.3479 24.7526 26.0007C24.7526 25.6534 24.8741 25.3583 25.1172 25.1152C25.3602 24.8722 25.6554 24.7507 26.0026 24.7507C26.3498 24.7507 26.645 24.8722 26.888 25.1152C27.1311 25.3583 27.2526 25.6534 27.2526 26.0007C27.2526 26.3479 27.1311 26.643 26.888 26.8861C26.645 27.1291 26.3498 27.2507 26.0026 27.2507ZM16.8359 21.0007V18.5007C16.8359 18.0423 16.9991 17.65 17.3255 17.3236C17.6519 16.9972 18.0443 16.834 18.5026 16.834H21.0026V18.5007H18.5026V21.0007H16.8359ZM33.5026 21.0007V18.5007H31.0026V16.834H33.5026C33.9609 16.834 34.3533 16.9972 34.6797 17.3236C35.0061 17.65 35.1693 18.0423 35.1693 18.5007V21.0007H33.5026Z" fill="#596168"/>
</g>
</svg>
