<svg width="40" height="41" viewBox="0 0 40 41" fill="none" xmlns="http://www.w3.org/2000/svg">
<path fill-rule="evenodd" clip-rule="evenodd" d="M9 10.5449C9.55228 10.5449 10 10.9926 10 11.5449V12.5449H11C11.5523 12.5449 12 12.9926 12 13.5449C12 14.0972 11.5523 14.5449 11 14.5449H10V16.5449L12 16.5449C12.5523 16.5449 13 16.9926 13 17.5449C13 18.0972 12.5523 18.5449 12 18.5449L10 18.5449V20.5449H11C11.5523 20.5449 12 20.9926 12 21.5449C12 22.0972 11.5523 22.5449 11 22.5449H10V24.5449H12C12.5523 24.5449 13 24.9926 13 25.5449C13 26.0972 12.5523 26.5449 12 26.5449H10V28.5449C10 29.0972 9.55229 29.5449 9 29.5449C8.44772 29.5449 8 29.0972 8 28.5449V11.5449C8 10.9926 8.44772 10.5449 9 10.5449Z" fill="black"/>
<path d="M23 29.0449C20.4833 29.0449 18.3542 28.6574 16.6125 27.8824C14.8708 27.1074 14 26.1616 14 25.0449V15.0449C14 13.9449 14.8792 13.0033 16.6375 12.2199C18.3958 11.4366 20.5167 11.0449 23 11.0449C25.4833 11.0449 27.6042 11.4366 29.3625 12.2199C31.1208 13.0033 32 13.9449 32 15.0449V25.0449C32 26.1616 31.1292 27.1074 29.3875 27.8824C27.6458 28.6574 25.5167 29.0449 23 29.0449ZM23 17.0699C24.4833 17.0699 25.975 16.8574 27.475 16.4324C28.975 16.0074 29.8167 15.5533 30 15.0699C29.8167 14.5866 28.9792 14.1283 27.4875 13.6949C25.9958 13.2616 24.5 13.0449 23 13.0449C21.4833 13.0449 19.9958 13.2574 18.5375 13.6824C17.0792 14.1074 16.2333 14.5699 16 15.0699C16.2333 15.5699 17.0792 16.0283 18.5375 16.4449C19.9958 16.8616 21.4833 17.0699 23 17.0699ZM23 22.0449C23.7 22.0449 24.375 22.0116 25.025 21.9449C25.675 21.8783 26.2958 21.7824 26.8875 21.6574C27.4792 21.5324 28.0375 21.3783 28.5625 21.1949C29.0875 21.0116 29.5667 20.8033 30 20.5699V17.5699C29.5667 17.8033 29.0875 18.0116 28.5625 18.1949C28.0375 18.3783 27.4792 18.5324 26.8875 18.6574C26.2958 18.7824 25.675 18.8783 25.025 18.9449C24.375 19.0116 23.7 19.0449 23 19.0449C22.3 19.0449 21.6167 19.0116 20.95 18.9449C20.2833 18.8783 19.6542 18.7824 19.0625 18.6574C18.4708 18.5324 17.9167 18.3783 17.4 18.1949C16.8833 18.0116 16.4167 17.8033 16 17.5699V20.5699C16.4167 20.8033 16.8833 21.0116 17.4 21.1949C17.9167 21.3783 18.4708 21.5324 19.0625 21.6574C19.6542 21.7824 20.2833 21.8783 20.95 21.9449C21.6167 22.0116 22.3 22.0449 23 22.0449ZM23 27.0449C23.7667 27.0449 24.5458 26.9866 25.3375 26.8699C26.1292 26.7533 26.8583 26.5991 27.525 26.4074C28.1917 26.2158 28.75 25.9991 29.2 25.7574C29.65 25.5158 29.9167 25.2699 30 25.0199V22.5699C29.5667 22.8033 29.0875 23.0116 28.5625 23.1949C28.0375 23.3783 27.4792 23.5324 26.8875 23.6574C26.2958 23.7824 25.675 23.8783 25.025 23.9449C24.375 24.0116 23.7 24.0449 23 24.0449C22.3 24.0449 21.6167 24.0116 20.95 23.9449C20.2833 23.8783 19.6542 23.7824 19.0625 23.6574C18.4708 23.5324 17.9167 23.3783 17.4 23.1949C16.8833 23.0116 16.4167 22.8033 16 22.5699V25.0449C16.0833 25.2949 16.3458 25.5366 16.7875 25.7699C17.2292 26.0033 17.7833 26.2158 18.45 26.4074C19.1167 26.5991 19.85 26.7533 20.65 26.8699C21.45 26.9866 22.2333 27.0449 23 27.0449Z" fill="#1C1B1F"/>
</svg>
