<svg width="40" height="41" viewBox="0 0 40 41" fill="none" xmlns="http://www.w3.org/2000/svg">
<path d="M20 11.0449C24.9706 11.0449 29 15.0744 29 20.0449C29 25.0155 24.9706 29.0449 20 29.0449H11V20.0449C11 15.0744 15.0294 11.0449 20 11.0449Z" stroke="#1C1B1F" stroke-width="2"/>
<path fill-rule="evenodd" clip-rule="evenodd" d="M20.8031 17.0441C20.8031 16.6023 20.445 16.2441 20.0031 16.2441C19.5613 16.2441 19.2031 16.6023 19.2031 17.0441V19.2441L17.0031 19.2441C16.5613 19.2441 16.2031 19.6023 16.2031 20.0441C16.2031 20.486 16.5613 20.8441 17.0031 20.8441H19.2031V23.0441C19.2031 23.486 19.5613 23.8441 20.0031 23.8441C20.445 23.8441 20.8031 23.486 20.8031 23.0441V20.8441H23.0031C23.445 20.8441 23.8031 20.486 23.8031 20.0441C23.8031 19.6023 23.445 19.2441 23.0031 19.2441L20.8031 19.2441V17.0441Z" fill="black"/>
</svg>
