<svg width="40" height="41" viewBox="0 0 40 41" fill="none" xmlns="http://www.w3.org/2000/svg">
<path d="M13 27.0449H14.425L24.2 17.2699L22.775 15.8449L13 25.6199V27.0449ZM11 29.0449V24.7949L24.2 11.6199C24.4 11.4366 24.6208 11.2949 24.8625 11.1949C25.1042 11.0949 25.3583 11.0449 25.625 11.0449C25.8917 11.0449 26.15 11.0949 26.4 11.1949C26.65 11.2949 26.8667 11.4449 27.05 11.6449L28.425 13.0449C28.625 13.2283 28.7708 13.4449 28.8625 13.6949C28.9542 13.9449 29 14.1949 29 14.4449C29 14.7116 28.9542 14.9658 28.8625 15.2074C28.7708 15.4491 28.625 15.6699 28.425 15.8699L15.25 29.0449H11ZM23.475 16.5699L22.775 15.8449L24.2 17.2699L23.475 16.5699Z" fill="#1C1B1F"/>
</svg>
