<svg width="40" height="41" viewBox="0 0 40 41" fill="none" xmlns="http://www.w3.org/2000/svg">
<path fill-rule="evenodd" clip-rule="evenodd" d="M10.2535 28.7108C10.0761 28.5118 9.99283 28.2616 10.0005 28.0146C10.0021 27.6487 10.2002 27.3291 10.4948 27.1561L28.3346 11.2535C28.7469 10.886 29.379 10.9223 29.7465 11.3346C30.114 11.7469 30.0777 12.379 29.6654 12.7465L19.6187 21.7023C21.169 22.6812 22.0149 24.0548 22.4668 25.2529C22.7191 25.922 22.8515 26.5412 22.9213 27.019H29.0005C29.5528 27.019 30.0005 27.4668 30.0005 28.019C30.0005 28.5713 29.5528 29.019 29.0005 29.019H11.229C10.8837 29.0999 10.5061 28.9942 10.2535 28.7108ZM20.8934 27.019C20.8333 26.7059 20.7399 26.3417 20.5955 25.9587C20.212 24.9418 19.4807 23.8127 18.04 23.1095L13.6542 27.019H20.8934Z" fill="#1C1B1F"/>
<circle cx="25" cy="22.0234" r="1.5" stroke="#1C1B1F"/>
</svg>
