<svg width="40" height="39" viewBox="0 0 40 39" fill="none" xmlns="http://www.w3.org/2000/svg">
<path d="M23.375 28.8449C23.1917 29.0283 22.9792 29.1699 22.7375 29.2699C22.4958 29.3699 22.2417 29.4199 21.975 29.4199C21.7083 29.4199 21.45 29.3699 21.2 29.2699C20.95 29.1699 20.7333 29.0283 20.55 28.8449L19.15 27.4449C18.9667 27.2616 18.8292 27.0574 18.7375 26.8324C18.6458 26.6074 18.5917 26.3783 18.575 26.1449C18.5583 25.9116 18.5875 25.6783 18.6625 25.4449C18.7375 25.2116 18.85 24.9949 19 24.7949L19.15 24.5949L11 12.9449L14.9 9.04492L27.625 21.7699C27.8083 21.9533 27.95 22.1658 28.05 22.4074C28.15 22.6491 28.2 22.9033 28.2 23.1699C28.2 23.4366 28.15 23.6949 28.05 23.9449C27.95 24.1949 27.8083 24.4116 27.625 24.5949L23.375 28.8449ZM20.575 23.1699L23.4 20.3699L14.9 11.8699L13.6 13.1699L20.575 23.1699ZM21.975 27.4199L26.2 23.1949L24.8 21.7699L20.55 26.0199L21.975 27.4199Z" fill="#1C1B1F"/>
</svg>
