<svg width="40" height="41" viewBox="0 0 40 41" fill="none" xmlns="http://www.w3.org/2000/svg">
<path d="M19 27.4699V20.6199L13 17.1449V23.9949L19 27.4699ZM21 27.4699L27 23.9949V17.1449L21 20.6199V27.4699ZM20 18.8949L25.925 15.4699L20 12.0449L14.075 15.4699L20 18.8949ZM12 25.7449C11.6833 25.5616 11.4375 25.3199 11.2625 25.0199C11.0875 24.7199 11 24.3866 11 24.0199V16.0699C11 15.7033 11.0875 15.3699 11.2625 15.0699C11.4375 14.7699 11.6833 14.5283 12 14.3449L19 10.3199C19.3167 10.1366 19.65 10.0449 20 10.0449C20.35 10.0449 20.6833 10.1366 21 10.3199L28 14.3449C28.3167 14.5283 28.5625 14.7699 28.7375 15.0699C28.9125 15.3699 29 15.7033 29 16.0699V24.0199C29 24.3866 28.9125 24.7199 28.7375 25.0199C28.5625 25.3199 28.3167 25.5616 28 25.7449L21 29.7699C20.6833 29.9533 20.35 30.0449 20 30.0449C19.65 30.0449 19.3167 29.9533 19 29.7699L12 25.7449Z" fill="#1C1B1F"/>
</svg>
