<svg width="52" height="52" viewBox="0 0 52 52" fill="none" xmlns="http://www.w3.org/2000/svg">
<mask id="mask0_2037_5631" style="mask-type:alpha" maskUnits="userSpaceOnUse" x="16" y="16" width="20" height="20">
<rect x="16" y="16" width="20" height="20" fill="#282828"/>
</mask>
<g mask="url(#mask0_2037_5631)">
<path d="M25.1641 32.2285L20.9974 29.8327C20.7335 29.6799 20.5286 29.4785 20.3828 29.2285C20.237 28.9785 20.1641 28.7007 20.1641 28.3952V23.6035C20.1641 23.298 20.237 23.0202 20.3828 22.7702C20.5286 22.5202 20.7335 22.3188 20.9974 22.166L25.1641 19.7702C25.428 19.6174 25.7057 19.541 25.9974 19.541C26.2891 19.541 26.5668 19.6174 26.8307 19.7702L30.9974 22.166C31.2613 22.3188 31.4661 22.5202 31.612 22.7702C31.7578 23.0202 31.8307 23.298 31.8307 23.6035V28.3952C31.8307 28.7007 31.7578 28.9785 31.612 29.2285C31.4661 29.4785 31.2613 29.6799 30.9974 29.8327L26.8307 32.2285C26.5668 32.3813 26.2891 32.4577 25.9974 32.4577C25.7057 32.4577 25.428 32.3813 25.1641 32.2285ZM25.1641 30.3118V26.4785L21.8307 24.541V28.3952L25.1641 30.3118ZM26.8307 30.3118L30.1641 28.3952V24.541L26.8307 26.4785V30.3118ZM17.6641 21.8327V19.3327C17.6641 18.8743 17.8273 18.482 18.1536 18.1556C18.48 17.8292 18.8724 17.666 19.3307 17.666H21.8307V19.3327H19.3307V21.8327H17.6641ZM21.8307 34.3327H19.3307C18.8724 34.3327 18.48 34.1695 18.1536 33.8431C17.8273 33.5167 17.6641 33.1243 17.6641 32.666V30.166H19.3307V32.666H21.8307V34.3327ZM30.1641 34.3327V32.666H32.6641V30.166H34.3307V32.666C34.3307 33.1243 34.1675 33.5167 33.8411 33.8431C33.5148 34.1695 33.1224 34.3327 32.6641 34.3327H30.1641ZM32.6641 21.8327V19.3327H30.1641V17.666H32.6641C33.1224 17.666 33.5148 17.8292 33.8411 18.1556C34.1675 18.482 34.3307 18.8743 34.3307 19.3327V21.8327H32.6641ZM25.9974 25.041L29.2891 23.1035L25.9974 21.2077L22.7057 23.1035L25.9974 25.041Z" fill="#596168"/>
</g>
</svg>
