<svg width="52" height="52" viewBox="0 0 52 52" fill="none" xmlns="http://www.w3.org/2000/svg">
<mask id="mask0_2037_5635" style="mask-type:alpha" maskUnits="userSpaceOnUse" x="16" y="16" width="20" height="20">
<rect x="16" y="16" width="20" height="20" fill="#D9D9D9"/>
</mask>
<g mask="url(#mask0_2037_5635)">
<path d="M21.0026 32.6673C20.3082 32.6673 19.7179 32.4243 19.2318 31.9382C18.7457 31.452 18.5026 30.8618 18.5026 30.1673H16.8359V21.0007C16.8359 20.5423 16.9991 20.15 17.3255 19.8236C17.6519 19.4972 18.0443 19.334 18.5026 19.334H30.1693V22.6673H32.6693L35.1693 26.0007V30.1673H33.5026C33.5026 30.8618 33.2596 31.452 32.7734 31.9382C32.2873 32.4243 31.697 32.6673 31.0026 32.6673C30.3082 32.6673 29.7179 32.4243 29.2318 31.9382C28.7457 31.452 28.5026 30.8618 28.5026 30.1673H23.5026C23.5026 30.8618 23.2595 31.452 22.7734 31.9382C22.2873 32.4243 21.697 32.6673 21.0026 32.6673ZM21.0026 31.0007C21.2387 31.0007 21.4366 30.9208 21.5964 30.7611C21.7561 30.6013 21.8359 30.4034 21.8359 30.1673C21.8359 29.9312 21.7561 29.7333 21.5964 29.5736C21.4366 29.4138 21.2387 29.334 21.0026 29.334C20.7665 29.334 20.5686 29.4138 20.4089 29.5736C20.2491 29.7333 20.1693 29.9312 20.1693 30.1673C20.1693 30.4034 20.2491 30.6013 20.4089 30.7611C20.5686 30.9208 20.7665 31.0007 21.0026 31.0007ZM18.5026 28.5007H19.1693C19.4054 28.2507 19.6762 28.0493 19.9818 27.8965C20.2873 27.7437 20.6276 27.6673 21.0026 27.6673C21.3776 27.6673 21.7179 27.7437 22.0234 27.8965C22.329 28.0493 22.5998 28.2507 22.8359 28.5007H28.5026V21.0007H18.5026V28.5007ZM31.0026 31.0007C31.2387 31.0007 31.4366 30.9208 31.5964 30.7611C31.7561 30.6013 31.8359 30.4034 31.8359 30.1673C31.8359 29.9312 31.7561 29.7333 31.5964 29.5736C31.4366 29.4138 31.2387 29.334 31.0026 29.334C30.7665 29.334 30.5686 29.4138 30.4089 29.5736C30.2491 29.7333 30.1693 29.9312 30.1693 30.1673C30.1693 30.4034 30.2491 30.6013 30.4089 30.7611C30.5686 30.9208 30.7665 31.0007 31.0026 31.0007ZM30.1693 26.834H33.7109L31.8359 24.334H30.1693V26.834Z" fill="#596168"/>
</g>
</svg>
